<svg xmlns="http://www.w3.org/2000/svg" viewBox="0 0 703.56 419.4">
  <defs>
    <style>
      .a {
        isolation: isolate;
      }

      .b {
        mix-blend-mode: hard-light;
      }

      .c {
        fill: #fff;
      }
    </style>
  </defs>
  <title>Карта</title>
  <g class="a">
    <g class="b">
      <path class="c" d="M425.52,299.76c-.28.66-.06,2.07-.41,2.48-1.11,1.32-3.25,4.47-4.84,5.55-2,1.41-4.5,1.16-4.5,5.22,0,1.33,1,3.4,1,4.31,0,.16-1.38,3.72-1.38,3.72a5,5,0,0,0-1.39,1.66c0,1.25,0,2.57.83,3.32.07.58-.14,1-.14,2.07,0,2.15,1.52,4.54,3.25,4.54,4.22,0,4.84-5.54,6.08-9.27,1.52-4.72,3.11-8.87,3.11-14.91a6,6,0,0,1,1.18.41v-1.24C427.67,305.48,427.88,300.09,425.52,299.76Z"/>
      <path class="c" d="M486,253.94c0,1.16.76,2.32,1.73,2.32,1.31,0,2.21-1.9,2.21-3.4,0-2.65-2-3.65-3-5.63C487,249.72,486,251.54,486,253.94Z"/>
      <path class="c" d="M537.33,282.78c0-.83-.34-2,.36-2.32v-3.57c0-.83-1-1.08-1.39-1.57-.76-.91-1.59-1.4-1.59-3.15-.76,0-1.31-.25-1.31-1.33l.28-.83c-.14-.33-.35-.75-.62-.75h-.55c0-.09.13-.33.13-.41,0-1.25-1.17-1.66-2.21-2.08-1.94-.75-2.7-1.82-4-3.4-.69-.83-1.18-1.83-2.21-2.24-.28-.08-.62,0-.75-.42-.56-1.32-1-2.56-2.56-3.14H518.6c-.56-.34-.7-.75-1.39-.75h-.42v.67c.21.83,1.31,3.15,1.87,3.32s1.31,0,1.59.74c.42,1,.63,1.5,1,2.49.48,1.16,2.08.83,2.56,2.74a9.32,9.32,0,0,0,1,2.9c.2.17,1,.25,1.1.42s0,.74.21.74a7,7,0,0,1,1.17,2.07A16.65,16.65,0,0,0,530,278c1.24,1.49,2.5,2.15,3.8,3.73.07.08,1.32,2.24,1.66,2.24S537.33,283.69,537.33,282.78Z"/>
      <path class="c" d="M543.77,268.2c0,.41.69,3.39,1,3.47s.76.08.9.5c0,.08-.07.33-.07.42.9,1.66-.21,4.56,2.35,4.56.56,0,.9-.51,1.46-.42.06.33,0,1.24.13,1.24s.34.41.55.41c.83,0,1.18-.91,1.73-.91,1.18,0,1.94,1,3,1.33,0,.5.21,1.16.89,1.16.9,0,1-1,2.15-1.33,0-.92.83-2.14.83-2.82,0-.41-.34-.58-.34-1.15a2.45,2.45,0,0,1,1.52-1.91c0-1.41.56-1.9.91-3.73l.34-.83a2.08,2.08,0,0,1,.7-.17c.75,0,1.31.41,1.52-.83-1.24,0-3.11-4.14-3.11-5.39a.75.75,0,0,1,.48-.58c-.07-.25-.21-.5-.27-.75a11.8,11.8,0,0,0,2-1.16c-.13,0-.28-.25-.28-.42,0-.74,1.53-.25,1.53-1,0-1.65-2.91-.66-2.91-2.4,0-1.24.13-2.07-1-2.07s-2.63,3.15-3.18,4.47c-.27.67-1.86.26-2.49,1-.14.17-.21.59-.42.67s-.27.33-.69.58c0,0-.75.67-.48,1-.56.66-.56,1.49-1.59,1.74-.76.17-1.46.17-1.94.74-1,1.17-.69,3.74-2.83,3.74C545.22,267.37,543.77,266.79,543.77,268.2Z"/>
      <path class="c" d="M568.09,269.18c1.18,0,1.67-.32,2.64-.32s1.52.56,2.42.56c1.38,0,1.87-1.4,2.07-2.64.21,0,.28-.41.34-.67h-.41a18.35,18.35,0,0,0-2.21,1.91h-.56l-4.84-1c-1.8,0-2.62,2.75-2.62,4.72,0,.5-.56.91-.62,1.25-.48,1.9-1.24,2.65-1.24,4.47,0,1,1,1,1.38,1.07v4a1.21,1.21,0,0,0,1.1,1.07c.77,0,1-2.9,1-3.31,0-1.08-.61-1.66-.61-2.74a1.05,1.05,0,0,1,1-1c.2,0,.34.08.55,0l-.28,1.74c0,1.07,1.11,1.49,1.11,2.56a2.75,2.75,0,0,1,0,.75h.89c0-.92,1.53-.82,1.53-1.74a2.37,2.37,0,0,1-1-1.5c0-.17.21-.32.27-.49a13.79,13.79,0,0,1-1.73-3.48c1.93,0,2.07-1.82,3.66-2.4v-.66a15.32,15.32,0,0,0-4.15,1.48l.15-.33c-.28.42-.35.83-.77.83-1,0-1.45-1.58-1.45-2.81C565.82,268.86,566.93,269.18,568.09,269.18Z"/>
      <path class="c" d="M554.83,290.14c.83,0,.76.58,1.45.58.14,0,.63-.58.76-.91-.48-.24-.48-.5-1.1-.76s-1.17.43-1.66-.15c-.14-.16-.14-.75-.56-.75a3.33,3.33,0,0,1-2.89-1.08c.14.07,2.49-.17,2.56-.58h-.55l-2.08.33c-1.25,0-1.73-1.49-3.12-1.49-.82,0-1,1.24-2.07,1.24-2.28,0-3.18-2.65-5.25-2.65-.42,0-.69.5-1.11.5-.21,0-.35-.34-.55-.34-.41,0-1.66,1.5-1.73,1.74,1,0,1.6,1,2.28,1.82s1.73,0,2.76.42a10.6,10.6,0,0,0,3.81.57c.69,0,.9,1.08,1.73,1.08a16.37,16.37,0,0,1,7.33,1.25C554.76,290.73,554.62,290.14,554.83,290.14Z"/>
      <path class="c" d="M569.35,291.23a2.85,2.85,0,0,0,2-1.65c-.62.32-1,.82-2,.82s-1.52-.58-2.77-.58c-.48,0-1.25-.09-1.25.58,0,.91,1,.83,1.52.83Z"/>
      <path class="c" d="M561.88,289.9c0,.25-.07.43-.07.67a2.65,2.65,0,0,0-1.31-.33c-.63,0-1.18-.09-1.18.82,0,.33.83.59,1.39.59s1-.5,1.67-.83l.55.33h.62c-.14-.16,0-.58,0-1.25Z"/>
      <path class="c" d="M565.82,292.22h-.69c-.49,0-1.31-.16-1.31.51s1.11.9,1.8.9c0,.25.07,1.07.41,1.07h.28a.71.71,0,0,0,.55-.58C566.86,293.13,565.82,293.38,565.82,292.22Z"/>
      <path class="c" d="M558.35,289.82h-.62v.83a.73.73,0,0,0,.56.58c.34,0,.62-.33.7-.83C558.71,290.24,558.71,289.82,558.35,289.82Z"/>
      <path class="c" d="M575.44,292.39c1.1,0,3.39-.67,4.08-1.91-.62-.49-3.67-.16-4.36.67-.13.16-.13.65-.35.74-1,.41-2.35.41-2.35,2.23,0,.34.21.75.49.75a4.28,4.28,0,0,0,2.28-1.41C575.44,293.21,575.09,292.39,575.44,292.39Z"/>
      <path class="c" d="M594.52,284.1c0-.57-.14-.24-.28-.9-.48.07-.41.82-.41,1.41s-.69.57-.69,1.4c0,.25.2.66.41.66.56,0,.42-.92.42-1.75C594.31,284.92,594.52,284.61,594.52,284.1Z"/>
      <path class="c" d="M577.44,277.8c0,.67.82,1.58,1.24,1.58.21,0,.7-.91.7-1.07C579.38,277.48,577.44,276.81,577.44,277.8Z"/>
      <path class="c" d="M581,277.8a7.47,7.47,0,0,0,1.24.34h1.59c1,0,1.45.83,2.42.83.14,0,.41,0,.41-.16,0-.67-.76-.84-.83-1.5l-.21.08c-.41,0-.89.25-1-.34h-3.11C581.38,277.23,581,277.39,581,277.8Z"/>
      <path class="c" d="M580.76,264.63a1.77,1.77,0,0,0-.62,1.66c0,1.08.55,1.41.55,2.31v1.08c0,.5.21,1.57.9,1.57-.35-.58-.49-.91-.76-1.4v-.58a8,8,0,0,0,1.59-.16c-.07-.66-.55-.83-.55-1.25s.69-.57.69-1.07A2.21,2.21,0,0,1,580.76,264.63Z"/>
      <path class="c" d="M621.9,283.2c.19,1,1.2.86,1.82,1.43l0,0a1,1,0,0,1,.15.17l-.13-.15a2.55,2.55,0,0,0,1,.56c1.45,0,2.07-.91,3.32-1.24,0-1.5,1.45-1.16,1.45-2.91,0-.49-.21-1.24-.62-1.24-1,0-.56,1.82-1.52,2.4-.62.32-1.66.25-2.7.67,0,0-.62.33-.76.26Z"/>
      <path class="c" d="M618.44,283.93c-1.66-1-1.59-3.23-3.81-4.06-.34-.08-.9-.16-.9-.83-.83,0-1.24-1.16-2.07-1.16a8.51,8.51,0,0,1-4.7-1.74v-.09l-.14,0a2.7,2.7,0,0,1-.21-.2l.15.18a2.75,2.75,0,0,1-1.2-.68h-1.87c-.41-.25-1-1.25-1.79-1.57-.21-.09-.76,0-.82-.42-.83.17-1.66,1.66-2.29,1.91a2.7,2.7,0,0,0-1.66,1.08c-.14.17-.77,1.4-1.24,1.4s-1.39-1.31-1.39-1.66c-.62,0-1-.32-1-.74v-3c-1.25-.33-2.15-1.66-3.32-1.66s-1.73,1.41-2.56,1.41c-.42,0-1,.25-1,.74,0,1.17,1.66.67,2.15,1.83.06.24.21.66.42.74a4.11,4.11,0,0,0,1,.25,5.58,5.58,0,0,0,2-.33h.49c-.49,1-2.56.83-3.53,1.41.14.66.9.33,1.24,1s0,1,.34,1.83c.07.25.48.25.69.25.55,0,.83-.83,1-1.49V279c1.1-.42,1.53,1.74,2.56,1.74a10.24,10.24,0,0,1,3.73.83c.69.42,2.63,1.33,2.9,2.32.35,1.24-.06,2.41.91,3.56-.42.25-1.73.67-1.73,1.66,0,.66.62.66,1.1.66h1.46c0-.41.76-.5,1-.5,1.79,0,2.28,2.57,4.07,2.57h2.63c0-.59.62-.91.34-2,1-.57.83-2.07,2.56-2.07,2.29,0,3.53,2.31,4.91,4,.14.17.69.32.69.67,0,.91,1.59,1.81,2.63,2.06H624a6.74,6.74,0,0,0,1.31,1h.41a1.86,1.86,0,0,1,.9-1.33c-.2-.08-1.25.08-1.38-.33s-.28-.83-.7-1-.68.25-.83-.16-.35-.92-.56-.92a2.1,2.1,0,0,1-1.52-.82c-.56-1-.42-1.58-1.11-2.41-.13-.16-1.32-1.57-1.32-2,0-.74,1.32-.41,1.32-1.32C620.59,283.43,619.14,284.35,618.44,283.93Z"/>
      <path class="c" d="M630,278.55a6.55,6.55,0,0,0-2.7-2.4c.21.67.69.58,1.24,1,.89.65.77,1.58,1.66,2.07-.14.82-.14,1.41.69,1.58.13.16.27,0,.41,0a1.79,1.79,0,0,1,0-.59C631.3,279,630.55,279.21,630,278.55Z"/>
      <path class="c" d="M634.48,282.94c-.13.84.15,1.67,1,1.82v.67c0,.25.21.58.42.58s.48-.41.48-.67A10.78,10.78,0,0,0,634.48,282.94Z"/>
      <path class="c" d="M647.83,294c-.06.49.42,1.73,1.11,1.73-.07-.16,0-.33,0-.49C648.94,294.62,648.38,294.46,647.83,294Z"/>
      <path class="c" d="M644.79,292.72c0,1,1.1,1.31,1.93,1.31.07,0,.28-.16.35-.16A2.32,2.32,0,0,0,644.79,292.72Z"/>
      <path class="c" d="M645.14,289.49c.07.65,1.31,2.64,2,2.64A4.54,4.54,0,0,0,645.14,289.49Z"/>
      <path class="c" d="M641.05,287.75h-.14c0,.91,1.59,1.57,2.14,1.57a1.1,1.1,0,0,0,.55-.17c-.42-.74-1.8-1.24-2.42-1.66Z"/>
      <path class="c" d="M637.8,285.43l.35.25c0,.08-.28.08-.35.08l1,.83h.62C639,285.84,638.56,286.09,637.8,285.43Z"/>
      <path class="c" d="M617.82,372.83c-.06,0-3.8-1.33-3.8,0,0,1.74,2.29,7.87,4.35,7.87,1.39,0,3.25-4.38,3.25-6.21,0-1-.55-1.48-.76-2.48A11.26,11.26,0,0,1,617.82,372.83Z"/>
      <path class="c" d="M621.28,371.17a4.85,4.85,0,0,0,.21-1.4,1.68,1.68,0,0,1-.9,0C620.59,370.43,620.65,370.93,621.28,371.17Z"/>
      <path class="c" d="M598.11,359a1.72,1.72,0,0,0,2.42,0C599.56,358.41,599.43,358.25,598.11,359Z"/>
      <path class="c" d="M587.26,298.26h.69V297a7.14,7.14,0,0,0-2.76.42A3.28,3.28,0,0,0,587.26,298.26Z"/>
      <path class="c" d="M630,330.5c-1.31-1.58-3.94-3-3.94-6.29-.9,0-2,0-2.28-1.08s-.42-2.73-1.25-3.73c-1.17-1.41-4.15-2.16-4.71-4.14s-1.1-3.14-1.72-5.38c-.35-1.34-.35-4-1.18-4.64-.27-.16-1.59-.67-2.28-.91-.76-.67-.42-2.16-.69-3.31-.42-1.58-1.31-3.07-1.52-5.31-1.18.75-.84,1.83-1.94,2.82V306c-.34,1.89-.76,6.79-2.9,6.79-1.31,0-1.66-1.82-2.63-2.24-1.73-.83-2.76-1.24-4.64-2.06-.27-.08-.27-1.33-.69-1.66s-1.39-.17-1.39-.82l.84-4.15c.55-.5,1.58-.57,1.58-1.66a2,2,0,0,0-1.38-1.5c-.76,0-1,.67-1.94.67-2.49,0-3.87-1.17-6.22-2.32.14.91.82,1.15,1.24,1.91-.21.07-.76.58-1.24.58-1.18,0-3.94.75-3.94,1.9s-1,1.75-1,2.9a3.57,3.57,0,0,1-.21,2.06c-.14-.08-.69-.65-1-.65a1.74,1.74,0,0,0-1.52.91c-.14-1.49-.84-3.15-2.08-3.15-1.45,0-1.8,1.66-3.66,1.66-.14,1.91-1.52,2.23-1.52,4.56-.56,0-.9-.33-1.45-.66-.35.91,0,2.15-.76,2.73-.28-.58-.69-.91-1-1.65a2.27,2.27,0,0,0-.9,2.07v1.4c0,2.82-5.66,5.14-8.16,5.64-1.31.24-3.81.41-4.63,1.41s-2.36,3-3.66,3.15a3,3,0,0,0-.08-.83c-.28.17-.76.33-.76,1v4.8c0,2.07.84,3.07.84,4.31,0,.41.2.75,0,1.07a3.46,3.46,0,0,1-.63-1.07,11.2,11.2,0,0,0-.42,1.07c-.34,1.25,1,1.66,1.38,2.91.9,3.23,1.11,4.39,1.93,8,.36,1.49,1.39,2.82,1.39,5.22,0,1.91-1.59,2.48-1.59,3.73s3.32,2.89,4.49,2.89c3.11,0,4.15-2.73,6.57-2.73.83,0,.83-.67,1.94,0a33.59,33.59,0,0,0,4.15-.59c.55-4.22,4.91-2.73,8.43-4.14,1.53-.58,2-1.9,4.5-1.9,2.28,0,6.36.82,7.47,2.48.55.91,2.08,5,2.56,5,0,0-.28,1.49.55,1.49,1.45,0,3.19-4.31,4.43-5.8.06,1.24-.28,5.55-2,6a.82.82,0,0,0,.7.82c1,0,1.11-1.49,1.73-1.82,0-.25.14-.57.14-.82a2.1,2.1,0,0,1,.69,1.66,4.16,4.16,0,0,1-.49,1.82h.83a4.06,4.06,0,0,0,1.38-.58c0,.08.07.42.07.42.07,1.07,1,2.07,1,3.31,0,3.4,4.42,5.55,7.12,5.55,1.73,0,1.19-1.65,2.77-1.82.07.5,2.9,2.4,3.45,2.49.55-4,6.22-2.24,7-6v.16c0-2.9,1.46-5.46,2-7.46.7-2.65,1.94-3.48,3.18-5.8.34-.66.14-1,.48-1.65v-2.32c.62-.75,1-3.32,1-5.14,0-2.49-.69-7-1.8-8.71Z"/>
      <path class="c" d="M671.2,373.25c-.34.17-.69.74-1.17.74s-.35-.58-.35-1.16c-.21,0-.48-.25-.48-.82a3.51,3.51,0,0,0-1.66,2.73c0,.17-.07.33-.07.5a1.37,1.37,0,0,0-1.24.91,4.24,4.24,0,0,0-.07.83,9.84,9.84,0,0,1-1.31,2c-1.18.66-2.21,2.74-3.88,2.74-.48,0-.83.5-1.1,1.08-.69,1.23-2.76,2.4-2.76,4.55a.39.39,0,0,0,.34.33c0,.41,2.69,1.66,3.11,1.66s1.24.41,1.52.41c.76,0,2-1.24,2.63-2,0,0,1.93-4.8,2.14-5.8.55,0,2.22-.41,2.55-.41.15-1-.2-1.32,0-2.57,1.12,0,2.49-3.07,2.7-4.14-.27-.16-.41-.58-.41-1.25A.46.46,0,0,1,671.2,373.25Z"/>
      <path class="c" d="M680.05,363.56c-1.11,0-1,.83-2.35.83-1.66,0-2.56-1.24-2.56-3.4h-.41c-.35,0-.62.33-.62.83h-.42a8.72,8.72,0,0,1-1.18-2.64c0-.25.21-.33.28-.59-.41-.25-.41-.82-.84-1.32-.69-.83-1.87-.91-2.62-2.32.42,2,1.38,4.72,3,5.05a3.54,3.54,0,0,0-.21.83c0,.66.55.91.76,1.57v-.05a7.64,7.64,0,0,1,.28,1.62,4.92,4.92,0,0,1-.83,3.23c-.35.42-1,.5-1,1.33,0,1.49,2.56.82,2.56,2.48,0,1-.83,1.41-.83,2.4a1,1,0,0,0,1,1.08c1.45,0,1.86-1.66,2.55-2.91.14-.25,1-1.07,1-1.65,0-.25-.28-.59-.28-.83,0-.67.69-.91,1.38-1.08.07,0,.13-.25.2-.25l.29.42c.69-1.25.41-3,1.38-4.14C680.47,363.8,680.26,363.56,680.05,363.56Z"/>
      <path class="c" d="M680.26,313.17v-1a1.27,1.27,0,0,1-.83-.74c-.62.25-1.58.49-1.58,1.57,0,.33.89.5,1.45.5S679.84,313.67,680.26,313.17Z"/>
      <path class="c" d="M680.61,310.12c0,.24.21.74.41.74.69,0,.9-.83,1.72-1.08V309C682.33,309,680.61,309.13,680.61,310.12Z"/>
      <path class="c" d="M576.27,246.77a10.17,10.17,0,0,1-.21,1.73c-.2.43-1.32.12-1.35,1.12-.37.06-.57.43-.58.93h-.38c-.44,0-.3-1.16-1.11-1.17-1.13,0-.85,1.57-2.17,1.54a9.68,9.68,0,0,0-.4,1.86c0,.22.25.51.24.72s-.53,1.66,0,1.66c.7,0,.61-2.36,1.25-3.07a3.28,3.28,0,0,0,.62.66,2.78,2.78,0,0,0,.2-.36.73.73,0,0,0,.63.37,2.38,2.38,0,0,1,0-.65l.88,0c.06.21.18.5.24.72-.19.13-.32.35-.33.85,0,1.38.72,2.54,1.6,2.56.19,0,.43.08.63,0,0,.21.12.58.31.58.44,0,.7-.42.7-1,0-.79-.74-1-.73-1.53s.32-.57.58-1c.12.22.3.37.36.59l0-.17c.1.41.55,1.64.77,1.7,0-1.22.78-1.64.8-2.43a22.38,22.38,0,0,0-1.5-5.52A1.49,1.49,0,0,0,576.27,246.77Z"/>
      <path class="c" d="M561.53,249.63l.44,0a5,5,0,0,0,2.26-3.13.93.93,0,0,0,1.08-.76c.31,0,.38-.22.63-.42a1.41,1.41,0,0,1-.55-1.17c-.19.2-.2.57-.33.92C564.35,246.66,562.19,247.49,561.53,249.63Z"/>
      <path class="c" d="M565,234.43c0,.43,1.12,1.31,1.37,1.32s.32-.28.45-.49h.37V236a1.1,1.1,0,0,0-.39.79,1.23,1.23,0,0,0,.92,1c.38,0,.64-.42,1-.41.89,0,.92,1.6,1.81,1.62-.18-.59-.37-.88,0-1.37.37.65,1.87,1.33,2.24,2.21.06.21.12.58.31.59s.25-.29.25-.43,0-.36,0-.57a.8.8,0,0,1-.81-.88c-.12.07-.44.13-.44,0,0-.37.32-.43.39-.86-.12,0-.25-.15-.37-.15s-.33.5-.58.49-.55-1.66-1.31-1.68a.66.66,0,0,0-.7.56c0,.07,0,.29,0,.35A4.79,4.79,0,0,1,568,234c0-1.51,1.15-1.62,1.18-3.21,0-1.22-.79-2.32-.77-3.26,0-.14-.12-.37-.12-.51s-.12-.3-.12-.36c-.25.13-.45.7-.83.7-.57,0-.42-1.31-1.12-1.33-.5,0-.64.71-.64,1.43s.28,1.45.27,2.32a5.84,5.84,0,0,1-.41,2.15C564.82,231.75,565,233.27,565,234.43Z"/>
      <path class="c" d="M575.59,240.92c-.5,0-.87-.31-1.38-.32-.19,0-.38.21-.57.27.11.59,1.5,1.12,1.48,2.12,0,.15-.2.42-.32.42H574v.43c.06.21.5,1,.94,1v.43c-.26.42-.14,1,.3,1h.57v-.43a2.38,2.38,0,0,1-.54-1.45h.94c.06-.29.19-.5.27-.93a4.09,4.09,0,0,1-.49-.66,6.7,6.7,0,0,0,0-1.14h-.38A2.53,2.53,0,0,0,575.59,240.92Z"/>
      <path class="c" d="M570.17,242.33c-.08-.11-.18-.23-.27-.24s-.39.2-.39.35c0,.66.23,2,.21,3.26.57-.42,2-1,2-2.27C571.78,242.88,570.67,242.61,570.17,242.33Z"/>
      <path class="c" d="M572.08,244.44c-.32.07-.66,1.86-.67,2.07-.18,0-.56.2-.56.43a3.7,3.7,0,0,0,1.36,1.9c.12,0,.38-.21.38-.35,0-.44-.31-.3-.31-.95,0-.87.72-1.42.74-2.28C573,244.83,572.71,244.23,572.08,244.44Z"/>
      <path class="c" d="M572.67,247.27H573c0-1.08.85-1.42.87-2.72h-.57A9.79,9.79,0,0,1,572.67,247.27Z"/>
      <path class="c" d="M574.63,246.37c-.19.28-.5.13-.81,0-.21.43-.59.64-.59,1.07a.5.5,0,0,0,.37.37C574.17,247.81,574.62,247.17,574.63,246.37Z"/>
      <path class="c" d="M573.31,242.38c0-.93-.8-1.17-1-1.82l-.56,0c0,.3,0,.58,0,1.08a4.1,4.1,0,0,1,.89,0C572.61,242,573.3,242.75,573.31,242.38Z"/>
      <path class="c" d="M568.28,241.06c.25,0,.58-.86.46-1.44-.18-.87-.87-.74-1.62-1.33h-.63S567.9,241,568.28,241.06Z"/>
      <path class="c" d="M568.94,238.75c.12.15.5.09.63,0C569.45,238.63,569.07,238.69,568.94,238.75Z"/>
      <path class="c" d="M568,208.79c-1,0-2.42,3.23-2.42,5,0,1.24-.21,2.32,1,2.32C568.24,216.08,569.76,208.79,568,208.79Z"/>
      <path class="c" d="M547.63,222.87c0-.49-.48-1.24-.82-1.24-.9,0-3.25,2.07-3.81,2.07-.34,0,0,.75,0,1.25,0,1.07.48,1.65,1.53,1.65S547.63,224,547.63,222.87Z"/>
      <path class="c" d="M537.81,275.41c.07.25.35,1.15.49,1.15s.49.49.9.49h.48a3.4,3.4,0,0,1-.07-.82c-1,0-1.38-1.57-1.73-2.81-.49.08-1.45.66-1.45,1.08C536.43,275.16,537.54,274.74,537.81,275.41Z"/>
      <path class="c" d="M542,277.56c.42,0,.7-.5.77-1-.21-.08-.42-.41-.63-.41h-.68c-.07,0,0,.33,0,.41C541.41,277,541.55,277.56,542,277.56Z"/>
      <path class="c" d="M524.41,272.5h-.56v.33a3.39,3.39,0,0,0,1.24,2,2.73,2.73,0,0,0-.69-1.91Z"/>
      <path class="c" d="M521.7,267.45l-.34.16h.06c.07.49,1,1.81,1.25,1.81C523.22,269.43,522.13,267.78,521.7,267.45Z"/>
      <path class="c" d="M584.49,188.66c0,.41.35.91.69.91s.48-.34.83-.34c-.14-.24,0-.5,0-.74.07.42.14.91.55,1.08l-.27,1.15a9.55,9.55,0,0,0-.69,1.34c0,.33.41,1.31,1,1.31v-.5c0,.25,0,.74.21.74,1,0,1.52-2.57,1.73-4.05.21.16.41,0,.62,0-.13-.26,0-.58,0-.83l-.62-.66c-.21,0-.07-.59-.07-.83-.83,0-1.25-.66-1.8-.66C586.43,186.58,584.49,188.16,584.49,188.66Z"/>
      <path class="c" d="M590.86,189.32c.9,0,1-1.32,1.65-2.07.21.08.49.58,1,.58s1.53-2.9,0-2.9c-1,0-1.17,1.41-2.35,1a17.24,17.24,0,0,1-1.31,1.25c0,.4.13.57.55.9C590.37,188.49,590.5,189.32,590.86,189.32Z"/>
      <path class="c" d="M598.32,179.21c-.62,0-1,2.56-2.21,2.56h-4.29c-1.8,0-2.42,2.08-3.88,3.24-.27.16-.89.33-.89.58s.49.32,1,.32a7.48,7.48,0,0,0,3.59-1.15c.55-.34,1,.08,1.52-.25.2-.09.28-.66.69-.66.83,0,1.24.5,2.08.74,0,.33-.21.91-.21,1.41,0,.25-.21.67,0,.67.49,0,.41.65,1,.82.35-.82,1.18-2.15,1.66-2.15a2.11,2.11,0,0,0,.69-.08,3.45,3.45,0,0,1-.69-1.33c0-.25.21-.66.42-.66.62,0,.56,1.41,2,1.41.56,0,1-.51,1.39-1h.69c0,.17.21.41.35.41.28-1.16.9-1.24,1.87-2-.07.58-.34.66-.07,1.32.83-.32.83-1.15,1.66-1.66a4.31,4.31,0,0,1-.35-1.57c0-1.07.77-1.57.77-2.32,0-.91-.21-3.47.48-3.72.2-.08.42.08.63-.17v-.49c0-1.08,1-1.25,1-2.57,0-1.16-1-1.74-1-2.9a4.5,4.5,0,0,0-.14-1.65c-.07-.25-.34-.42-.83-.42-.2,0-.07.75.14.75s.14.08.2.08c-.83.83-.75-.25-.89-.25-.91,0-1.6,2.07-1.6,3.06,0,.42.27.42.27,1,0,2.65-2.35,6.13-3.8,6.72-.83.33-1,1.15-2,1.15-.13,0-.34-.24-.34-.41a1.54,1.54,0,0,1,.34-.91C599.29,177.22,598.39,179.21,598.32,179.21Z"/>
      <path class="c" d="M606.13,160.73c-.14.58-1.25,1.16-1.25,2.07,0,.33.35.5.35.83v1.9h.4c.56-.66,1.12-.32,1.66-1.24C607,164,606,164,606,163.14c0-1.4,1.17-.58,2.07-.58a.89.89,0,0,1,.48-.66c1.19.91,1.87,1.07,3,1.91.56-1,1-2.89,2.5-2.89a3,3,0,0,0,2.15-.75,1.38,1.38,0,0,1-.83-1.08c0-.42.28-.58.42-1-.42-.32-.9.17-1.45.17-2.7,0-3.53-2.65-5.39-4.14a1.78,1.78,0,0,0-.42,1.08c0,.33.36.49.36.83,0,1.08-.49,4.31-1.67,4.31a2,2,0,0,1-.69,0l.14.16a2.77,2.77,0,0,1-.49-.41Z"/>
      <path class="c" d="M616.09,158.25c-.14.25-.21.74,0,.74.62,0,1.45-1.23,1.72-1.74l-.23-.22A2.66,2.66,0,0,0,616.09,158.25Z"/>
      <path class="c" d="M617.47,156.93l.11.11.1,0Z"/>
      <path class="c" d="M621.35,153.94c-.83,0-1.53,1.83-1.53,1.83s-.06.41,0,.41c1,0,1-1.66,2.56-1.66v-.58A4,4,0,0,1,621.35,153.94Z"/>
      <path class="c" d="M624.6,153.2c.55,0,1.11-1.16,1.17-1.66-.14,0-1,0-1.11.5-.07.24.14.66-.07.66S624.46,153.2,624.6,153.2Z"/>
      <path class="c" d="M611.46,130.08a12.83,12.83,0,0,1-.83-3.81h-.48V128c0,.41-.28.58-.28,1.07-1,.25-1.46,2.49-1.46,4.23,0,1.24,1,1.74,1,3v4.89c0,1-.35,1.32-.35,2.57,0,1,.42,1.15.42,2.32s-.28,2.23-.28,3.73c0,.41-.2,2.4,0,2.4.83,0,.83-1.83,1.66-1.83h.69c.07.34.42.92.69.84a.61.61,0,0,0,.21-.09c-.56-1.42-2-2.32-2-4.23,0-2.15.21-4.81,2.08-4.81a1.85,1.85,0,0,1,1.45,1.09c-.41-2-1.32-3.65-1.87-5.72a5.18,5.18,0,0,1-.48-2.24v-2C611.18,132.06,611.73,131.24,611.46,130.08Z"/>
      <path class="c" d="M431.68,63.22a17.19,17.19,0,0,1,2.07,0c1.17.41.55,1.74,1,2.9.13.42,1.24,0,1.72,0,.21,0,.35.5.48.58h5.4a2.62,2.62,0,0,0-.23-.4c-1.53-1.64-3.79-2.39-3.79-5.4,0-5.3,4.77-10.85,8.3-12,1.24-.41,1.59-2.25,3.32-2.25.83,0,1.11-1.66,1.52-1.9,2.28-1.33,4-.66,6.43-2.06,1.73-1,7.05-1.49,7.05-4.32,0-.91-1.94-2.07-2.77-2.07-3.46,0-6.71,4.72-10.37,4.72-.83,0-1.24-1-2.07-1-1.32,0-1.32,1-2.21,1-2.56,0-4.5,4-6.22,4-1,0-1.73.59-2.76.59-.49,0-.69.49-.69.83,0,.49.48.82.48,1.49,0,2.32-3.59,3.56-3.59,5,0,.66,1,.83,1,1.82-1.11.33-3.32.91-3.32,2.33v1.24c0,1.49-2.07,1.33-2.07,3.32C430.44,62.55,431.68,63.22,431.68,63.22Z"/>
      <path class="c" d="M442.12,66.2l.05.09c.07.08.16.15.23.24Z"/>
      <path class="c" d="M689,76.06c-5.46-3.81-12.72-7.87-20.74-7.87-2.21,0-3.75.55-3.46,1.65,2.14,8-3.19-.08-4.5,0l-15.9-.41c-.9-4.31-3.25-5.81-7.95-5.81-2.56,0-6.43,1.16-8-.41-1.38-1.41-1.45-3.4-3.46-4.15a37.86,37.86,0,0,0-14.17-2.89c-5.39,0-6.15,3.39-6.57,6.63H593.27c-1.94,0-2.21-1.91-4.49-2.07-.22,1.16-.62,3.73-1.73,3.73-2.9,0-4.14-4.31-4.14-6.63,0-.58,5.58-4.8-8.65-6.21-1.79-.19-2.77.74-2.77,3.31h-7.6c-2.28-.74-14.25-2.4-15.77-5.38-9.08,8.87-7.05,3.32-7.05,3.32,2.14-3.23,23-10,5.88-14.92h-7.27c-.69-2.32-2.21-4.56-5.18-4.56-3.6,0-5.05,3.23-6.92,5C526.2,39.61,517.26,43.92,518,40c-2.28.83-12,1.63-17.07,7-1.07,1.13-1.39,4.56-3,4.56-2.28,0-10.85-1-10.85,3.73,0,1,.77,2,1,3.31-1.52,1.16-2.07,0-6.91,0-4.1,6.59-3.73-1-4.7-2.48-.35,2.65-1.79,3.81-3.6,5,.55,2.32,3.5,4.73,1.38,7.46-1.45,1.88,2.82,8,.57,8-2.9,0-3.68-12.52-3.68-15.09,0-2.82,3.85-4-2.07-5.38-3-.71-8.64,5.14-8.64,8.28a12.18,12.18,0,0,0,3.11,8.28c3.84,7.21-5.35-.84-8.77-1.9-9.47-2.94-6.42.91-6.44,1.49-.31,6.38-2.56,1.24-3.81,1.24-2.14,0-6.53,3.48-9.68,1.66-1.59-4.88-12,6.22-14.51,6.22-.83,0-2-.73-1.73-1.66,1.07-3.35-.48-10.6-3.46.41-.19.71,1,1,1,2.48,0,2.91-3.59.91-5.53,1.66s-1,8.67-9,4.56v3.31c-3.94-.42-3.46-5.47-4.84-7.88,3,0,4.6-.11,7.47.79,3.84,1.21,11.58-4.56-.22-9.07-3.38-1.3-10.86-5.8-13.14-5.8-.21,0-.28-.33-1.87-.08-.21,0-1.66-.25-2.29-.34,0-.49-.48-.57-1.17-1.24,1.59-.67,2.14,0,2.77-2A12.83,12.83,0,0,0,386,65.29c-.55,0-.83.58-1,1.24-.76-.09-.62-.83-.69-1.91a12.22,12.22,0,0,0-2.63,2.32,4.33,4.33,0,0,0-.35-1.49c-1.18.75-1.59,2.65-3,2.49.28-1.15,1.46-1.49,1.46-2.65s-2.63,1-3.67,1c-.62,0-1-.66-1.45-1.24-.21.49-1.45.83-1.45,1.24,0,.58.48.75,1,1-1.25.83-2.42.33-3.32,2.32V68.19c-1.45.08-1.66,2-2.56,2.23v-1c-1,.24-2.28.16-3,1l.54.67c-.48.33-.89.16-1.38.16-.69,0-1.24.67-1.59,1.33a1.63,1.63,0,0,1,1.11.16c-.14.08-.9,2.07-1.25,2.07-.89,0-1.17-.83-2.27-.83a1.45,1.45,0,0,0-.21-1.49,4.14,4.14,0,0,0-.62,1.07c-.2,0-.34-.24-.55-.24-.54,0-.9.49-1,1.32a4.48,4.48,0,0,0,1,.25,4,4,0,0,0-1.39,1.16c1.66,0,2.36-1.08,4.08-1.5-.34,1.74-2.28,4.56-3.73,5.22a6.89,6.89,0,0,0-3.25,3.48c0,.08-.69,1.9-.69,1.9-.55,0-.42,2.57-1.24,3.31-2.08,2-3.25,4.89-6.29,5.8.62.17.9.33,1.66.58-2.49-.33-2.76,1.66-4,2.07a5.5,5.5,0,0,0-3.11,2.9c-.42.75-1.52.67-1.52,1.91,0,2.32.13,4.39,1.17,5.89-.35.58-1.11,1.57-1.11,2.15a2.74,2.74,0,0,1,1.8-.41v1.24c-.28.17-1.18.58-1.18,1.25a10,10,0,0,0,3.12,2.32c2.9,0,5.12-3.14,6.57-5.64.45.78.63,1.47,1.38,2a3,3,0,0,0-.35,1.19c0,1.48,1,1.82,1.38,3.06.48,1.83.35,3,1.52,4.4,0,.25-.14.58-.14.84s1,3.89,1.52,3.89c1.73,0,2.14-2.65,3.32-2.65h1.87c.2-1.57,1.87-1.73,2.08-4a1.3,1.3,0,0,1-1-1.41c0-1.74.55-4.14,1.93-4.14.69,0,2.77-2.07,2.77-3.32,0-1.57-1.87-3.06-3.12-3.32a2.11,2.11,0,0,0-.54-1.48v-1.66c1-.58.34-2.15.89-3.31.69-1.49,1.93-1.83,3.11-2.65,1.45-1,4.63-2.65,4.63-4.56.21-.51,0-.91,0-1.91,0-2.32,1.87-3.31,4.15-3.31,1.74,0,4,.41,4,2.48,0,1.41-1.65,1.83-2.62,2.49-1.79,1.24-3.32,5.8-6.22,5.8a6.73,6.73,0,0,1,0,1.66c0,.91.62,2.81,1.31,3.15-.21.41-1,1-1,1.83a3,3,0,0,0,3,2.89c0,.92.62,1.08,1.52,1.08a15,15,0,0,0,4.15-1.24c1.31.25,4.5,0,5.18-1.66a9.39,9.39,0,0,1,1.73,2.9,9.54,9.54,0,0,1-3.8,1.83c-1.18,0-1.94-.59-3.46-.59s-5,1.68-3.94,2.87c3.49,3.91,1.66,5.42.83,5.42-1.38,0-1.58-2.07-2.77-2.07s-2.77,3.81-2.77,5.8c0,3.23-2.21,2.79-2.35,5.69a21.12,21.12,0,0,1-2.49.19,3.5,3.5,0,0,1,.28-.91,6.15,6.15,0,0,0-2.35-.33c-.83,0-1.94,1.24-2.56,1.57-1,.59-1.93.34-3.11,1-.35.16-.42.74-1.18.74,0,0-1.17-1-1.17-1.16s.34-.5.41-.91c-1.59-.24-2.9,1.66-4.77,1.66-.21,0-.34-.58-.48-1-.62,0-.9-.34-1.67-.34a3.39,3.39,0,0,0,0-.91c-.41-.08-.75-.66-.75-1.48a4.42,4.42,0,0,1,1.52-3.07c.21-.25.83-.42.83-.83v-.66c-.56,0-1.32-.08-1.32-.91a4.78,4.78,0,0,1,.42-2.15v-1c-1.73,1.49-4.43,1.74-4.43,5.22,0,2,1.11,2.65,1.39,4.89a20,20,0,0,1,.48,2.08c0,.66-1.11,1.41-1.52,1.41-.62,0-1.24-.5-1.73.09-.14.16-.35.83-.55.57-.48.25-.07,0-1,0-1.59,0-2.56,1.33-3.53,2.49-.07.09-.69.58-.69.91,0,1,.21,2-.35,2.65a23.77,23.77,0,0,1-3.45,1.82,3.31,3.31,0,0,1-1,.17c-.42,2-1,3.81-3,3.81-.14.66-.62,1.24-1.18,1.24a2.66,2.66,0,0,1-2.07-1.08h-.69v.67c.07.25-.13,1.49.35,1.66v.58a6,6,0,0,1-1.59.42c-.56,0-1.66-.33-1.87-.83-.69.25-2.62.75-2.62,1.49,0,.08,0,.33.07.33,0,1.25,3,1.91,4.15,2.33.34.08.42.5.83.58,0,1.32.42,2.81,1.8,2.81,0,.67.42.5.42,1.25a4,4,0,0,1-.28,1.24l.13-.13c0,.5.07,1.95.07,2.29,0,1.57-.89,2.06-.89,3.73a16.73,16.73,0,0,1-1.73.41c-.69,0-1.1-.58-1.94-.32h-3.32a2.16,2.16,0,0,1-1.18-.5h-3.11c-.41.17-.77-.33-1-.33s-2.76,1.74-2.76,2.23c0,.75.76,1.91.76,3.16,0,2.15-.62,4.3-.62,6.37,0,.58-.76.83-.76,1.9a1.15,1.15,0,0,0,1.11,1.16V178c0,.25.13.66.55.66,1,0,1.8-.57,3-.57,1.59,0,1.66,3.06,2.69,3.06,1.52,0,2.42-1.65,4.08-1.65.35,0,1.52-.41,2.15-.17v-.07c1.38.49,1.52-1.58,2.35-2.08,1.45-.83,1.86-1.83,2.77-3.48a1.08,1.08,0,0,1-.69-1.08c0-1.82,2-5.22,3.25-5.55,1.46-.41,3-1,3.39-2.66l-.42-1.82a2.13,2.13,0,0,1,2.14-2.08c1.39,0,2.35.91,3.87.91s2.42-1.49,3.73-2.23c.62-.34.7-1.41,1.94-1.41,2.63,0,3,3.4,4.28,5.3.14.58,1.18.91,1.67,1.49,1.17,1.41,1.65,2.16,3.8,2.73,0,.5,1,.85,1.31.85a8.08,8.08,0,0,0,1.93,2.48c.15.74.7,1.07.7,2.31,0,1-.34,2.24-1.17,2.24,0,.33.28.58.76.58,1,0,.83-1.74,1.45-2.49,0,0,.9,0,.9-.41,0-1.08-1.25-1.32-1.25-2.4a1.38,1.38,0,0,1,1.52-1.33c1.11,0,1.53,1.08,2.22,1.24.2-1.74-1.46-2.4-2.84-3.23-.42-.24-2.08-.66-1.79-1.66a1,1,0,0,0,.13-.66c-1,0-1.73.43-2.76-.17-.55-.33-1-1.65-1.31-2.81a3.92,3.92,0,0,0-1.8-2.57,2,2,0,0,1-1.45-2.08,5.55,5.55,0,0,1,.28-1.49c-.14,0-.35-.33-.35-.5,0-.91,1.52-.91,2.28-1.49.41.5,0,2.24.9,2.24h2.07c0,1.9,1.72,4.72,3.24,4.72h1c0,1.16,1.11,1.24,2.08,1.82s2.49,2.31,2.49,3.48v2.16c0,1.73,1.1,2.49,1.94,3.48a6.18,6.18,0,0,1,1.45,2.65c0,.17.14.91.41.91h1.18c-.21.42-.9.67-.9,1.25,0,1.4,1,2.73,2.08,2.73h1c-.69-.41,0-1.41,0-1.9a3,3,0,0,0-.41-1.41v-.67a3.68,3.68,0,0,0,1.79,1.25h.14c.14-.58.83-.25,1.18-.5a1.37,1.37,0,0,1-.27-.75c-.55,0-2.43-2.06-2.43-2.32s.21-.5.27-1l-1.3-1.82c0-.41.41-.92.76-.92.63,0,.76,1.24,1.79,1.24a4,4,0,0,0,0-1.82c.9-.33,1.18-1.07,2.29-1.07s1.87,1.65,2.9,1.65,1.11-1.07,2-1.57c.62-.33,1.1,0,1.73-.25.35-.08.62,0,.9-.33-.42-.74-2.29-1.9-2.29-3.56,0-1.16,1.25-2.82,1.94-3.65v-2.16c.21-.49.17.18.44-1.17,0-.83.74-1.23,1.43-1.4-.08-.42,0-.82-.08-1.24,1.52-.5,1.66-2.65,3.19-2.65,1.25,0,4.42,6.22,5.39,6.22a10.94,10.94,0,0,0,4.84-2.57c-.14,0-1.93-.33-1.93-.33a1.22,1.22,0,0,1-1.17-1.24c0-.66,5-2.89,6.92-3.72a7.72,7.72,0,0,1-1.25,1.41c.13.49,1.94,2.74-2.08,4,1.73,4.88,9.68,4.06,9.68,10.6l.27,0,.08,0c-1.23.62-2,1.91-3.47,1.91H404c-.77-.08-3.46-.65-3.46-1.65-1.59,0-1.52-1.25-3.39-1.25-1.18,0-3.11.08-4,.75s-2,1.65-2.84,1.65h-2.14c-.35,0-1.66-.33-1.66.42,0,.58.42.33.55,1-1.24.75-6.22.25-6.22,2.81,0,.51.69.42,1.18.42-.14.42,0,.42,0,1,0,1.57-.76,1.41-1.45,2.24,1,.58,1.72.49,2.34,1.57-.69.83,1.31,2.08,1.73,2.57a1.16,1.16,0,0,1-.55.49h.76c1.32-.74,2,1.5,3.32,1.5s1-1.9,2.42-1.9,2,2.07,3.46,2.07c2,0,2.35-1.08,3.46-2.07a1.7,1.7,0,0,0,1.39.66c.55,0,.76-.49,1.31-.74v.83a1.08,1.08,0,0,0-.48.83c0,1,.34,2.15.34,3.55,0,1.91-1.38,2.32-1.8,4s-.62,2.58-1.1,4.4c-.07.33-.55.33-.55.91l.38,1.09c-.08-.19-.17-.38-.24-.59-.91.25-.91.66-1.94.66-1.52,0-2.29-1.07-3.6-1.07-2.14,0-2.84,1.23-5,1.23-2.42,0-5.54-1.23-7.74-2.23-1.1-.5-2.7.17-3.32-.84-.27-.49-1-.74-1-1.9h-1.52l-.21-.16c-2.15.82-3.81.82-3.81,3.47v1.66a1.72,1.72,0,0,1-1.38,1.24c-5.11,0-6.7-6.63-11.19-6.63H354c-1.32,0-3.12-1.83-3.12-3.89,0-1.25.9-1.91.9-3.15,0-.75-.9-1.08-.9-1.83,0-1.08,1-.91,1-2.15-.41.09-.62.5-1,.5-1.1,0-.76-1.49-2.07-1.49s-1.38,1.24-2.76,1.24c-.77,0-1.18-.57-2.08-.57s-2.15,1.24-2.91,1.24c-.55,0-1.45-.82-2.42-.82-3.11,0-8.23,2.32-10.92,3.89-.83.49-1.11,1.49-2.56,1.49a8.33,8.33,0,0,1-5.88-2.07,11.41,11.41,0,0,0-1.38,2.24h.14c-1.73,2.56-4.08,5.14-5.88,7.87-1.38,2.08-.34,3.4-1.17,6.46-.34,1.33-2.07,3-3.11,3.73-1.25.83-3,.66-4,2.23a47.94,47.94,0,0,0-4.63,10.36c-.34,1.32-1.94,2.32-1.94,4,0,3.3,1.38,5.63,1.38,9.28,0,2.07-1.38,6.54-2.9,7.46.49,1.15,1,1.57,1,2.73,0,.74.35,1.4.35,2.65H297c.35.5.56.66.9,1.16a42.46,42.46,0,0,0,4.15,4.64c1.73,1.65,2.14,3.64,3.45,6,1.45,2.65,5.46,5.47,7.4,7.21a3.88,3.88,0,0,0,2.07.66c2.7,0,3.88-1.65,6.57-1.65,1.38,0,3.11,1.25,4.15,1.25s1.38-1.08,2.42-1.49c2.63-1,5.19-2.9,8.64-2.9,2.84,0,3.32,4.79,5.4,4.79H345c2.34,0,3.6,1.66,4.35,3.48-.69.66-.69,3.15-.69,4.15,0,.32-.28.5,0,1.24a6.67,6.67,0,0,0-1.59,3.32c0,3.89,3.94,6.79,5.74,9.53.89,1.4.62,3.31,1.17,5a29.16,29.16,0,0,1,1.73,6.88c.21,1.82.9,2.65.9,4.72,0,4.39-4.36,5.81-4.36,11.6,0,5.38,2.07,8.54,4,12.43.55,1.16,1.38,1.57,1.38,2.73v2.24c0,7.28,3.18,12.17,5.67,17.23.34.74,2.28,3.23,2.28,4.55a3.33,3.33,0,0,1-.9,2.24,7.69,7.69,0,0,1,1.24,4.14,1.51,1.51,0,0,1,.69-.42,2.38,2.38,0,0,0,2.22,1.67c2.63,0,4.35-2.49,7.26-2.49.76,0,1.18.82,1.94.82s1.18-.49,2.07-.57c.21-1.49,1.94-.83,3.12-1.49,2.84-1.66,3.6-4,5.33-6.63,1.1-1.66,1.24-3.57,2.77-5.38.82-1,2.76-2.83,2.76-5.14a2.07,2.07,0,0,0-1-1.74,7,7,0,0,1,3.45-3.9c.48-.24,1.66.08,2.07-.58s.56-3.47.56-4.8c0-2.48-1.94-3.73-1.94-5.55a3.1,3.1,0,0,1,2.07-2.49c.76-5.46,9.89-4.72,9.89-11.18a2.33,2.33,0,0,0-.55-1.66c0-2.32.21-3.89.21-5.22V297a3.11,3.11,0,0,0,.49-1.25c0-1.57-2.57-3-2.57-5.79,0-2.49-.55-3.64-.55-6.21,0-2.34,1.8-2.91,2.28-5,1.73-7.38,6.64-8.7,11.2-13,2.56-2.4,3.46-5.39,5.53-8.7,1.73-2.82,4.84-8.95,4.84-13.67,0-.49-.28-.75-.48-1.24-2.49.75-5,2-7.61,2.49-1,.17-1.73-.42-2.77,0s-1,1.4-2.08,1.4-2.07-2.65-3-3.48c.69-1,0-1.2,0-2.61-2.27,0-2.87-3.43-4-4.43s-2-1.15-3.11-2.48c-1.25-1.48-.49-3.65-1.73-5.63-1-1.66-2.42-1.66-3.11-3.89v-4.4c-1-1-3.11-4.64-2.76-6.37L393,198.85v-1.41c1.18,1.41,2.35,5.13,3.81,5.39.22-.81,1-2.93,1.26-4.12-.14,1-.36,2.07-.36,2.63a17.88,17.88,0,0,0,1.18,2c.75,1.41,1.45,2.66,2.27,4.15a7.53,7.53,0,0,1,1,2c.15.49,0,1.74.42,2.24.2.24,1.1.08,1.38.41a12.32,12.32,0,0,0,.9,1.07c.28,1.58,1.18,2,1.18,3.89,0,3.15.58,4.85,3,5.51,0,2,1.91,4.85,2.75,5.84s1.92,1.65,1.58,3.49c-.14.74-.68,2.32.08,2.39a8.59,8.59,0,0,0,1.22,4.24c.46.82-.09.82.08.93a18.74,18.74,0,0,0,2.16,1.14l.43-.31c1.45,0,1.64-.68,2.82-1.68h2.14c.9-.5,3.66-2.83,4.49-3.07a26.56,26.56,0,0,0,5.39-2,1.4,1.4,0,0,1-.27-.74c0-1.83,4.21-2.74,6.08-3.15a3,3,0,0,1,1.93-2.4c1,0,1-2.4,2-2.4.83,0,.75-1.41,1-2.41a1.78,1.78,0,0,1,2-1.32c0-2,2-2.65,2-4.55,0-.75-1-.58-1.32-1.33v.08c-.48-.33-.55-1.74-1.31-2-2-.75-3.32-1.17-4.29-3.57v-3.06c-2.49,2.24-2.84,5.63-7.47,5.63-1,0-2.83-.58-2.83-1.74,0-1,.48-1.66.48-2.65a4.07,4.07,0,0,0-.07-.91c-.69.16-.56,1.24-1.38,1.49-.07-.75-.48-1-.48-1.9-1.59-.42-3.53-4-3.95-6a7.78,7.78,0,0,1-.15-1.91c0-1.16.42-2.65,1.38-2.65,1.94,0,3.46,2.57,4.22,4.39.14.33-.07,1,.34,1.49.76.91,1.87.41,2.69,1.41.69.83,1.25,1.9,2.36,2.32h3.46c.41-.5.69-1.25,1.45-1.25,1.45,0,1.45,2.49,2.13,3.31a13.12,13.12,0,0,0,2.43.75c1.86,0,4.91,1,6.22,1,.07,0,.35.08.35,0l2.42-.17a2.67,2.67,0,0,1,.61-.58l1.8.58c.7,0,.91-.66,1.73-.66a5.8,5.8,0,0,1,2.08.08c.83.33,1.24,2.24,1.8,3.32.69,1.24,2.7,2.89,4.07,2.89a5,5,0,0,1,1.6.17c-.28.33-.35,1.07-.9,1.24s-1.11-.17-1.73.33c1,1.24,1.87,3.81,4,3.81,1.79,0,1.87-2.81,2.76-3.89H472c0,.32-.41.91-.41,1.15,0,1.09.69,2.07.69,3.4,0,1-.31,1.25-.33,2.36l-.05-.06c0,.24.11.93.11,1.17,0,1.58.77,3.16,1.18,4.8.49,1.83,1.74,4.57,2.08,5.81a10.22,10.22,0,0,0,.83,2.65c.55,1,.21,2.07.76,3.39.28.66,1.25,1.5,1.53,2.65.48,1.74,1.24,3.4,1.79,5.39.07.24.28.83.62.83a.88.88,0,0,0,1,.83c.55,0,.62-1,.9-1.66.35-.82.49-.5,1.31-1,.56-.33.35-2.48,1.32-2.81.21-.08.69-.08.69-.33l.34-.09L486,243c0-1.57.83-2.9.83-5,0-1.33-.49-2.16-.49-3.64,0-1.74,1.46-2,2.7-2.49.49-.17,1.25-1.16,1.8-1.83,1.32-1.57,2.55-3.23,3.94-4.88,1.11-1.32,3.11-1.73,4.36-3.23.62-.75.55-1.66.82-2.82.21-.74,1.66-.83,2.15-2.07.55.42.55.83,1.66.83,1.8,0,3.73-.5,3.73-3a3,3,0,0,1,2.49,1.91c.27,1,.14,2.32.69,3.32a9.92,9.92,0,0,0,2.28,2.65,21.08,21.08,0,0,1,2,4.39c.07.41.42.67.42,1.08,0,.91-.35,1.41-.35,2.49s.07,2.07,1.11,2.07c1.94,0,2.43-2.41,3.6-3.81.42.49.21.83.62,1.33.14.17.7,0,.9.41.69,1.24-.48,3.73.41,3.73,0,2.66,1.8,4.8,1.8,8.46,0,.91-.55,2.8,0,3.15h-.34a16.2,16.2,0,0,0-.34,3.14c0,.17-.14.5,0,.5.63.5.21,0,.9,0,1.11,0,1.59,3,2.08,4.14a49.13,49.13,0,0,1,1.52,6c.76,2.74,2.7,5.22,4.85,6,.41.16.48.74,1.17.74.21,0,.28-.33.48-.33a4.86,4.86,0,0,0,.9-.08,21.42,21.42,0,0,1-.62-2.41c-.28-1-1.31-1.49-1.31-3,0-.75.27-.75.27-1.58,0-4.14-4.08-4.64-5.95-6.88-.49-.57-.55-2.07-.82-2.65h.13c0-2.41-2.35-1.41-2.35-4,0-2.23,2-2.89,2-5.38,0-.67-.28-.83-.28-1.58,0-.41-.14-.9.42-.9.76,0,1.59.16,1.79,1.07,0,0,.21,1.07.35,1.07,1.1.42,2.07.5,3,1.65s.07,2.24,1.6,2.24c0,1.25,1.39,1.65,2.41,1.65.07.43.21,1.09.48,1.25-.28.17-.28.49-.28,1.16,0,.51.28,1.66.56,1.66s1.65-1.24,1.65-2.07v-.92c0,.25,0,.75.21.75.83,0,.69-1.33,1.52-1.84,1.8-1.07,2-2,4.22-2.64,0-1.49.83-2.23.83-4.14,0-2.73-1.11-6.38-2.77-7.7s-2.42-3.48-4-5.39c-.27-.32-.62-.49-.62-1.23,0-3.56,3.39-4.15,4.77-6.72,1.18.67,2,.17,3.33.91-.07.42-.28,2.08.34,2.08s.34-1.08.9-1.74,1.86-.82,2.42-1.16c1.31-.75,2.63-.42,3.45-1.41a8.66,8.66,0,0,1,.83-1.58c.69,0,1,.67,1.73.67,3.18,0,3.94-2.32,5.88-3.65a1.85,1.85,0,0,0,1-1.49c1.66,0,2.13-3.07,2.76-4.64.42-1,2.28-4.31,3.32-4.56,0-1.82,1-2.65,1-5a12,12,0,0,0-1.93-7.13c-.21-.41-.21-1.41-.84-1.83l.08-.08h-.14s-.07-1.33-.07-1.58a2.48,2.48,0,0,1-1.87-2.08c0-1,1.18-1.08,1.46-2.07.63-2.23,3.59-2.23,5-3.9-.55-.91-1.59,0-2.56-.75-.48-.33-.75-1-1.52-1-.55,0-.55,1.83-1,1.83s-1.24.24-1.79-.17c-.83-.66-.56-1.49-1.38-2.23-.28-.26-1.46-.59-1.46-1.41,0-1.74,2-1.16,3-2a14.57,14.57,0,0,0,3-3.07c.14-.26.42-1.08,1.11-1.08s1.31,1.08,1.31,1.57c0,1.33-1.31,1.91-1.31,3.4,1.93,0,3.52-2.49,5.74-2.49.83,0,1.17.91,2.22.91-.34.84,0,.84,0,1.83,0,.83-.76.74-.76,1.74,0,.42.21,1.41.69,1.41.21,0,.48-.4,1-.4a1.84,1.84,0,0,1,1.87,1.64,1.14,1.14,0,0,1-1.11,1.08v.84c.14.16.28.49.69.58,0,.5.34.91.34,1.41a12.67,12.67,0,0,0-.62,1.91c0,.33,0,.74.35.82-.07.42-.42.67-.42,1.08h1c.42-.5.55-.5,1.37-.75,0-.74,1.73-.82,2.15-1,1-.33,1.38-1.24,1.38-3.15a9.86,9.86,0,0,0-2.56-7,3.56,3.56,0,0,1-1.18-2.9,2.85,2.85,0,0,0,2.07-1.25c.49-.58,1.73-1.41,2-2.07a12.36,12.36,0,0,1,3.11-5.14h0a19.93,19.93,0,0,0,4.84.84c3.94,0,7.66-10,10.43-13.29a16.13,16.13,0,0,0,3.05-6.18c.48-2.41-.33-3.95.75-6.25a11.59,11.59,0,0,0,1.21-4.56c0-2.24-3-6.6-4.38-5.36-4.1,3.71-6.22-2-6.22-2.48,0-2.32,3.73-4.89,5.18-6.63,2.15-2.57,5-6.87,8-7.87,2.63-.83,10.86-1.66,13.14-1.66,2.83,0,4.15,1.66,5.87,1.66H633c1.11-5.46,3.19-8.7,8-8.7a13.3,13.3,0,0,1,4.15,0c-1.18,1.08-1.67,8.25,5.87-2.9.76-.17,4.38,1.62-1,5.8-1.89,1.46-3.59.74-4.83,2.89-1.46,2.49-2.77,5.64-4.84,7-1.73,1.16-4.15,3.06-4.15,6.63,0,3.06.83,13.09,2.77,14.91,1.39-2.49,2.35-7,5.19-7.87-.35-2.32,2.77-2.81,2.77-4.55,0-2.74,2.41-3.49,2.41-5,0-1-.67-2,0-3.73,5.59-14.33,10.72-6.63,12.8-6.63,6.15,0,10.51-9.41,15.9-9.53,10.27-.24,2.08-4.89,2.08-6.21,0-3.57,4-3,4.84-5,.35-.83-.34-2.91,1-2.91,4.35,0,7.95,7,11.06,7,1.39,0,1.66-3.06,2.42-4.14,1.18-1.66,2.3-1.5,4.15-2.24C701.08,81,693,78.79,689,76.06Zm-312.6,55h0c0-.25,0-.54-.05-.82C376.41,130.53,376.43,130.82,376.43,131.07Zm-2.36,13.76h0c0,1.56.64,1.84,1.54,1.86C374.71,146.67,374.08,146.39,374.08,144.83Zm1.26-5c.43-.4,1.43-.77,1.43-1.64,0-1.38-1-2.37-1.25-3.77.25,1.39,1.25,2.39,1.25,3.77C376.77,139.07,375.77,139.43,375.34,139.84ZM386.87,81.2c0-1.41,1.25-2.07,1.25-3.48,0-1.82-2.42-1.74-2.42-3.31,0,1.57,2.43,1.49,2.43,3.31,0,1.41-1.25,2.07-1.25,3.48,0,1.57,1.38,2.48,1.38,4.14C388.26,83.68,386.87,82.77,386.87,81.2Zm11.25,116.6c0-.07,0-.13,0-.2l0,.1A.84.84,0,0,0,398.12,197.8Zm31.49-38.73c1.31,2.73,3.18,3.81,3.18,7a13.73,13.73,0,0,1,2.35-1.25c.07,1.25,1.18,1.91,1.18,3.15h-2.07c-.63,0-1.25.82-1.39,2.07,1.45.24,2.42,1.9,2.42,3.47,0,.92-.48,1.17-.48,1.91a3.78,3.78,0,0,0,.68,1.74v1.48a11.72,11.72,0,0,1-3.25.5c-.89,0-2.62.16-3.18-.5-.41-.49-.55-1.32-1.17-1.49s-1.66.33-2-.58.21-1.66-.35-2.65c-.34-.67-.9-.58-.9-1.41a1.23,1.23,0,0,1,0-.5c-.27-.33-.27-1-.48-1.49a2.4,2.4,0,0,0-1,.25c-1,.41-1,1.9-2.49,1.9h0c1.52,0,1.45-1.49,2.48-1.9a2.43,2.43,0,0,1,1-.25c.21.49.21,1.17.49,1.49-.07.16,0,.33,0,.5l1,.17c.83-1.33.83-3.31,1.93-4-1.86-1.25-4.69-6.21-4.69-9,0-.83-1.53-2.07-1.53-3.32a21.22,21.22,0,0,1,1.66-4c.34.25,2.42-1.16,2.63-1.24a10.53,10.53,0,0,1,5.18-1.41c3.74,0,4.35,2.16,5.74,4.64-1,1-2.42.08-3.66.08-1.87,0-4.63,2.16-4.84,2.07C428.08,158.25,429.19,158.16,429.6,159.08Zm8.14,16.54a1.31,1.31,0,0,1,.5-.38h0A1.37,1.37,0,0,0,437.75,175.62Zm2.18-.83a2.82,2.82,0,0,0,1.44-.68A2.8,2.8,0,0,1,439.93,174.79Zm8.83,12h0a.22.22,0,0,0,.07-.13A.23.23,0,0,1,448.76,186.83Zm2.28,7a2,2,0,0,1-.09.62,2,2,0,0,0,.09-.62ZM450.69,182c-.21,0-.21.41-.35.49a10.84,10.84,0,0,0-1.4,2.92,10.9,10.9,0,0,1,1.4-2.92,3.71,3.71,0,0,1-.2-1.73,5.57,5.57,0,0,0,.21,1.5c.78-1,1.38.4,2.06.4C451.73,182.69,451.39,182,450.69,182Zm6.93-4.84a1.64,1.64,0,0,1,1.36-.71h0A1.65,1.65,0,0,0,457.62,177.19Zm6,.86c-.55,0-.76-.9-1.31-.9s-2.07.66-2.22-.34c.15,1,1.81.33,2.22.33s.76.91,1.32.91ZM467,176l-.2,0,.2,0c.26,0,.47-.35.72-.75C467.47,175.63,467.27,176,467,176Zm3.8,2.32c-.4,0-.6-.27-.7-.67.1.41.3.67.7.67Zm2-.81a2.62,2.62,0,0,1,1.53-.6h0A2.62,2.62,0,0,0,472.81,177.49Zm5.55,1.06c-1-.41-1.66,0-1.66-1.41a7,7,0,0,0-2.22-.26,7.3,7.3,0,0,1,2.22.25l.07-.41-.07.41c0,1.41.62,1,1.66,1.41a.7.7,0,0,1,.44.46A.69.69,0,0,0,478.36,178.55Zm7.39,15.33c-.28-.09-1,0-1.11-.5.13.5.83.41,1.11.5a2.8,2.8,0,0,1,.53.31A2.87,2.87,0,0,0,485.75,193.88Zm-.62-13.25a3.52,3.52,0,0,1,2.21,2.32A3.53,3.53,0,0,0,485.13,180.62Zm2.7-25.44c0,9.27-4.36,13.26-10.72,13.26-1.11,0-2.56,3.72-2.77,5.38l.51.16-.52-.16c.21-1.66,1.66-5.39,2.77-5.39,6.36,0,10.72-4,10.72-13.26a3.91,3.91,0,0,0,2.42-1.48A3.94,3.94,0,0,1,487.83,155.19Zm41.27-20.34a13.89,13.89,0,0,0-5-1.21A13.89,13.89,0,0,1,529.1,134.85ZM522,211.11c0-3.07,1.8-3.15,1.8-6.47C523.85,208,522,208,522,211.11Zm-19.71-9.36h-2.9c-1.59,0-2.22-1.25-3.25-2.08,1,.83,1.65,2.07,3.25,2.07h2.9c.63,0,.83-.41,1.25-.41C503.17,201.33,503,201.75,502.34,201.75Zm6.22-62.31c-3.39,2.4-7.6,2.49-10.37,5.39-1.1,1.16,1.09,5.77-4.5,5-.86-.12-1.41.65-2,1.64.58-1,1.13-1.77,2-1.65,5.58.8,3.39-3.81,4.5-5,2.77-2.9,7-3,10.37-5.39A3.29,3.29,0,0,0,509,139,3.55,3.55,0,0,1,508.57,139.44Zm10.38.41c-2.9,0-5.81-2.48-7.61-2.48-.68,0-1.38.65-1.94,1.24.56-.58,1.26-1.24,1.94-1.24,1.8,0,4.7,2.48,7.61,2.48,2.09,0,2.8-1.88,3.38-3.57C521.74,138,521,139.86,518.94,139.86Zm2.69,86.09a5.8,5.8,0,0,1,.56-2.6A5.81,5.81,0,0,0,521.63,225.95Zm.15.87c.27.66.86.8,1.17,1.36a9.15,9.15,0,0,1,.56,3.64,3.66,3.66,0,0,1-.69,1.74h0a3.66,3.66,0,0,0,.69-1.73,9.12,9.12,0,0,0-.56-3.64C522.64,227.62,522.05,227.48,521.78,226.82Zm1.72,19.26h0c.11-.28.2-.54.29-.79C523.71,245.54,523.62,245.79,523.51,246.08Zm-.76-11.85c0-.25.07-.5.07-.75v0c0,.25-.07.48-.07.73,0,.92.76,1.33,1.24,1.91C523.5,235.55,522.74,235.14,522.74,234.22Zm1.25,10.5c.26-.78.49-1.52.89-2.54C524.49,243.19,524.25,243.94,524,244.72Zm1.26-3a.71.71,0,0,0,.19-.43,13.26,13.26,0,0,0-.38-2,12.86,12.86,0,0,1,.38,2A.68.68,0,0,1,525.25,241.7Zm2.7-23.38c.2-.29.39-.62.6-1-.41,0-.62.16-1.1.16-1,0-1.75-1-2.05-2.23.3,1.2,1,2.22,2.06,2.22.48,0,.69-.16,1.1-.16h0C528.34,217.7,528.14,218,527.95,218.32Zm1-1a1.26,1.26,0,0,0,.18.73A1.25,1.25,0,0,1,529,217.33Zm10.58-2.74a6.16,6.16,0,0,1-2.21-.78,6.17,6.17,0,0,0,2.21.78,3.36,3.36,0,0,0,.39,1.67A3.33,3.33,0,0,1,539.55,214.59Zm6.71-72.24c-4.5,0-5.74-4.15-10-4.15,4.3,0,5.54,4.15,10,4.15,2.85,0,6.42-2.46,10.12-2.72C552.68,139.89,549.11,142.35,546.26,142.35Zm19.81-8.15c1.06-2.47,2.62-4.7,6.12-4.7h0C568.69,129.5,567.13,131.73,566.07,134.2Zm19.59,9c-1.17-1.42-4.28-1.58-5.18-3.32-1.67-3.18-2.06-7.05-4.34-9,2.28,2,2.67,5.86,4.34,9,.89,1.74,4,1.9,5.18,3.32a8.32,8.32,0,0,1,.77,1.27A8.07,8.07,0,0,0,585.66,143.18Zm2.08,13.25a.4.4,0,0,1-.18-.26.4.4,0,0,0,.18.25,2.46,2.46,0,0,1,.94,2.07A2.46,2.46,0,0,0,587.74,156.42ZM595,144.83a4.69,4.69,0,0,0-3.29,1.5,4.68,4.68,0,0,1,3.29-1.5Z"/>
      <path class="c" d="M681.64,64.87c.76,0,6.22-.41,6.22-1.49,0-1.24-2.62-2.07-3.66-2.07S681,62.81,681,64A.77.77,0,0,0,681.64,64.87Z"/>
      <path class="c" d="M662.07,70a.83.83,0,0,0,.69-.82c0-.5-.42-.67-.49-1H660C660.41,69.19,661.1,70,662.07,70Z"/>
      <path class="c" d="M596.25,43.75c.5,0,.6-.61.67-1.1l0,0,0,0,0-.14h-.13l-.56-.66a2.18,2.18,0,0,0-.55,1.25C595.69,43.58,595.91,43.75,596.25,43.75Z"/>
      <path class="c" d="M550.75,47.89a1.39,1.39,0,0,0-1.52,1.24c0,.74.76,1,1.52,1a2.61,2.61,0,0,0,1.44-.5.91.91,0,0,0,.15-.5C552.34,48.14,551.71,47.89,550.75,47.89Z"/>
      <path class="c" d="M552.34,49.55l-.15.08a4.8,4.8,0,0,1-.41.5Z"/>
      <path class="c" d="M524.82,30.66c0,.83.2,1.24,1,1.24l3.66-1.24s2.15-.42,2.42-.42c1.25.25,4.84-.08,4.84-2.07,0-1.16-2.84-3.31-3.8-3.31-.48,0-.76.66-1.25.83.57-.66.21-.66.21-1.83H531c-2.76,0-3.38,3.06-5,5C525.65,29.33,524.82,29.33,524.82,30.66Z"/>
      <path class="c" d="M508.09,20.72c0,.74,1,2.07,1.38,2.07.83,0,3.11-.17,3.25-1.66-.48-.16-2.42-1.24-2.76-1.24S508.09,19.89,508.09,20.72Z"/>
      <path class="c" d="M517.55,20.46c-2.21.83-2.9,1.74-5.18,2.65,1,.66,2.84,3,3.67,3,2.49,0,4.7,1.49,7.74,1.49a1.37,1.37,0,0,0,1.38-1.24c0-.58-.55-.83-1-1,.41-.16,1.39-.24,1.39-1.07s-.14-1,.55-1.65c-.9-1.08-.9-1.65-2.28-1.65H522.4c-.83,0-1.25-.83-2.08-.83-.55,0-.75-.25-1.45,0,.55-.34,1.32-1,1.32-1.5a13.47,13.47,0,0,0,0-1.66c.27.08.13.25.83-.08-1.11-1-2.22-3.23-4.16-3.23-3.32,0-4.35,3.9-7.26,4.89a9.13,9.13,0,0,0,5,1.75C515.07,20.31,516.86,20.46,517.55,20.46Z"/>
      <path class="c" d="M517.42,37.29c.83,0,1.24-.49,1.38-1.65h-1a6.84,6.84,0,0,1-1,.83C516.8,36.87,517.08,37.29,517.42,37.29Z"/>
      <path class="c" d="M509.12,14.75l-.21-.66h-2.56C506.77,15.17,508.09,14.92,509.12,14.75Z"/>
      <path class="c" d="M540.38,31.32c.48,0,.83-.66.89-1.24-.62.34-.82-.08-2.28.25A1.49,1.49,0,0,0,540.38,31.32Z"/>
      <path class="c" d="M428,18.64a1.86,1.86,0,0,1-.48.33v.33Z"/>
      <path class="c" d="M420.75,17c.62,0,1,.5,1.59.75a9.43,9.43,0,0,1-1,.75,4.19,4.19,0,0,0,1.24.16,5.35,5.35,0,0,0-1.45.67c.21.74.9,1,1.93,1H423c.2.33.41.74.76.83.63.08.76-1.41,1.38-1.82.94-.64,1.54.1,2.42-.33v-.49a1.08,1.08,0,0,0,.7,0c.82-.75,1.72,0,1.86-1.5a5.44,5.44,0,0,0-2.08-.83c-1,0-1.52,1.08-2.55,1.08-1.32,0-2.29-1.08-4-1.08-1.45,0-4.7.25-5.32,1.58a9.64,9.64,0,0,0,1.52.33C418.68,18.06,420,17,420.75,17Z"/>
      <path class="c" d="M453.6,16.57a12.21,12.21,0,0,0,3.66-1.08l-1-2.65c-1,0-3.87,1.33-3.87,2.48C452.42,16.16,452.77,16.57,453.6,16.57Z"/>
      <path class="c" d="M449.79,18.64l-.34-1c.62,0,1.31.33,1.73-.42a7.59,7.59,0,0,0,0-1.24A6.57,6.57,0,0,1,449,16a1,1,0,0,0,.69-.66h-2.28a4.85,4.85,0,0,0,0,1.08A2.15,2.15,0,0,0,446,18.64C446,19.06,449.38,18.89,449.79,18.64Z"/>
      <path class="c" d="M442.53,18.48c-.69,0-3.45.5-3.45,1.66a.66.66,0,0,0,.69.58c.62,0,.9,0,1-.83.42,0,1,.83,1.38.83,1,0,.9-1.24,2.28-1.24A2.18,2.18,0,0,0,442.53,18.48Z"/>
      <path class="c" d="M442.19,16.82c.76,0,1.52.16,2.07-.33a10.94,10.94,0,0,0-3.94-1.24c.69-.83,2.08-1.33,3.18-2.16a1.62,1.62,0,0,1,.63-1.07c0-.25-.07-1-.21-1-.62,0-1.1.67-1.17,1.41-2,0-2.08,1.66-4.15,1.66v1.09c.69-.5.41-.17,1.17.16h-2.9c-.35.33-.49.5-.9.92a21.89,21.89,0,0,0,3.46,1.57C440.25,17.82,441.36,16.82,442.19,16.82Z"/>
      <path class="c" d="M352,25.94c.21,0,.35.24.55.33-.28,1.33.76,2,1.94,2.74a1.33,1.33,0,0,0-.55.17,2.2,2.2,0,0,0,2.21,1.31c1.45,0,1.45-1.82,2.07-2.23h.56a4.37,4.37,0,0,0,1,.74h1.79A13,13,0,0,1,358,31.07c-.35.08-1.94.08-1.94.83,0,2,1.8,1.08,2.63,1.08a9.83,9.83,0,0,1,3.1.42c-.83.24-1.58,0-2.28.67A10.26,10.26,0,0,0,357,34c0,2.82,3.74,3.89,5.39,5.22,1-1.16.83-3.48,2-4.56.35-.33.9-.17,1-.66.69-2.15,1.45-5.8,3.79-5.8a2.5,2.5,0,0,0,1.66,1.25,3.94,3.94,0,0,0-1,.16c.28.66.9,2.16,1.38,2.32-.13,1.25-.89.83-1,2.32.9.09,2.35,0,3.18.16a2.17,2.17,0,0,0-.07,1.5c1.73-.67,2.49-2.07,4.36-2.82-.62-1.08-2.63-.42-2.63-3h-2.21a1.55,1.55,0,0,0,0-1.24,2.09,2.09,0,0,1-1.24,0,1.92,1.92,0,0,0,.69-.09c-.69-1-4.35-3.48-5.53-3.48-.21,0-.48-.09-.69-.09.13-.66.27-2-.84-2-.55,0-.69.74-1.24,1.07,0-.58.2-1.07.2-1.65,0-.83-1.87-1.65-2.76-1.65s-1.38,0-1.38,1.24a10.16,10.16,0,0,0,.83,3.65c-1.73-.75-1.25-3.65-3.12-3.65a1.35,1.35,0,0,0-1.17,1.41,1.27,1.27,0,0,0,.48,1.08c-.48-.58-1.17-.58-1.86-1.24a9.89,9.89,0,0,1,.83-1.16,14.2,14.2,0,0,0-3.46-.33c-.69,0-2.14,1.57-2.42,2C350.71,24.52,351.47,25.94,352,25.94Z"/>
      <path class="c" d="M365.65,21.46c-.14,1.91,1.25.91,2.42.91.14,0,3,.25,3.25.25-.35.17-1.11.17-1.73.41a10.07,10.07,0,0,0-1.39.08,1.37,1.37,0,0,0,.9,1.33H373a2.4,2.4,0,0,0,2.42,1.49c2,0,5.46-2.9,7.13-4.23a3.82,3.82,0,0,0-3.12-2.24H377.2c-1,0-1.46.83-2.08.83a9.69,9.69,0,0,1,0-2.07h-.83c-.35.33-.9,1.91-1.73,1.91a9,9,0,0,1-2.77-1.66h-1.93l.34.83H367v.41a1.26,1.26,0,0,1-1.39-.25h-1A3,3,0,0,0,365.65,21.46Z"/>
      <path class="c" d="M352.57,30.49c-.47-1.77-1.39-2.14-2.27-3.45C349.27,27.82,351.25,30.1,352.57,30.49Z"/>
      <path class="c" d="M350.43,26.93c-.05,0-.08.07-.12.11l.12.14Z"/>
      <path class="c" d="M350.22,26.93l.08.12h0Z"/>
      <path class="c" d="M310.05,134.63a2,2,0,0,0,1.73,1.91,2.43,2.43,0,0,0,1.31-.32c.56-.42,1.38-1.83,2.49-1.83.68,0,1.38.08,1.8-.41.55-.66.07-1.66.07-2.32v-2.81c0-.66,1.25-.58,1.25-1.25,0-1.41-.76-3.4-2.35-3.4h-1.18c-.69,0-2.08,1-2.08,1.57,0,.41.14.58.42,1.07a3.62,3.62,0,0,1-2,.92c-.21,0-.76-.17-.76.91,0,.83.63,1.33,1.32,1.74C311.78,132.4,310.05,132.56,310.05,134.63Z"/>
      <path class="c" d="M316.27,115.58c.77,0,1.32-1,1.32-1.9-.55,0-1.73.41-1.73.91C315.86,114.92,316.06,115.58,316.27,115.58Z"/>
      <path class="c" d="M318.48,118v.66c0,.08-.48.67-.48,1.07s.62.59,1,.67v.74a.67.67,0,0,0-.28.58V123h.56a1.14,1.14,0,0,1,0-1.25,1.91,1.91,0,0,0,1.18.42c-.21.66,0,.83,0,1.58s-.69,1.08-.69,1.74.48.66,1.1.66.9-.41,1.59-.41c.2,0,.41.08.62.08-.14.33-.48.5-.48,1.16,0,.83,1,1,1.66.91v1.25c-.35.83-1.87,1.57-3.11,1.57,0,.91.56,1.33.56,2.41,0,1.24-1.94,1.32-1.94,2.56,0,.16.2.41.34.41.35,0,.28-.41.7-.41.76,0,1,1,1.93,1a1.51,1.51,0,0,0,1.25-.83c0,.16.14.42.14.58,0,1.15-1.39.75-2.35,1.07a24.22,24.22,0,0,0-2.42,3.07v.5h.48c.28-.33.48-.66,1-.66h1c0-.67.41-1.41,1.1-1.41.49,0,.76.5,1.25.5,1,0,2.9-.74,3.59-.74h2.76c.83,0,1.32-.5,1.94-1.25V137a3.88,3.88,0,0,1-1.39-.33c.56-1.08,2.22-1.82,2.22-3.31a1.53,1.53,0,0,0-1.45-1.57c-.56,0-.42-.09-.9.33l.35-.33c-.27.16-.35.41-.83.58v-.58a.63.63,0,0,0,.34-.59c0-.65-.76-1.08-.76-1.74,0-2-1.8-2.57-2.9-3.89-.84-1-.62-3-1.94-3.48-.56-.17-.9.17-1.6-.08a.87.87,0,0,1,.56-.66c0-1.75,2.14-2.73,1.86-5.06h-4.08a1.24,1.24,0,0,1-.2-.66c.2-1.15,1.72-1,1.72-2.14,0-.17-.42-.75-.69-.75h-2a1.46,1.46,0,0,0-1.11,1.07c0,.42-.28.74-.28,1.41a.94.94,0,0,0-1,1,.79.79,0,0,0,.34.5c0,.17-.14.49-.28.49a.7.7,0,0,1-.48-.74h-1.1C316.9,117.49,317.45,117.73,318.48,118Z"/>
      <path class="c" d="M320.84,127.34a1,1,0,0,0-.49,1h.76c0-.41.07-.75.07-1Z"/>
      <path class="c" d="M302.93,89.4l.14-.17c0-2.31-2.56-1.73-2.56-4.13a1.15,1.15,0,0,1,.42-.75c-.62,0-1,.42-1.66.42S298,84.68,298,83.68c-.27.25-.27.17-.76,0a2.58,2.58,0,0,0-.27,1.24c-.62-.75-1.46.25-2.35.25-.63,0-1.18-.25-2.21-.25a3.36,3.36,0,0,0,0,.83,3.05,3.05,0,0,0-1-.58l-1.66.5c-.41,0-.62-.42-.9-.75-.2.33-.14.5,0,1.08-.34.09-.76.5-1.24.5s-1.11-1.08-1-1.66-.35-.74-.41-1.24h-.55c-.55,0-.69.92-1.24.92v.66A1.35,1.35,0,0,0,283,85c.13.91,2.69,1.82,3.52,1.82a.82.82,0,0,0,.28.66,11.75,11.75,0,0,1-3.6.74c.7.83,1.87,0,3,.33a13,13,0,0,0-.35,2.49c-.2,0-.41.24-.62.41,1.52,0,2.07,1.16,3,1.5a15.51,15.51,0,0,0,6.22,1.49c2.36,0,3.67-1.41,5.33-2.07A7.51,7.51,0,0,0,302.93,89.4Z"/>
      <path class="c" d="M183.65,222.87c-.49-.24-.83-1.41-1.59-1.66l-1-.08a1.66,1.66,0,0,1,0-.58,6,6,0,0,1-4.29-2.07c-.13-.17-.69-1-1.17-1-2.28,0-3.73-2.07-6.77-2.07s-4.57,1.41-5.67,3.64h.63a6.39,6.39,0,0,1,3.87-2c.34,0,.69-.08,1,.26a.58.58,0,0,0,.14.91h2c1,0,1.45,1.23,2.42,1.23.55,0,.9-.25,1.45.09.27.16.2.74.76.74.2,1.25,1.31,1.16,2.35,1.75a.8.8,0,0,1-.69.74v.5c1.31,0,2.42.57,4,.57C181.85,223.87,183.16,223.87,183.65,222.87Z"/>
      <path class="c" d="M166.57,218.57v.57a.67.67,0,0,0-.62.75c0,.16.9,0,1,0a2.45,2.45,0,0,0,0-1.24l-.2-.07Z"/>
      <path class="c" d="M176.25,227.43a1.24,1.24,0,0,0,1.1,1.24,11.36,11.36,0,0,0,2.29-.49.91.91,0,0,0-.62-.75l.14.16a6.42,6.42,0,0,0-2.21-.66C176.67,226.93,176.25,227.1,176.25,227.43Z"/>
      <path class="c" d="M198,227.27c0,.83.9.91,1.73.91.42,0,.9,0,1.11-.5-.21-.5-1.87-.92-2.07-.92S198,226.84,198,227.27Z"/>
      <path class="c" d="M183.79,226.93c0,.5.42,1.25.83,1.33,0-.24.07-.41.07-.66.35.26.35,0,.83,0,.83,0,2.49-.25,3.11.26.35.25.21,1.07.83,1.07s.7-1.49,1.59-1.49c.35,0,.28.42.69.42s.76-.34,1.25-.67h2.56c-.48-.83-1.17-1.16-1.86-1.83l.34.34c-1.24-.74-1.66-2.15-3.87-2.15-.76,0-1.18.33-2.07.33-.62,0-1-.58-1.67-.58a.72.72,0,0,0-.55.58,1,1,0,0,0,.9.91,2.57,2.57,0,0,0,.48,1.74c-.83.5-1.52.07-3.11.07C184.07,226.69,183.93,226.93,183.79,226.93Z"/>
      <path class="c" d="M208.75,247.56c0,.25.42,0,.63,0,.41,0,.69-.74.83-1.08v-.58h-.62C209.17,245.9,208.75,246.73,208.75,247.56Z"/>
      <path class="c" d="M231.64,270.93c-.83,0-1.38.82-1.38,2.08,0,.75,1.8,2.23,2.83,2.23.83,0,1.87-1.91,1.87-2.65,0-.17-.21-.75-.49-.75s-1,.91-1.11-.16a2.56,2.56,0,0,1-1.45-.75C231.91,271,231.71,270.93,231.64,270.93Z"/>
      <path class="c" d="M185,382.28h.62v-2.49a2.18,2.18,0,0,0,.28-.92c0-.65-.21-1.32-.83-1.32-.42,0-.83,2.49-.83,2.49v1.08C184.21,381.46,184.55,382.2,185,382.28Z"/>
      <polygon class="c" points="87.47 144.58 87.47 144.59 87.47 144.58 87.47 144.58"/>
      <path class="c" d="M260.19,283.27c-1-.33-1.59.17-2.56-.16a11.37,11.37,0,0,1-3.87-4,14.54,14.54,0,0,0-3.25-1.34l-2.62.43c-1.39,0-1.66-1.34-3.11-1.34-.62,0-.9.58-1.52.91h-.49a6.92,6.92,0,0,0-.14-2.06c-.14-.67-.76-.5-1.31-.91-.9-.66-3.39-2.23-4.63-2.23s-1.94,1.73-2.63,3.07c-.21.4-.49,1-.76,1s-.34-.66-.34-.91h-1.66a2.58,2.58,0,0,0-1.17-1.91c-.35-.16-1-.08-1-.91,0-2.49,2-3.32,3.11-5,0-.83-.89-.83-1.24-1.66a21,21,0,0,1-1.25-4.55c-1.18-.34-2.62-3.07-3.73-3.07h-.41v-.16a6.71,6.71,0,0,1-2.28-.91h-1.8c-1.87-.42-4.77-.16-5.25-2.49a1.21,1.21,0,0,1-1-.51c-.83-2.06-1.45-1.81-2.76-3.39h-1.94c-.28-1.08-.07-2.32-1-2.64s-2.49-.66-3-1.83v-.67a1,1,0,0,0,1-.16,13.06,13.06,0,0,0-1.94-.26c-.21.17-1.66.17-1.73.42-.42,1-1.11,1-2.14,1.16-.55,0-1.39-.16-1.39-.91h-3.74a1.44,1.44,0,0,1-.83-1.48c-1-.26-2.59-.72-2.87-2.05l-1.21,0c0,1,1,.58,1.31,1.57h-1.66c-.63.5-1.73.34-1.73,1.58,0,1,.83,1.58.83,2.57,0,.33-.38,1.34-.66,1.34-.76,0-1.14-1.6-1.14-2.51a34,34,0,0,1,.62-3.39c.27,0,.69-.34.69-1,0-.08-.28-1-.62-1-.9,0-1.1,1.23-2,1.57-1.73.66-2.84,1-4.5,1.66a2.35,2.35,0,0,0-1.87,1.91c-.14.67-.21,1.74-.63,2.08s-1.1.58-1.1,1.4a.58.58,0,0,0-.41.41v.49c-.48.17-.28.17-.83,0a2.1,2.1,0,0,1-.51.57,5.65,5.65,0,0,0,.46-.64c-1.11-1-2-2.65-3.89-2.65-1.66,0-2.56,1.65-4.36,1.65-1.18,0-1.18-1.57-1.94-2-1.1-.66-2.56-1.4-2.56-3.23V240.1a11.31,11.31,0,0,0,.48-3.64v-1.24c-1.24-.32-1.65-1.74-3.32-1.74-2.42,0-4.29.5-6.57.5a.85.85,0,0,1-.83-.9v-.42c.42-.49,1.25-.83,1.25-1.65v-4h.55v.58a5.07,5.07,0,0,0,.83-2.74c0-1.57,1.18-3.07,1.18-4.23v-.75a8.59,8.59,0,0,1-1.59-.16,2.92,2.92,0,0,0-1.38-.25c-1.87,0-4.15.83-4.15,3.23,0,1.25-1.18,2.32-1.45,3.32-.07.34-.42,1.32-1,1.32-.28,0-.56-.5-1.32-.5-1.38,0-2.49,1.17-3.8,1.17-.56,0-.56-.75-1.17-1-1.8-.66-1.8-2.07-3-3.56a12.88,12.88,0,0,1-1.66-2.42c-.27-.74.07-1.23-.2-2-.14-.33-.69-1-.55-1.66v-4.63c.21-1.24.69-1.82.69-3.32a4.48,4.48,0,0,0-.28-1.32l0-.2.18,0c0-.25-.35-.58-.35-.82,0-2.5.9-4.73,2.42-5.39.69-.34,1.31.25,1.87-.42.83-1,1.8-3.07,3.8-3.07.76,0,1.17.83,1.94.83.41,0,.62-.66,1-.66,1.38,0,3,2.82,5,1.66-.83-.66-.21-1.41-.14-2.65-.42.25-.28.25-1,0,1.17-.49,2.63-.33,3.73-.66,0,.26.27.66.48.66.55,0,.76-.66,1.73-.66,1.66,0,2.42,1.91,3.67,1.91.62,0,.9-1.09,1.52-1.09,3,0,2.21,5.06,3.32,7.71.55,1.32,1.24,1.73,2.07,3.06.41.74.34,2.07,1.38,2.07s1.52-1.57,1.52-3.31c0-1.5-.62-2.33-.83-3.32v-.41c0-2.66-1.94-3.48-1.94-6.22,0-6,4.14-7.6,7.38-9.78l-.19-.16c.41-.5.35-.75,1.18-1.07.55-.17.91-.81,1.72-1,.38-.09.61-.58.81-.91l-.81-.58V183c.62,0,.94.08,1.07-.84a1.14,1.14,0,0,1-1-.72,1,1,0,0,0,.91-1v-.83h-.48c-.42-.49,0-.41,0-1.24s-.35-2.33-.35-2.91a3.29,3.29,0,0,1,.06-1.08c.15.83.76,2.16.76,2.74v.9c0,.18.14.5.28.5a11.81,11.81,0,0,0,1.59-3.39c0-.66-.49-.92-.63-1.58l.35-.4c.14.16.28.66.48.66.48,0,1.8-2.9,1.94-3.56,0,0-.62-.58-.62-1a.69.69,0,0,1,.41-.58c.21,0,.42.09.62.09a5.87,5.87,0,0,0,2.63-.41c-.49-.42-1.11,0-1.73,0h-.69c1.38-1.08,3.74-.59,5.12-1.83.27.33,1.45,0,2.28-.25v-.57s-.62.57-.76.57c-.42,0-.69-1.08-.69-1.49-.21-.09-.28-.5-.28-.75,0-3.14,2.35-4,3.46-5.38.69-.41.76,0,1.59,0a2.42,2.42,0,0,0,2.22-1.41,3.7,3.7,0,0,1-.32-.63l0-.19v-.25c.14.09.48,0,.69,0,.42,0,2.15.33,2.76-.16s.62-1.57,1.66-1.65c0,1.15-.07,1.24,1,1.24-1.59.16-4.08,1.49-4.08,3.3,0,.75,1,2.08,1.38,2.08s1.84-2.23,3.22-2.72c.35-.08,5.08-2.25,5.08-2.92,0-.91-1.8-1-2.21-1-2,0-5.19-2.32-5.19-4.4,0-.49.55-1.16.69-2-.35,0-1.11-.24-1.73-.24.42-.66,2.9-1.08,2.9-2.74s-2.15-1.24-3.6-1.24c-3,0-4.42,2.56-6.5,2.89.9-2.23,2.35-1.5,3.87-3.32,1-1.15.28-1.9,1.73-2.48,2.63-1,4.15-.41,6.78-.41,3.46,0,5.35,1.35,7.4-1.83,1-1.55,6.57-1.91,6.57-4.56a7.36,7.36,0,0,0-1.17-4c-.56,0,.24-.81-.56-1.24v-1c-1.59,1.08-4.91,2.49-6.56,2.49a1,1,0,0,1-.69-.33c1.38-.91,5.23-1.54,5.64-3.12.07-.41-.52-.53-.59-.94-1.66.24-5.19-.67-5.19-3.48v-.25c-1.52,0-2.42-1.16-3.32-2a1.64,1.64,0,0,0,1-1.49c0-.83-.62-1.49-.49-2.32-.62-.25-2.87-2-2.28-3.48.72-1.88-2.21-2.32-2.42-4.56-.21,0-.9-.74-1.18-1.08-.48.42-1.59,1.16-1.59,2.32s-2.21,4.31-3.94,4.31c-1.24,0-1.45-1.82-2.28-1.82-1.18,0-1.66-4.06-1.86-5.8-.28-2.32-4-.67-4-3.73-1.94-.33-2.35-3.14-4.29-3.14-.9,0-.9.83-1.93.83-2,0-3.25-1.41-5.19-1.41a1.93,1.93,0,0,0-2.07,2.07c0,.83,2.44,2,.21,3.73-.87.67,1.26,2.5,1.39,3.73.24,2.45-1.72,3.07-2.62,3.49,1.59,3.24,4,4.3,4,9.77,0,1.49-4.15,5.21-5.53,5.55,2.4,1.46,1.45,6,2.42,7.38-.28.5-1.18,1.08-1.25,2-.83,0-1.43,1.62-2.08,1-1.71-1.64-4.14-4.22-4.14-6.63,0-2.64.41-4.72-1.52-6.21h-4.5a33.84,33.84,0,0,0-8.51-5c-.55-.25-2.14-1.65-3.11-1.65s-1.52,1.24-2.56,1.24c0-2-1.1-6.62-2.62-6.62-.69,0-1,.66-1.73.83.28-1,0-1.33,0-3.73a10.16,10.16,0,0,1,2.42-7.21c.55-.66,1.73-3.89,2.28-4.14,1.17-.49,3.25.33,3.25-1.66,0-1.25-2.65-1.34-3.61-2,.62.25-1.47-1.45,4.15.62,1.45.54.57-1.77,1.4-1.77h1.52c1.66,0,2.56-2.07,3.66-3.06V89.31c-2.35-.66-4.7-.24-5.74-2.73h1.25c.9.67,1.8,1.9,3.11,1.9,1.1,0,3.11-1.74,3.11-2.73,0-.32-1-1.82-.49-1.82,1.52,0,2.08,1.66,3,1.66.62,0,1-.66,2.28-.66-.35-.5,0-2,.83-.41.45.83,4-2.82,4-3.89,0-.75-1.59-1.57-1.59-2.08s-.93-1.9,1.24-3.15c.27-.74,0-.66,0-2.06-2.21,0-1.66-2.08-4.5-2.08-.62-.08-1.11-.58-1.73-.58a1.73,1.73,0,0,0-1.73,1.67c0,1.08,1,1.49,1,2.23s-1.59.83-1.94,1.65c-.55,1.42-.36,2.52-1.36,4.05-1.56,2.38-3.61-1.48-3.61-2.39,0-1.07,1.17-.83,1.17-2.06,0-.58-2-2.91-2.56-2.91-2,0-.62,3.57-2.76,3.57,0-1.41-.14-2.4-1.59-3.23a3,3,0,0,1,.69-1c-1.11-.84-2.63,0-3.46-1.25.49-.34,1.73-.91,1.73-2,0-1.57-2-1.51-2.08-2.74A4.07,4.07,0,0,0,142.3,62c-1.32,0-.76,1-.7,1.82-.83.25-1.93,0-1.93,1.24,0,.83.55,1.24.55,2.07s-.9.75-.9,1.91c0,2.74,4.7,1.08,4.7,3.89a19.24,19.24,0,0,1-.56,2.48c.49-.33.9-.49,1.46-.83.9,3.4-3.67,1.74-3.67,5.8-2.27.74-.49-2-1-2.9-.2-.41-2.07-1-3.11-1-1.24,0-1.73.91-1.73,2.66-1.17-.18-1.94,0-5.88,0-3.74,0-8.09-1.58-9-5-1.24.41-5.4.49-5.4,2.31a.81.81,0,0,0,.88.9,7.56,7.56,0,0,0,3.76-1.31c.28,2.73-3.25.5-3.25,3.32,0,.57.76,2.48.42,2.48-1.38,0-1.66-2.07-2.83-2.73l-1-.59h-4.42c-1.39,0-2.28.67-3.8.75-2.74.16-2.74-1-2.74-1.3,0-.74,2.12-.43,2.53-.94-1.93-3.21-1.58-2.68-5.53-2.32-4.2.39-6.29-3.73-10.51-3.73-1.31,0-1.87,1.08-3,1.08-.76,0-1.53-1.58-1.66-2.24-1.31.34-1.31,2.16-2.7,2.16s-3.18-3.73-3.6-3.73c-1.38,0-.9,2.39-2.35,2.39a1.46,1.46,0,0,1-1.25-1.15,23.44,23.44,0,0,0-4.83,1.65c-.76.17-2.58,1.76-3.18,1.09-1.81-2-1.5.55-2.15.57-4.5.2-1.38,2.16-2,2.16a13.3,13.3,0,0,1-7.68-2.49c-.11-.08-1-.83-1-1.08-.48.34-.14.17-.82,0v35.88h0V71.5c-1.73-.66-2.35-1.66-4.36-1.66-1.24,0-2,.58-3.25.58-2.14,0-6.43-.41-7.81-2.07H31.67a16,16,0,0,1-2.08-1.65H26.14c-.62-.25-.84-.5-1.6-.83a1.72,1.72,0,0,1-1.73,1.07,7,7,0,0,1,.62-1.07c-.89-.33-1.24-1.25-2.14-1.25-1.17,0-1.87,1.82-3,2.32s-1.59-.16-2.56.16C12.1,68.52,9,71.67,6.91,75H3.11c-.07.25-1,2.32-1,2.32,0,.58,2.83,1.24,3.66,1.83s1.52,3,2.07,3.3c2,1.17,3.46,1.33,4.15,4-.82.25-1,0-1.94,0-1.45,0-2.56.75-2.56-1.9H6.22c-1.66,1.32-4.5,2.4-6.22,3.64a2,2,0,0,0,2.08,1.33,3.34,3.34,0,0,0-.21.83c0,.75.83,1.08.9,2.32H6.43c1-.25,1.52.58,2.91.58s1.86-1.41,3-1.41a4.14,4.14,0,0,1,1,0V93c-.48-.33-.34-.42-1,.08.07.24,1.18,1.41,1.18,2,0,1.07-4.7,3.32-5.33,3.32C6.7,98.43,3,100.5,3,103c0,1.33,2.21,1.74,2.77,3.56-.34,0-.69.25-1,.25.49.74,3.74,3.81,4.64,3.81.27,0,.83-1.41,1.38-1.41s.55,1,.55,1.24v1.66c0,.66.27,2.07.69,2.07s.62-.66,1-.66h.83a4.1,4.1,0,0,1,.06-1.25,10.16,10.16,0,0,0,3.32,2.32,7.5,7.5,0,0,1,.48-1.5c.69.25,1,.66,1.87.66,1,0,1.52-.58,2.55-1.07h1c-1.66,1.24-1.66,3.73-3.25,5s-4.36,2.74-5.53,4.56c-.83,1.25-2.15.41-3.32,1.25-.76.5-1.38,2.15-2.21,2.73-1.17.83-2.49.17-3.32,1.74,2.9,1,4.29-2.49,6.78-3,2-.33,4.49-1.25,5.53-2.48s3.46-2.16,4.5-3.73c.55-.83.83-1.65,1.73-2.07,1.58-.75,3.11-1.41,3.11-3.31V112.1c0-2.73,4.56-7.3,6.23-7.3h.83c0,.25-.07.58-.07.82a4.14,4.14,0,0,0-3,4c0,.42-.27.42.07,1-.14.08-.55.17-.55.66,0,.33.41.59.69.59,1.59,0,6-3,6.91-4.64a2.47,2.47,0,0,1-.69-1.17c.62-.42,2-.83,2.84-1.24,1.17,2.91,4.22,3.23,6.5,4.14h3.81c2.07,1.41,4.42,1.32,6.22,2.91.83.74,1.8,3.14,3.25,3.14.55,0,.83-.82,1-1.48a2.54,2.54,0,0,0,2.08,1.23c.27-.57.9.17,1.24.58a2.87,2.87,0,0,0-.69,1.74,1.74,1.74,0,0,0,1,1.24c.9,0,.56-1,1.87-1.08v1.08c0,.66-1,.74-1,1.4A1.17,1.17,0,0,0,66.93,121c1.24,0,2.08,0,2.08,1.24v1.25c0,.91,1.73,2.49,2.91,2.49.35,0,.35-.08.69-.08,0-.58,1-.75,1-1.65,0-1.59-1-2.08-1.62-2.72.65.64,1.62,1.13,1.62,2.72,0,.91-1,1.07-1,1.65,0,.42.41.67.41,1.16,0,1.09-.28,3.32.69,3.65.55.16,1.1.16,1.52.66.62.75-.14,1.83.69,2.49a12.89,12.89,0,0,1,1.86,1.58c.49,1.9.63,4.14,3,4.14.34,1.66,2.77.58,3.31,2.73.21.83,1.94,1,2.63,1.82a3.52,3.52,0,0,0,.76.5h0c.28.83.9,1.08.9,1.9a4.93,4.93,0,0,1-1,2.24,2.17,2.17,0,0,0-2-1.41c-.28,0-1,.08-1,.58,0,1.82,1.73,2.57,1.73,4.38,0,2.57-1.82,7.27-1.17,9.29s-.07,5.14.69,7c-.42.32-1,.85-.69,1.57,1.19,2.46,2.7,6.13,4.15,6.38-.35,3.39,1.59,4.39,2.56,7.29.21.66,0,1.58.55,1.83,2.49,1.15,6,2.9,7.05,5.38h-.14v.57c.49,1.92,1.1,2.41,1.73,3.9.41,1,.37,3.31,1.19,3.93a16.24,16.24,0,0,1,3.37,4.45c.61,1-1,.73-1.38.73.7,1.24,2.21,1,3.18,2.15.69.83,1.25,1.74,2,2.65v2.16c.21.41.28.41.7.75.76.58,1.43,2.54,2.67,2.54a6.15,6.15,0,0,0,1.13,1.77c.21,0,.48-.83.48-1.25,0-.66-.82-2.07-1.38-1.4-1.24-1-1.66-3.15-2.21-5.14-.48-1.74-1.87-2.65-2.35-4.56a6.94,6.94,0,0,0-1.45-3.39c-.69-.83-1.6-.84-2.08-2.08-.55-1.41-1.24-2.48-1.24-4.22a2,2,0,0,1,.14-1.08c.9,1.08,2,1,3.18,1.66.55.33.41,2.15,1,2.9s.41,2.15,1,2.9c.76.91,1.45,1.82,2.35,2.89.21-.24.14-.17.76,0,0,2,2.15,2.16,2.77,3.65.35.91-.14,1.74.41,2.4.69.83,1.8,1.16,2.49,2,1.52,1.82,3.87,4.23,4.7,7.21.14.58.69.82.69,1.91,0,.9-.69,1.41-.69,2.32,0,.74.42,1.66,1,1.66.21,1.07,2.35,1.65,3.18,2.65a2.5,2.5,0,0,0,.76.58c.9.49,1.38.33,2.28.83s1.17,1.58,2.14,1.9c.76.25,1.25-.25,2,.17s3,2.4,3.87,2.4a2.63,2.63,0,0,1,1.59.17c.28.17.84.75,1.38.75,1.18,0,1.38-1.66,2.63-1.66a2.5,2.5,0,0,1,1.52.66h.42c1.87,1.08,2.14,3,4.28,4.23,1.39.82,2.35.41,3.67,1.15.9.49,1.59,1.41,2.9,1.41.48,0,.83-.42,1.32-.42h.41c.41,2,1.59,2.73,2.7,4.06a2.75,2.75,0,0,1,.9,1.41c.35,1.24-.35,2.4.69,3.23h.69a.71.71,0,0,1,0-.75,14.09,14.09,0,0,1,2.63,2.23c.28.67.28,1.49,1.25,1.75,0,.16.21.49.34.49.48,0,1.59-.49,2.08.09s1.25,2.24,2.35,2.24c.55,0,.9-.41,1-1.25-.14-.08-.56-.41-.56-.74,0-.49,1.94-2.15,2.43-2.15.76,0,1,1.07,1.72,1.5-.14.33-.42.49-.42.83s.64.48.78.65.09,0,.17-.09a1.39,1.39,0,0,0-.11.52c0,1.49,1.25,1.24,1.25,3,0,.82-.35,1.15-.35,2.14,0,.67.42,1.17.42,1.83v.42l-.28.66a1.27,1.27,0,0,0,.69.83c-.41,2.24-2.21,1.66-3,3.47-.55,1.33-1,3.57-2.91,3.57.29,3.65-1.45,3.32-1.45,5.22,0,1.15.14,2.81,1.11,2.81.49,0,.42-.41,1,.08-.27,1.34-1.52,1.66-2.14,2.91a4.9,4.9,0,0,0-.76,2.49,7.18,7.18,0,0,0,1.73,4.06c.28.33.83.16,1,.66a7.81,7.81,0,0,0,.83,2.33c.21.24.69.09.9.58a33,33,0,0,1,1.52,4.55c.49,1.82,1.87,3.31,2.42,5.31.28,1.16,1.31,1.82,1.31,3.14,0,1-.27,1.91.28,2.56a9.62,9.62,0,0,0,4.15,3.4,4.27,4.27,0,0,1,2.21,1.66c.77.91,1.53.74,2.56,1.32a6.82,6.82,0,0,1,3,4c.2.91.55,5.8.55,6.63,0,1.33-.62,3.56-.62,4.73v3.63c-.14.83-.48,2.32-.48,2.9v.75c0,2.82-1.59,4.89-1.59,8,0,1.33-.76,2.48-.35,4l.07,6.21c-.42,2-.42,3.4-.9,5.3-.07.33-.42.26-.62.58-.35.58-.48,1.75-.76,2.32a11.25,11.25,0,0,0-1.59,5c0,.58.07,2.9.35,2.9a1.46,1.46,0,0,1,.41.91c0,.25-.21.5-.69.5-.21,1.49-.69,2.16-.69,3.73,0,.92.41,2.82,1,2.82s.55-.67,1-.92a1.72,1.72,0,0,1,.62,0V378l-2.28,12.27c-1,0-.55-1.5-1.8-1.5-.34,0-.62.41-.62.91h-.07v.84c.14.91,1,2.24,1,2.89,0,1.33-1.59,1.91-1.59,3.4s1,4.31,1,6.13v1.16c0,1.74,1.87,1.42,1.87,3.41a3.35,3.35,0,0,1-.48,1.4,2.5,2.5,0,0,0,.55.42c-.07.74-1.31.67-1.31,1.4,0,.17.41.58.62.84.9,1.08,1.45,2.23,3.39,2.23.07.42.21,1.09.76,1.09H190c0,1.49,1.52,1.49,2.56,1.9s.55,2.66,2.15,2.66h1.93c.21,0,.49-.34.69-.34h.76c.62,0,2.35-1.57,3.39-1.57.41,0,.83.25,1.11-.24-1.87-1.08-3.73-1.83-5.26-3.66-.9-1.06-.83-4.88-2.07-5.71-.42-.08-1-1.07-1-1.91a5.43,5.43,0,0,1,1.18-3.72c.62-.75,1.73-.25,2.21-1.41s.21-2.16.76-2.82c1-1.16,2.69-1.4,2.69-3.71,0-2.58-3.11-1.42-3.11-4.66a3.05,3.05,0,0,1,2.07-2.9c.48-.08,1.73-.16,1.87-1.08.42-2.07.42-3.56,1.66-5a1.13,1.13,0,0,1-.76-1.25c.69,0,1,.75,1.8.75a1.43,1.43,0,0,0,.69-1.08c0-.41-.34-.5-.62-.82-.21.07-.63.58-1,.58-.62,0-1.45-2.15-1.45-3.32,0-.42.21-1,.69-1,1.38,0,1.66,1.16,3.11,1.16.48,0,1.59-.58,1.59-1v-.83c.48-1.16-.21-3.65.69-4.72.62-.76,2.91.15,4-.24,1.66-.67,3.11-.26,4.29-1.67a13.11,13.11,0,0,0,1.8-2.53,4.26,4.26,0,0,0,.34-2.21c0-.9-1.1-.9-1.31-1.82a6.74,6.74,0,0,0-.83-2.57c-.21-.25-1.24-.65-1.24-1.4,0-.25.34-.42.55-.42,1,0,1.94,1,2.9,1,.49,0,2,.9,3.14.9,3.18,0,3.71-4.13,5.1-6.63,1.17-2.15,2.56-2.4,3.8-4.63.55-1.08.49-1.65,1-2.73v.08c.69-1.75,1.38-3.15,2.77-4v-3.89c0-1.58-.14-2.74.76-3.82.55-.66,1.45-.66,2-1.75,1.24-2.31,3-1.15,4.63-3.14.21-.25.28-.66.69-.92a6.54,6.54,0,0,1,3.39-.49,3.92,3.92,0,0,0,3-2.16c.14-.33.08-1.33.35-1.82,1-1.66,1.38-2.49,2.42-4.4a13.39,13.39,0,0,0,.35-2.81,4.26,4.26,0,0,1,.9-1.91,3.07,3.07,0,0,0,.34-1c0-1.08.47-2.46.47-4,0-2-1-4.67,0-5.91.69-.83,1.45-1,2.15-2.24.41-.75.71-1,1.13-1.69,1.86-3.39,4.67-5,4.67-11.14C261.92,285.51,261.58,283.78,260.19,283.27ZM196.57,149.56a5.15,5.15,0,0,1,.32.89,5,5,0,0,0-.32-.89.6.6,0,0,0-.44-.37A.6.6,0,0,1,196.57,149.56Zm-5.65,5.14a4,4,0,0,0,.22-.34c-.07.11-.14.24-.22.34a1.75,1.75,0,0,0-.21.46A1.76,1.76,0,0,1,190.91,154.7ZM183.08,156l.06,0-.05,0c-.13.13-.46.51-.86,1C182.61,156.49,182.95,156.11,183.08,156Zm-9.59,5.08a24.57,24.57,0,0,1,6.5-1.57l.14-.14-.14.14c0,3.11-4.43,2.31-6.44,2.31-.34,0-.34.09-.82.09.07.14.15.32.23.53-.11-.25-.36-.41-.36-.69S173.28,161.15,173.49,161.06Zm-.07,2.82h0l-1.09.65Zm-1.11.67c-1.6.95-3.9,2.23-5.32,2.23-.69,0-1-1.25-1-2.08.21.42.62,1,1,1,.62,0,.69-.5,1-.84.62-.74,1.66-.66,2.63-.66S172,164.8,172.31,164.55Zm-27.8-18.89H148c1.38,1.65,3.18,1.65,5.74,1.65.9-.33,1,0,1.8-.41s.42-1.75,1.11-1.75,1.38,1.5,1.65,1.83a3.46,3.46,0,0,0,.07-1.16h.55c.41,0,3.32,2.82,3.46,3.15.41,1,0,1.83.55,2.49,1.59,1.9,3.73,1.49,5.46,2.82h1.8c.83.66,1.87,1.49,1.87,2.73,0,.59-.28,1-.69,1-.83,0-1.66-1.07-1.94-1.41-.28,1.33-.9,5.3-1.87,5.3h0c-.69-.66-.69-1.24-1-2.57-.69.25-.56.58-1.38.58.21-1.16.76-1.91.76-3.06,0-1-2.56-2.49-3.11-2.49-1.14,0,0,2-2.5,2.19-.77.06-.75,2.57-.75,3.61v2.65c0,1.08-.35,3.57-1.39,3.57a1.71,1.71,0,0,1-1.58-1.67c0-2.15.55-6.37,1.73-8.2-.69,0-1,.68-1.66,1.16.14-1.66,2.91-4,4.43-4,.55,0,2.07.42,3.11,0v-1c-1.45,0-2.28-1.08-3.94-1.08-.76,0-1,.83-1.93.83a1.25,1.25,0,0,1-1.18-1h-1.38c.28-.67.76-.91.76-2.07-1,.25-2.28,1.82-3,1.82s-.69,1.07-1.87,1.07c-.55,0-.76-.08-1-.82a4.08,4.08,0,0,0-1.24.58h-1c1.59-2.4,3.53-3.23,5.39-4.72-2.56,0-4.36,0-5.74-1.65h-3.46c-.7-.46-.83-1-1.26-1.55C143.69,144.7,143.81,145.21,144.51,145.66Zm-1.73-2.08h0v1h0ZM59.67,111.86a2.68,2.68,0,0,1-1.71-.92,2.68,2.68,0,0,0,1.71.92c.73,0,.91-1,1.36-1.61C60.58,110.88,60.4,111.86,59.67,111.86Zm3.25-2.49h0c1.42,1.71,2.37,2.69,3.39,4.17C65.29,112.06,64.34,111.08,62.92,109.37Zm5.81,7.87c-.18-.67-.63-.88-.83-1.15.2.27.65.48.83,1.15a8.36,8.36,0,0,0,1.38,3.15.93.93,0,0,0,.31.24,1,1,0,0,1-.31-.24A8.4,8.4,0,0,1,68.73,117.24Zm1.71,3.39a4.5,4.5,0,0,1,1.12.47A4.5,4.5,0,0,0,70.44,120.63ZM103.58,191h0l7.39,2.9Zm14.52,1.9c2.35.74,3.66,1.08,4.84,3.48C121.76,194,120.46,193.62,118.1,192.88Zm8,7.46c.66,0,.88-.58,1.13-1.16C126.94,199.76,126.71,200.34,126.05,200.34Zm2.42-2.32h0c2,0,3,1.51,3.81,3.36C131.51,199.54,130.51,198,128.47,198Z"/>
      <path class="c" d="M175.63,210.86c0,.67,0,1.57.69,1.57.14,0,.35-.25.35-.41,0-.58-.21-1.07-.76-1.16C175.83,210.86,175.63,210.78,175.63,210.86Z"/>
      <path class="c" d="M175.56,206.14a1.24,1.24,0,0,0-1,.67,13.46,13.46,0,0,0,1.8,0C176.25,206.55,176,206.14,175.56,206.14Z"/>
      <path class="c" d="M177.7,207.14c-.06.24.13.74.35.66Z"/>
      <path class="c" d="M186.07,220.3v-.74a1.28,1.28,0,0,1-1.38.74v.5c0,.08.21,0,.28,0A1.53,1.53,0,0,0,186.07,220.3Z"/>
      <path class="c" d="M69.14,126.77c.35,0,.55-.25.55-.83,0-1.82-1.87-2.07-1.66-4.3-1.45-.33-1.8-.33-1.8,1.66.83-.67.42-.25,1.52,0-.2.41,0,1.07,0,1.66C67.76,125,68.52,126.77,69.14,126.77Z"/>
      <path class="c" d="M64.17,118.48c-.14.08-.69.25-.69,0-.34-1.33,0-1.33,0-3.48-1,.67-.34,0-1.59,0a.8.8,0,0,0-.83.83,2.45,2.45,0,0,0,1.87,2.48A4.71,4.71,0,0,0,64,121.63C64.72,120.8,64,119.64,64.17,118.48Z"/>
      <path class="c" d="M128.13,70.84c1.24,0,1.52.33,2.77-.66-1.32-1.25-7.13-3.07-7.13-5.72,0-2.16-1.87-4.07-1.87-7,0-.75,1.52-1.49,1.52-2.74s-1.17-1.82-2.42-1.82-2.07.58-2.07,1.41a3.23,3.23,0,0,0,.07.82c-1.11.67-.69,0-1.94,0a1.21,1.21,0,0,0-1.24,1.08,26.56,26.56,0,0,0,1.59,5.72c-.35.32-.35.66-.9.66-1.24,0-.76-2.07-1.17-3.06A4.31,4.31,0,0,0,113,57.17h-1.51a6.28,6.28,0,0,1,.35,1.49,21.26,21.26,0,0,1-2.07.59c-.49-1.49-1.17-2.49-3.11-2.49-1.11,0-1.59,1.08-2.14,1.49-.28-.49-.21-2.89-1.18-2.89-2.49,0-8.78,3-8.78,7A3.07,3.07,0,0,0,96.66,64a6.06,6.06,0,0,1,2.42.08c-.76.58-2.77-.08-2.77,1.74,0,2.32,3.8,1.49,5.33,1.49h3.66a3.25,3.25,0,0,1,1.73.83,18.73,18.73,0,0,1-2.28.17c-2.9,0-5,.41-6.71,1.9.48,1,1.73,2.9,3.25,2.9,1,0,3-.26,3.8.41s.07,2.08,1.25,2.08h6.22c1.46-1.24,3.18-.58,5-1.66,1-.58.56-1.49,1.79-1.49,2,0,3,2.48,5.67,2.48,1.73,0,3.32.08,3.94-1.49a1.62,1.62,0,0,1-.69-1.16c-.28,0-1,0-1-.66S127.58,70.84,128.13,70.84Z"/>
      <path class="c" d="M84.57,62.81c.21.41.69,1.66,1,1.66s.55.82,1,.82S92,63.22,92,62.56c0-1.91,3-5.39,5.19-6.21.69-.25,4.35-.91,4.35-1.81,0-1.91-3.39-3.57-4.84-3.57-.9,0-1.73,1-2.35.25C92.79,51,92.1,50,90.58,49.55c-1.25-.41-1.94.59-2.77.59-1.66,0-2.42-.83-4.15,0,.07.91,1,2.24,1,2.89,0,3-3.45,5.31-3.45,8.12C81.25,62.14,84,61.9,84.57,62.81Z"/>
      <path class="c" d="M101.47,41l-.18,0a1.72,1.72,0,0,0-1.38.91,2.6,2.6,0,0,0,.72.39l-.38-.06a5.15,5.15,0,0,0-1.18,0V43.5l.77.35a3.37,3.37,0,0,0-.77-.1c-.69,0-1,.66-1.73.83.27.58,0,.41,0,1.24a1.18,1.18,0,0,0,1,1.25,21.72,21.72,0,0,0,2.42.57c.83,0,1.73-.41,2.9-.57a1.12,1.12,0,0,1,.76-1.08c.14.83.76,1.25,1.17,1.91-.9,0-1.94-.26-1.94,1,0,.49,1.11,1.25,1.94,1.25a10.11,10.11,0,0,0,4.5-1.25c.2-.08,4.63-1.25,4.63-1.41s4.08.34,4.5.16a6.94,6.94,0,0,0,2.28-3.89c0-1-.76-2.07-1.59-2.07s-1.25,1-1.86,1c-1.32,0-2.63-1.82-2.63-3.06a5,5,0,0,1,0-1.08,2.15,2.15,0,0,1-1.31-.58c-.69.66-2.49,1.32-2.49,2.66,0,.74,1.24,1.15,1.73,1.24v1.08a1,1,0,0,0-.69.33,2.61,2.61,0,0,0,1.38.24,1.38,1.38,0,0,1-1.52,1.08c-3,0-4.49-3.14-6.57-3.14h-1.59a1.28,1.28,0,0,0-1.18-1.25,6.71,6.71,0,0,0-2.28,0A.92.92,0,0,0,101.47,41Zm1.9,1.81c-.23,0-.63-.11-1.07-.19A9.5,9.5,0,0,1,103.37,42.84Z"/>
      <path class="c" d="M93.9,44.17a1.14,1.14,0,0,0,1.17,1c.9,0,1.94-1.74,2.08-2.9C96.46,42.18,93.9,42.84,93.9,44.17Z"/>
      <path class="c" d="M103.58,39.19h1.52V38.11h-2.42A1,1,0,0,0,103.58,39.19Z"/>
      <path class="c" d="M88.85,42.26c.69,0,1.1.5,1.94,0,.13.33.62,1.24,1.17,1.24.76,0,1.31-.91,1.45-1.82,1.17.17,2.21-1.16,2.35-2.57.62.41.55,2.32,1.73,2.32l3-2.66c0-.66-.48-.83-.55-1.65a1.47,1.47,0,0,0,.9-1.33c0-1.49-4.15-.16-4.15-.16a7.08,7.08,0,0,0-1.25-.17c-1.93,0-2.28,2.15-3.59,3.07s-2.21,1-3.32,1.65A8,8,0,0,0,87,41.68c0,.25.56.66.69,1.24C88.23,42.84,88.43,42.26,88.85,42.26Z"/>
      <path class="c" d="M108.56,31.32h3a3.42,3.42,0,0,0,1.86-.82,3,3,0,0,0-2.9-2.07c-.9,0-5,1.82-5,2.9.55-.08.83-.66,1.38-.66S107.73,31.32,108.56,31.32Z"/>
      <path class="c" d="M111.32,31.74c-1.45,0-5.67.16-5.67,2.07A2.84,2.84,0,0,0,107.87,36c1.52,0,3.8-.74,3.67-2.48H109.6a4.27,4.27,0,0,0,3-1A1.36,1.36,0,0,0,111.32,31.74Z"/>
      <path class="c" d="M103.72,34.38c.49,0,.69-.49,1-1-.42-.25-2.35-2.32-2.35-.25A1.72,1.72,0,0,0,103.72,34.38Z"/>
      <path class="c" d="M138.08,58.25c0-.83.21-.09.21-1.24,0-.91-2-.17-2.56-.09.49-.74,2.22-1.41,2.22-3.06a1,1,0,0,0-.69-.83h-2.77c-1.52,0-3-.33-4.15,1-.07.25-.48.41-.48.67,0,1.08,1.32.91,2.21,1.08V58h-1c-1.18,0-2.21-1-3.11-1v1.41c2,2.4,4.15,2.07,6.09,4.39.42.5.55,1.41,1.52,1.41.62,0,.76-1,1.38-1.24,2.22-1,2.44.21,2.77-4.31C139.26,58.5,138.36,58.33,138.08,58.25Z"/>
      <path class="c" d="M124.46,39.35h-.83a2,2,0,0,0,.24,1l-.1-.15v1.49c.55.5,1,1.08,1.73.83l.21.82h1a.94.94,0,0,0,.83,1c1.38,0,3.8-.83,5-.83a1.44,1.44,0,0,1,.83.25c-.41.5-1.73.5-1.73,1.24a1.8,1.8,0,0,0,0,.83,1,1,0,0,0-.48.83c0,.75,1.8.42,2.21.42a8.48,8.48,0,0,0,2.77-.42c-.28-2.32.56-3.32.56-5.21,0-1.25-.14-2.08-1.38-2.08-.55,0-.83.67-1.38.67-1.31,0-2-.83-3.11-.83-.49,0-.77-.17-1.25.08.28,1.16,1.25,1.16,2.42,1.16v1.82c-1.73,0-2.28-1.82-3.8-1.82v1a6.58,6.58,0,0,0,1.38,1.41C127.5,43.58,126.47,39.35,124.46,39.35Z"/>
      <path class="c" d="M135.18,73.33c-.28.08-1.52-.25-1.52.41a24.4,24.4,0,0,0,6,2.48c.76,0,1-.83,1.73-1.32-.41-1.16-3.25-4.23-4.29-4.23C135.73,70.67,136,73,135.18,73.33Z"/>
      <path class="c" d="M144.51,51.21a1.85,1.85,0,0,0-1.87,1.24c0,.25-.14.74,0,.82h-1.58v1.41c.48,1.66,0,2.65,1.1,4a24.18,24.18,0,0,0-.06,2.48h1.38c.83-1,1.39-1.24,1.6-2.73h-.9c.42-1.66.42-.58,1.94-.58,2.08,0,3-1.82,3.94-3.31,0,0,1.25-1.08,1.25-1.25a5.29,5.29,0,0,1,0-1.07C148.8,52.2,146.86,51.21,144.51,51.21Z"/>
      <path class="c" d="M122.74,36.87a1,1,0,0,0,1-1c-1.45-.58-1.59-2.32-3.39-2.32C120.31,34.63,122,36.87,122.74,36.87Z"/>
      <path class="c" d="M122.39,47a9.32,9.32,0,0,1,1.38.09c.41,0,1-.09,1-1.08,0-.58-.35-.82-.49-1.24A2.7,2.7,0,0,0,122.39,47Z"/>
      <path class="c" d="M122.39,27.18a1.53,1.53,0,0,1-.48.83c.55.5.9,0,2.42,0a1.27,1.27,0,0,0,0,1c-.83.33-1.45.25-2.07,1,.62.74.9.66,1.87.66s1.94-.42,2.28.33c1.24-.17,2,.33,3.25.33,1.59,0,1.45,2.07,3.11,2.07.55,0,1.25-.25,1.25-1.08s-1.39-1.57-1.94-2.23c.14-.25.41-.58.55-.83-.34-.41-1.11-1.91-2.08-1.91-.41,0-.62.66-1,.66-.76,0-.69-1.91-2.08-1.91-.55,0-.83.67-1.38.67-.83,0-1.18-1.49-2.63-1.49-.83,0-1.38.5-2.21.66C121.21,26.93,121.42,27.18,122.39,27.18Z"/>
      <path class="c" d="M128.13,32.31c-.27,0-1.87,1.24-.63,1.24,1,0,1.87,0,2.22-.58C129.1,32.73,128.89,32.31,128.13,32.31Z"/>
      <path class="c" d="M154.06,48.31h.83c-.14,1.41,2,1.65,3.46,1.24h5.53c.62-.5.76-.91,1.73-1.07A1.4,1.4,0,0,0,167,49.71c2.42,0,5.53,0,5.74-2.9a1.8,1.8,0,0,1-.9-.08,2.1,2.1,0,0,1,.35-.77,1.64,1.64,0,0,0,.55-.15c-1-2.15-2.77-2.32-5.53-2.32-3.6,0-4.84,2.07-8.64,2.07a16.08,16.08,0,0,1-4.77-1c-.27.24-1.11.75-1.11-.42,0-.25.35-.25.49-.42-1-.91-2.7.33-3.11-1.9h2.77c-.62-1.08-3.8-.58-3.25-2.49h-1.24a1.36,1.36,0,0,1-1.39.66c-2.35,0-2.9-2.9-6-2.9-.82,0-2.07,0-2.07,1.24,0,.75,4.22,2.9,5,2.9a1.85,1.85,0,0,0,1.38-.82c1.18,1.41,1.52,2.73,2.77,4.22a1.86,1.86,0,0,0-.83,1.33c0,1.65,3.46,3.73,5,3.73C152.74,49.71,153.78,48.72,154.06,48.31Z"/>
      <path class="c" d="M145.21,46.64a3.54,3.54,0,0,0-2.9-2.73c-1.59,0-1.31,1.9-2.07,1.9a1.35,1.35,0,0,0-.9,1.25,38.66,38.66,0,0,0,4.5,2.23C144.79,49.3,145.21,48.06,145.21,46.64Z"/>
      <path class="c" d="M145.41,34.63V33.56c-.69.17-.14,0-.9,0-1.31,0-3.8.17-4.49,1,0,0,4,.91,4.35.91A1,1,0,0,0,145.41,34.63Z"/>
      <path class="c" d="M138.15,31.74c-.21.09-.69.41-.69.83,0,1,2.42.66,4.84,0a6.93,6.93,0,0,1,0-2.07c0-1.74-2.42.09-2.42-1.91-.76,0-2.21-.58-2.42-1.24-.69.09-1.59.42-1.59,1.24C135.87,30.24,137.32,30.74,138.15,31.74Z"/>
      <path class="c" d="M134.7,23.45h1.18V21.8a21.86,21.86,0,0,0-2.43,0C133.45,22.79,134.28,23,134.7,23.45Z"/>
      <path class="c" d="M143.47,21.8A4.17,4.17,0,0,1,141.4,21h-1c.2,2.4,1.66,2.64,4,2.64-.41.66-.9.75-1.59,1.08,0,.49.07.83.55.83s.76-.33,1.45-.66c.21.49.28,1.08,1,1.08s1-.66,2.07-.66a8.77,8.77,0,0,1,2.84.66c-1,.24-5.25.08-5.25,1.65,0,1.24,1.93,2.08,3.11,2.08a1.34,1.34,0,0,1-.9.57c.14,1.16,1.66,1.49,2.76,1.49s1.66-.42,1.66-1.9c.62.5,1.87,1.57,2.49,1.49V30.24h1.24a11.54,11.54,0,0,0-.9-1.65c.35-.41.49-.83.83-1.24.21.91.21,1.66,1.11,1.66s1.87-2.49,3.25-2.65c.55-.08,1.32.08,1.59-.42.21-.33.07-.66.07-1.24-.9-.09-2.7-1.08-3.39-1.08-.14,0-1.18.75-1.18,0,0-.5.49-.66.49-1.24s-.83-.66-.83-1.24c0-1,.07-1.41-.9-1.41h-.69l.34.58v1.07h-.83c-.62-.74-.21-1.82-1.24-2.32s-1.73.33-2.76-.16-.83-2.9-2.21-3.56a12.91,12.91,0,0,0-4.36-.91c.07,1.16,1.25,1.24,2.07,1.74h-1.17c-1.25-.33-1.8.17-2.63.75,0,.08.63,1.32.9,1.32s1.25-.5,1.94,0c-.21.25-.35.83-.76.83s-.9-.57-1.87-.57c-.61,0-1.58-.09-1.58.83s2.14,1.49,3,1.82C144.1,21.13,143.75,21.8,143.47,21.8Z"/>
      <path class="c" d="M168.71,93c-.35-.33-.14-.91-.48-1.49-1.25-2-3.46-1.16-4.91-3.32a2.22,2.22,0,0,0-.62.67,12.47,12.47,0,0,1-1-2.33c-1.94.25-2.28,3.56-2.28,5V92.8c0,.49-.34.75-.69,1.08-.14.41-1,.25-1,1.65a7,7,0,0,1,3,0c-.14.83-.35,1.66.48,1.66.35,0,.35-.24.56-.66,1,.49,3.25-1.24,3.25-3.07a30.23,30.23,0,0,1,2.63,2.08h1.87a3.58,3.58,0,0,0,2.28-.91C171.07,93.62,169.82,94,168.71,93Z"/>
      <path class="c" d="M181.85,79.38c0-2.74-4.28-3.32-4.28,0a1.73,1.73,0,0,0,1.72,1.82C180.12,81.2,181.85,80.45,181.85,79.38Z"/>
      <path class="c" d="M166.3,97.77c-.07.49-1,1.24-1.52,2.07v1.07c1.11-.16,2.83-1.82,3.46-2.81C167.4,97.68,167.68,97.68,166.3,97.77Z"/>
      <path class="c" d="M173.77,57.84c1.17,0,1.79-.83,2.56-.83s1.18.58,2.08.58c.62,0,1-.58,1.24-1.33-1.24-.75-2.83-2.56-4.7-2.56-1.45,0-1.93-.66-3.45-.66a1.18,1.18,0,0,0-1.18,1.25c0,.91.76,1.32,1.39,1.74C171.2,57.42,172.38,57.84,173.77,57.84Z"/>
      <path class="c" d="M172.17,102.57c.69,0,.83-1.16,1.25-1.82-.69-1-2.28-.91-2.28.58A8.31,8.31,0,0,0,172.17,102.57Z"/>
      <path class="c" d="M184.83,78.79c-.21-.32-.76-1.33-1.38-1.33-.14,0-.9.58-.9.83,0,.49.41.66.9.66A2.85,2.85,0,0,0,184.83,78.79Z"/>
      <path class="c" d="M175.14,72.66c-.83,0-2.42,1.9-1.59,1.9S174.94,73.66,175.14,72.66Z"/>
      <path class="c" d="M190,65c.21-1.41-1.52-1.66-2.27-1.66H186c-2.28,0-2.76-2.82-4.29-4.14-.9-.75-3.87-1.25-5.19-1.25s-1.59,2.07-2.76,2.07c-.62,0-.83-.82-1.59-.82s-1,.82-1.38.82,0-1.33,0-1.65c0-1.83-1-4.72-2.76-4.72-2.77,0-7.4,1-7.4,4.14,0,.82.69,1.41.69,2.23a2.21,2.21,0,0,1-1.38,1.66c-.83,0-.69-.75-.69-1.41a4.94,4.94,0,0,1,0-1.5c-.35,0-.55-.33-.55-.83,0-2.4,2.28-2.57,3-4.31-.07,0-2.28-.83-2.28-.83-2.35,0-4.15,1.41-5.53,3.06-.28.33.07,1.83-.48,2.32-1,.91-1.38,1.41-1.38,3.72a6.25,6.25,0,0,0,1,2.24s3.18.33,3.8.83v1.08c-1.18-.16-2.22-.67-3.11-.25.14,1.16,1.17,1.32,1.52,2.48h3.32C159,69,160.07,70,160.62,70c3.11,0,8.37-.25,10.51,0-.07.57-.35,1.9.55,1.9,1.24,0,2.35-3.15,3.25-3.15s4.49,3.81,5.12,4.56c-.42.08-1.66.25-1.66,1.07,0,.16.28,1,.55,1,.9,0,1.31-1,2.21-1,1.45,0,5.88,4.06,5.88,6.22,0,1.16-1.45,3-2.07,3.72-.48.58-1.73-.17-1.73,1.25,0,.66.9,1.49,1.24,1.73a6.7,6.7,0,0,1-3.11,1.16h-3c-1,0-2.76,1.41-2.76,2.24,0,1.16,2.21,2.32,3,2.32s1.25-1.25,2.08-1.25c.62,0,.48.58,1.17.58s1-.66,1.38-1.24c2,1.41,3.11,3,5.39,4.15-1.17,2.65,3,2.57,4.64,3.72s3,.75,5,1.9c.21.09.34,1,.69,1s.69-.42.69-1c0-2.31-3.87-4.05-5-5.79h1c.76,1.16,5.19,3.14,6.43,3.31a17.21,17.21,0,0,0,1-3.31c0-.91-1.24-1.32-1.24-1.9a5.1,5.1,0,0,1,0-1.66h-1.18c-.14-1.41-.62-.42-1.93-1-.56-.25-1.39-2.08-1.52-3.15h-.9V86.17c.28.25.62.17,1,0v-1c-.62.17-.76.25-1.38-.16.07,0,1-.91,1.38-.91,3.32,0,3.46,5.63,6.91,5.63.76,0,.9-1.41.9-2.32,1.31,0,1.53-.74,1.53-1a5.05,5.05,0,0,0,0-1.08c.9,0,2.07-.33,2.07-1.4,0-1.32-.56-1.91-1.87-1.91a1.55,1.55,0,0,1-1.24-.41c-.55-1.58-.89-.42-2.42-.42-1,0-1.38-1.41-1.52-2.9-1.45-.17-3.31-1-3.46-2.9a3,3,0,0,1-1.94-.66c.62-1.24,1.18-1.24,2.28-1.91a1.19,1.19,0,0,0-1-.75,11.45,11.45,0,0,1-2.07-.17c.55-1,1.45-.91,2.42-1.16-.42-1.16-1-2-1.94-2h-1.18V67.36C192.92,67.11,191.88,65.78,190,65Z"/>
      <path class="c" d="M175.28,96.28c.69.66.9.66,1.59,0C176,95.78,176,95.2,175.28,96.28Z"/>
      <path class="c" d="M163.74,86.17a1.36,1.36,0,0,0,1.38,1.32C164.64,86.75,164.64,85.67,163.74,86.17Z"/>
      <path class="c" d="M151.08,12.68h2.07a4.08,4.08,0,0,0-1.93,1.41,3.75,3.75,0,0,0,1.24.66c1.31,0,1.39-1.49,2.77-1.49a4,4,0,0,1,1.38.17c-1.8.66-3.53.41-4.29,2.56.56-.08,1.94,0,3.25,0a3.11,3.11,0,0,0-1.87.91,5.7,5.7,0,0,0,3.81,1.74,2.4,2.4,0,0,0,1.52-.83h.9c-.42,1.08,1.38,1.66,2.77,1.66.55,0,.83-.83,1.38-.83s1.11.67,2.42.67a7,7,0,0,0,5.19-1.91h1c-.83,1.24-2,1.65-3.32,2.32H166c-.14.25-.49.5-.49.83,0,.5,2.21,2.15,2.56,2.56-1.94.25-2.56-2.14-4.29-2.81a9.38,9.38,0,0,0-3.67-.16c-.34,0-.69-.17-1,0,.14.66.27,1,1,1-.69,0-1.72-.16-1.72.66,0,1.49,4.7,1.49,4.7,4.14,0,2.32-2.08,1.57-3.8,2.24-1,.41-1.52,1.32-2.08,2.73v1h1a1.91,1.91,0,0,1,.7-.58h1c0,2,2.14,3,3.11,4.14H161.8c-1.32-.91-2.08-2.32-4.29-2.32-.69,0-1.73-.33-1.73.83,0,1.49,1.45,1.74,2.29,2.48-1.45,1.24-5.05,0-5.05,3.32a.68.68,0,0,0,.69.66c.35,0,.62-.42.83-.83,2.42.91,4.29,1.65,6.56,1.65,1,0,1.46-.82,2.07-.82h5.19c1.38,0,.69,1.25,2.28,1.25s5.53-1.5,5.53-2.9c0-.74-.83-.66-1-.66h-1.73c0-2.82,2.9-1.24,2.9-3.89,0-.5-.34-.66-.49-1.24h3.46c1.17-1,1.66-3,3.12-3.8-.42-1.17-1.18-1.5-2-2,1.31.16,2.14.33,2-1.49h-1.94c1.11-1.08,2.83-1.25,4.36-1.83,1.1-.41,2.63.58,3.59-.25,2.07-1.81,3.67-5.13,6.43-6.21,2.49-1,6.36-2.16,8-4.06-1.73-.09-4.5.58-5.19-.25,3.66-2.14,7.06-.66,9.82-3.15.49-.41,1.73-.16,1.73-1.24,0-1.49-3.67-1.08-4.49-2.08-.42-.49-.42-1.16-1.18-1.4a4.7,4.7,0,0,1-1.25-.66l-5.53,1.9A2.17,2.17,0,0,0,198,5.55c-1.38-1.66-7.33-1.41-9-1.41H187c-.63,0-1-.58-2.07-.58S183.72,5,182.75,5s-1.38-1-2.63-1a.94.94,0,0,0-.83.58h-7.95a1.56,1.56,0,0,0-1.59,1.07c-.9.91-.21.16-1.38.16-2,0-2.84,1.74-3.45,3.73-.62-.25-3.32-1.82-4.64-1.82s-.55,1.82-2.76,1.82a.67.67,0,0,1-.56.67h-1.52c-2,0-6.5,1-6.92,3.06H150A4.54,4.54,0,0,1,151.08,12.68Z"/>
      <path class="c" d="M286.13,68.85c-1.45-.58-7.61-.24-7.61-2.73C278.86,66,280,65.78,280,65s-.69-.91-.69-2.07c.34.25.69,0,1,0,2.83,0,2.15,4.14,5.4,4.14.76,0,1.87-.08,1.87-1,0-4.73-4.43-6.13-6.92-9.11V55.76a2.75,2.75,0,0,0,.9,0c.42,1.57,2.56,3.73,3.81,3.73.83,0,1-1.33,1-2.32,0-2.24-3.11-1.49-3.8-3.73h1a6.94,6.94,0,0,0,2.08,1.91c.55-1.74,3.32-.67,3.8-3.15a1.43,1.43,0,0,1-.69-1.25A3.61,3.61,0,0,0,292,48.73c-.83-.34-2.77-.26-2.77-1.66,0-1.08,1.11-1.08,2.21-1.08-.35-.49,0-1.16,0-1.82,0-1.24-1-1.74-1-3.56-1,0-2.21,0-2.21-1.41a1.4,1.4,0,0,1,1.38-1.24c1.25,0,4.85.74,4.85-1.24s-2.7-1.57-3-2.9a2.37,2.37,0,0,0,1.24-.5,4.49,4.49,0,0,0-2.77-1.57c-.76,0-1.31.42-2.07,0,.41-.83.34-2.81,1.17-3.56,1.31-1.16,2.77-1.74,2.77-3.48a6.26,6.26,0,0,0,0-1.24c1.31-.42,3.11-.75,3.11-2.08,0-.83.48.08,0-1.07C296.15,20,298,20,298,17.65c-.55.49-.62.49-1.45,0,3.11,0,4.56-2.4,6.85-3.31.41-.17,1.73-.91,1.73-1.91s-3.25-2.9-4.15-2.9c-.69,0-1.18.08-1.38,1.08h-3.32a20.94,20.94,0,0,1-2.56,1.66,6.75,6.75,0,0,1-1.59-.24h-4.63c-1.11,1-4.61,6.46-6.4,7,.21-.82,4.67-6.46,4.67-7.2,0-1.25-.48-2.48-1.73-2.48-2.29,0-6.41,4.72-8.13,4.72-.56,0,2.46-3.49,2.6-4.15-1.24-.57-12.83,1.08-14,0l15.18-1c1.87-.83,6.57-.42,6.92-3.32-1.73-.5-4.15.08-6-.82C277.34,3.15,274.3,0,270.23,0h-10c-3.52,0-6.22,2.32-9.54,2.32a15.17,15.17,0,0,0-2.77,0v1H246.5a9.33,9.33,0,0,0-4.28-.58,11,11,0,0,0-5.88,1.65c.35.59.9.67,1.38,1.25-.62.16-2.76-.24-2.76,1,0,1.58,2.84,2.66,3.94,3.31h-3.11C234.06,9,232.4,7,229.56,7c-.69,0-1.72.08-1.72,1.07a5.91,5.91,0,0,0,.55,1.82h-1c-1.39-.66-2.56-.49-3.32-2.06l-.69.83c0,.58.35,1.07.35,1.66-1.31,0-1.66-2.49-2.91-2.49-1.87,0-3.25,1.32-5.18,1.9-2.63,0-3.66.83-6.43,1.24-2.21.33-.35,4.15-2.77,4.15a2.47,2.47,0,0,1-1.8-.67,19.74,19.74,0,0,1-6.85,4.55c-.35.08-1.38.5-1.38,1.25,0,1.57,3.94,1.49,5.19,1.66a5.27,5.27,0,0,1-1.87,4.39c-1.52,1.07-4-.17-5.88.58-1.31.5-2.08,1.41-3.32,1.91-1.52.59-3.94-.33-3.94,2.24,0,1.33,6.64,3.56,6.91,3.56h2.42c.35,0,.55-.41.7-.82h2.77c-.21.91-.21,1.24-.9,1.82h-3.94c-.34.58-.56.66-1.24.66h-1.73c-.55,0-1.94.5-2.08,1.65,1.32.58.9,0,2.42,0,.83,0,1.66.91,2.77,1.4-.27.75-.76.83-1.38,1.33.82,1.24,3,2,4.49,2,.55,0,.48.25.9-.24a2.6,2.6,0,0,1-.69-.67,2.64,2.64,0,0,1,1.38-.32c.83,0,1.45.66,2.07.66.9,0,1.31-1.08,2.21-1.08h2.07c7.75,0,12.58,7.21,14.52,14.34v1.24c.63.09,1.73.17,1.73,1.41,0,1.9-1.52,1.74-1.52,3.56,0,1.24.62,1.41,1.86,1.41.9,0,1.11-1.41,1.73-1.41,2.29,0,2.9,3.89,5,4.72-.07.51,0,1.25-.69,1.25-1.66,0-2.7-1.25-4.15-1.25-.62,0-.55-.33-1.25,0,.28,2.33,5.33,2.74,7.47,3.56-.62,2.32-1.66,3.15-2.07,5.64-1-.5-1-.41-1.94.17v.17c-1.38,1.32-1.8,3-2.77,4.55v1.91a1,1,0,0,1,1.38,0c-.21.83-.69,1.24-.69,2.06,0,2.24,1.87,3.15,2.28,4.73a13.57,13.57,0,0,0,.69,2.73c1.17.74,1.52-1.32,2.56.25-.48.58-1,.49-1,1.57,0,2.4,2.63,6.14,4,7.46.21.16.07,1.32.48,1.65,1.11,1,1.8.42,2.29,2.32.83-.09,1.94-1.08,2.9-1.08,1.73,0,1.6,3.73,3.32,3.73.42,0,.55-.5,1.38-.59.14.5.35.83.83.83,1.86,0,1-4.31,2.62-5.22-.14-.91,0-3.06,0-4.55,0-2.41,3.25-1.49,3.25-4.31,0-.91-.83-1.33-.83-1.91,0-.41.27-.67.48-1,0-.25-.14-.58-.14-.83,0-2.74,3.73-2,5.18-3.73.62-.74.35-1.58,1.39-2.08V86h1c1.45-1.24,3.8-.83,5.18-2.49,1-1.24,1.11-2.89,2.42-4.14l1.73-1.5c0-.66.69-.91,1.38-1.4h3.25c2.63-1.33,4.63-1.08,7.13-2.07,2-.75,2.7-3.07,5-4A7.08,7.08,0,0,0,286.13,68.85Z"/>
      <path class="c" d="M223.2,72.5h1.52c1.17,0,2.62-.25,2.76-1.66-1.8-.66-2.35-2.9-4.15-2.9a1.51,1.51,0,0,0-1.52,1.66C221.82,70.59,222.58,72.41,223.2,72.5Z"/>
      <path class="c" d="M293.18,44.74c-.2.25-.69.59-.69,1.08s.42,1.25.9,1.25c.69,0,1.87-1,2.21-1.25h-1.17V44.74Z"/>
      <path class="c" d="M220.3,137.29c0-.33-.21-.83-.48-.83-1.11,0-1.53,1.41-2.08,2.48-1,1.91-1.8,5.64-3.74,6.79a.62.62,0,0,0,.55.42v.49c0,.08-1.24,1.25-1.24,1.57s.34.83.69.83c.83,0,1.11-.49,2.14-.49.76,0,1.17.58,2.08.58a3,3,0,0,0,1.38-.41c.35.82,1.25.33,1.94.33-.2.5-.76.5-.76,1.33,0,.16.28,0,.42,0,.83,0,1.46-1.24,2-2.25.55.67.14,2.25.69,2.25.21,0,.35.16.55.16,0,.33.14,1,.63,1,.69,0,1.1-1,1.1-2,0-.82-.48-.75-.48-1.74-.42.32-.21.49-.9.49,0-.58-.48-.91-.48-1.32s.62-.5.69-1.25a1.1,1.1,0,0,0-.76.25c0-1.24.07-2,.07-2.73a2.68,2.68,0,0,1-2,0l-.83.33v-.41h-1.24v-.75l.35-.4a1.34,1.34,0,0,0-1.11-.42c-.48,0-.48.5-1,.66v-.74C218.84,140,220.3,139.12,220.3,137.29Z"/>
      <path class="c" d="M602.81,47.07c.69,0,1-.75,1.52-1.25.35.5.63.82,1.25.82s1.1-.66,1.52-.66.83-.58,1.38-.58.76.83,1.25.83c.82,0,1.17-.83,1.72-.83h1.87c0-.66,1-1.57,1.24-2.73-1.44-.49-5.53-2.23-6.77-2.23-.83,0-1.17,1-1.17,2.23-1.87,0-2-2.65-4.15-2.65a3.35,3.35,0,0,0-3.11,3.31A3.73,3.73,0,0,0,602.81,47.07Z"/>
      <path class="c" d="M170.45,133.15c.07,0,.34.07.34,0,0-1.16-1.17-1.41-2.35-1.41a.8.8,0,0,1,0,.58A3,3,0,0,0,170.45,133.15Z"/>
      <path class="c" d="M80.62,143.75c1.11.83,3.52,3.06,5.11,3.06h.62v-.75c-1.8-2.15-3.46-4.14-6.43-5.3-.49-.17-1.1-1.16-1.87-1.16a2.17,2.17,0,0,0-1,.41h.28s.69.25,1,.34a1.38,1.38,0,0,1-.69.74c.27,1,2.21,1.83,3.59,1.83C81.11,143.18,80.76,143.18,80.62,143.75Z"/>
      <path class="c" d="M70.25,132.49c0-.42-.34-.59-.34-1a7.68,7.68,0,0,0,0-1.82c-.13.41-.41,1.07-.9,1.07s.41-.9.41-1c-.62-.08-1-.58-1.59-.58v.67c.28.5.56,1.49.83,1.49s.56.92,1.11,1.08c0,.16-.28.42-.28.91,0,.66.41,1.57,1,1.57s-.55-1.24-.55-1.57S70.25,132.82,70.25,132.49Z"/>
      <path class="c" d="M25.58,117.9v1A16.85,16.85,0,0,1,27,120a13.1,13.1,0,0,1,2.7-2.33v-1H28.9C27.66,116.66,26.76,117.49,25.58,117.9Z"/>
      <path class="c" d="M359.43,175.77c-1-.25-1.46.55-2.36.55s-1.6-1.08-3-.26v.59c.21.41.76.33,1,.41,1.11.41,2,1.83,3.18,2.16,0,.25.35.34.55.34s.42-.34.42-.58c0-.66-.35-.74-.35-1.33a2.51,2.51,0,0,1,.35-.91Z"/>
      <path class="c" d="M347.73,166.54c.21-.5.41-2.32.62-3.31-.21-.09-.28-.5-.28-.92-.34.08-.62.83-1.1.83-.14,0-.35.17-.48.17C346.84,164,347,166.37,347.73,166.54Z"/>
      <path class="c" d="M346.7,169.94c0,.58-.34,1-.42,1.66s0,1.73.69,1.73a2.69,2.69,0,0,0,1.81-2.32,6.6,6.6,0,0,0-.43-3.39c-.21,0-.42-.49-.9-.49s-.69.82-1.45,1.08C346.08,168.85,346.7,169.26,346.7,169.94Z"/>
      <path class="c" d="M336.33,171.76c0-.25-.35-.75-.35-.91a3.27,3.27,0,0,0-1.1.58c.07.08.62.74.9.74S336.33,172,336.33,171.76Z"/>
      <path class="c" d="M351,124.86c0-.84-.48-.67-.48-1.66h-1.32V124c0,.84.76,1.08,1.59,1.08v.66C350.85,125.35,351,125.52,351,124.86Z"/>
      <path class="c" d="M351.81,125.69l-.13-.34a1.73,1.73,0,0,0-.35.42,1.5,1.5,0,0,0,1,.5c1.52,0,1-2.9,2.14-3.32-.34-1.4-.42-2.15-1.8-2.15-.48,0-1.32,2.15-1.32,2.49,0,.49.76,1.15,1.45,1.33A1.32,1.32,0,0,1,351.81,125.69Z"/>
      <path class="c" d="M366.68,114.75c-1.24.09-1.59,1.58-1.59,2.07s-.21.75,0,1.08c.49-.75,1-1.16,1-2.07C366.13,115.41,366.54,115.08,366.68,114.75Z"/>
      <path class="c" d="M372.91,114.34c.27,0,1.17-.59,1.17-.83v-1a2.2,2.2,0,0,0,.56-1.08,2.45,2.45,0,0,1-.76-.83s-.62.42-.62.83.27.67.48,1c-.55.09-1,.58-1.52.66C372.21,113.6,372.28,114.34,372.91,114.34Z"/>
      <path class="c" d="M380.85,183.77a8.35,8.35,0,0,0-4.36-.49,5.75,5.75,0,0,0,2.63.66C379.61,183.93,380,184.35,380.85,183.77Z"/>
      <path class="c" d="M397.17,182.28a17.32,17.32,0,0,0-4,1.65c0,.16.21.42.34.42a.48.48,0,0,0,.48.41c.63,0,1.94-.41,2.15-.91.06-.26-.08-.74.13-.83C396.69,182.77,397,183.11,397.17,182.28Z"/>
      <path class="c" d="M434.93,241.68c.55,0,1.11-.66,1.24-1a4.69,4.69,0,0,0-2,.41A.82.82,0,0,0,434.93,241.68Z"/>
      <path class="c" d="M424.42,71.67a5.54,5.54,0,0,0-.9,1.9c0,.83.4,1,1.24,1,1.17,0,2-.83,2.9-1.4V72.08c-1-.16-1.45-1.24-2.42-1.24C424.9,70.84,424.77,71.67,424.42,71.67Z"/>
      <path class="c" d="M444.26,68.19c0,1,1.52,2.07,2.42,2.07,0,0,.9.16.9-.42C447.58,68.19,444.26,66.53,444.26,68.19Z"/>
      <path class="c" d="M469.7,54.85c-.69-.66-.89-1.58-1.72-1.58-.62,0-1,.92-1,1.66,0,.25-.2.83,0,.83A6,6,0,0,0,469.7,54.85Z"/>
      <path class="c" d="M609.87,54.1h2.07a3.28,3.28,0,0,0-3.25-3.31c-1.59,0-2.49,1.17-3.32,2.48l.35-.41C607,53.44,608.62,53.27,609.87,54.1Z"/>
      <path class="c" d="M623.55,46.81c1.11,0,3.11-.32,3.11-1.24a.78.78,0,0,0-.69-.83c-.27,0-7.54-1.07-8.16-1.65l.69.66C618.51,45.82,621.76,46.81,623.55,46.81Z"/>
      <path class="c" d="M607.1,49.71a.93.93,0,1,0-1.86,0c0,.75.06,1.08.83,1.08A1.06,1.06,0,0,0,607.1,49.71Z"/>
      <path class="c" d="M208.13,144c-1.45-1-2.77-2.56-4.91-2,.83.74,2.83,2.48,3.94,2.48C207.71,144.49,207.92,144.42,208.13,144Z"/>
      <path class="c" d="M203.84,151a.73.73,0,0,0-.28.58c0,.58,2.56,2.16,3,2.16.14,0,.83-.42.83-.91v-.5h-2.07A2,2,0,0,1,203.84,151Z"/>
      <path class="c" d="M211.8,153.69v-.58c-1.59,0-.55-.5-.55-1.25,0-.33-.35-.5-.49-.83-.62.24-1.59,2.32-1.59,2.82s.42.91,1.11.91S211.8,154.27,211.8,153.69Z"/>
      <path class="c" d="M3,108c-.55,0-.77-.16-1,.58H.9c.14.33.55.59.83.83H4C3.87,108.54,3.8,108,3,108Z"/>
    </g>
  </g>
</svg>
