<svg 
 xmlns="http://www.w3.org/2000/svg"
 xmlns:xlink="http://www.w3.org/1999/xlink"
 width="1716.5px" height="381.5px">
<path fill-rule="evenodd"  stroke="rgb(255, 255, 255)" stroke-width="1px" stroke-linecap="butt" stroke-linejoin="miter" fill="none"
 d="M275.499,196.393 C277.405,197.087 278.499,197.393 278.499,197.393 L278.499,200.395 C278.499,200.395 278.343,202.203 276.499,202.396 C274.656,202.590 275.842,201.702 273.499,200.395 C271.156,199.088 272.093,198.701 271.499,198.394 C270.905,198.087 269.499,195.392 269.499,195.392 C269.499,195.392 267.343,195.949 265.499,195.392 C263.655,194.835 264.499,191.390 264.499,191.390 C264.499,191.390 265.343,190.696 266.499,189.389 C267.656,188.082 270.499,191.390 270.499,191.390 L269.499,193.391 L271.499,195.392 C271.499,195.392 273.593,195.699 275.499,196.393 ZM244.499,188.388 C245.406,187.331 246.093,187.694 248.499,186.387 C250.905,185.080 251.593,185.443 254.500,183.385 C257.405,181.327 256.593,182.441 259.499,180.383 C262.406,178.326 260.843,179.690 265.499,178.382 C270.155,177.075 267.843,178.189 270.499,178.382 C273.156,178.576 270.093,179.940 269.499,181.384 C268.905,182.828 267.593,182.191 265.499,183.385 C263.405,184.579 263.843,184.442 260.499,185.386 C257.156,186.331 260.343,186.694 256.500,191.390 C252.656,196.086 255.593,191.947 253.499,193.391 C251.406,194.835 252.843,193.448 251.499,194.392 C250.156,195.336 250.593,194.448 248.499,195.392 C246.405,196.336 247.093,194.949 243.499,193.391 C239.906,191.834 242.843,192.447 242.499,190.389 C242.156,188.332 243.593,189.446 244.499,188.388 ZM314.499,205.398 C314.499,205.398 314.093,207.206 313.499,209.400 C312.905,211.595 312.499,210.401 312.499,210.401 C312.499,210.401 311.593,210.958 309.499,212.402 C307.405,213.846 307.843,213.459 305.500,214.403 C303.156,215.347 303.093,214.960 301.499,215.404 C299.906,215.848 296.843,211.458 293.499,210.401 C290.156,209.344 291.843,210.708 287.499,211.402 C283.156,212.095 286.093,211.959 281.499,211.402 C276.906,210.845 279.843,208.707 277.499,207.399 C275.156,206.092 278.343,207.706 282.499,207.399 C286.656,207.092 287.343,207.706 292.499,208.400 C297.655,209.094 298.093,208.956 301.499,209.400 C304.905,209.844 303.093,209.457 305.500,208.400 C307.906,207.343 305.093,206.705 302.499,203.397 C299.906,200.089 304.093,201.953 305.500,200.395 C306.905,198.838 306.343,199.701 308.499,198.394 C310.655,197.087 310.093,198.450 312.499,198.394 C314.905,198.338 314.499,202.396 314.499,202.396 L315.499,204.397 L314.499,205.398 ZM1646.499,243.420 C1645.381,250.887 1713.499,378.499 1713.499,378.499 L1086.499,372.495 L9.499,324.467 L2.499,133.356 L40.499,135.357 C40.499,135.357 47.392,132.996 50.499,134.357 C53.606,135.718 60.499,136.358 60.499,136.358 L64.499,137.358 C64.499,137.358 64.892,136.998 68.499,138.359 C72.106,139.720 75.892,140.000 77.499,139.360 C79.106,138.720 79.499,138.359 79.499,138.359 C79.499,138.359 84.892,133.996 81.499,133.356 C78.325,132.757 75.841,131.528 75.533,131.372 C75.665,131.445 76.036,131.715 73.499,131.355 C70.981,130.998 70.576,131.260 70.512,131.336 L72.499,128.353 L74.499,127.353 L72.499,126.352 L68.499,125.351 L65.499,125.351 L65.499,123.350 L63.499,120.349 L58.499,119.348 C58.499,119.348 56.733,120.427 56.499,118.347 C56.265,116.268 57.499,116.346 57.499,116.346 C57.499,116.346 59.399,115.591 60.499,116.346 C61.599,117.102 61.733,117.091 62.499,117.347 C63.265,117.602 63.733,118.426 66.499,118.347 C69.266,118.269 68.566,118.926 71.499,118.347 C74.432,117.769 74.400,117.592 76.499,117.347 C78.599,117.102 79.733,118.259 79.499,116.346 C79.265,114.434 78.733,113.756 76.499,113.344 C74.265,112.932 74.066,112.589 71.499,112.344 C68.932,112.099 62.067,112.756 60.499,112.344 C58.932,111.932 55.499,111.343 55.499,111.343 C55.499,111.343 54.900,110.755 54.499,109.342 C54.099,107.930 53.499,106.340 53.499,106.340 C53.499,106.340 52.400,104.417 54.499,104.339 C56.599,104.261 56.900,102.083 57.499,104.339 C58.099,106.596 57.066,104.918 58.499,106.340 C59.932,107.763 58.233,106.252 60.499,107.341 C62.766,108.430 58.900,107.586 63.499,108.342 C68.099,109.097 66.566,109.421 69.499,109.342 C72.432,109.264 73.066,109.421 74.499,109.342 C75.932,109.264 76.900,107.753 79.499,108.342 C81.559,108.808 84.715,109.159 85.951,109.287 C85.364,109.262 84.736,109.378 86.499,110.343 C89.099,111.765 86.400,112.088 90.499,112.344 C94.599,112.599 93.899,111.922 95.499,112.344 C97.099,112.766 96.733,112.255 99.499,112.344 C102.265,112.432 104.400,112.589 105.499,112.344 C106.599,112.099 106.067,112.255 108.499,112.344 C110.932,112.432 111.499,112.344 111.499,112.344 C111.499,112.344 114.233,111.421 112.499,110.343 C110.765,109.264 109.066,107.753 107.499,106.340 C105.932,104.928 103.499,103.339 103.499,103.339 C103.499,103.339 102.567,101.416 103.499,101.338 C104.432,101.259 102.899,99.748 105.499,101.338 C108.099,102.927 106.399,102.583 108.499,103.339 C110.599,104.094 111.499,104.339 111.499,104.339 C111.499,104.339 110.399,103.250 113.499,105.340 C116.599,107.430 114.066,105.251 117.499,108.342 C120.932,111.432 122.499,112.344 122.499,112.344 C122.499,112.344 123.066,113.590 124.499,113.344 C125.932,113.100 127.900,112.422 128.499,112.344 C129.098,112.266 127.733,110.254 129.499,109.342 C131.265,108.430 131.566,107.586 132.499,107.341 C133.432,107.096 134.733,105.918 136.499,106.340 C138.265,106.763 137.400,108.253 138.499,106.340 C139.598,104.428 138.066,104.918 139.499,104.339 C140.932,103.761 139.733,101.749 141.499,103.339 C143.266,104.928 145.733,104.084 144.500,105.340 C143.266,106.596 141.899,106.752 141.499,107.341 C141.099,107.930 139.233,107.252 140.500,109.342 C141.765,111.432 141.400,111.755 142.500,112.344 C143.599,112.932 143.566,115.757 144.500,113.344 C145.432,110.931 144.733,108.086 146.500,109.342 C148.266,110.598 147.566,111.088 149.499,112.344 C151.432,113.600 150.733,113.256 152.499,113.344 C154.265,113.433 156.499,111.343 156.499,111.343 C156.499,111.343 155.733,111.088 157.499,111.343 C159.265,111.599 160.733,110.254 161.499,112.344 C162.265,114.434 163.499,115.346 163.499,115.346 C163.499,115.346 166.142,115.291 166.500,115.346 C166.857,115.400 165.808,115.624 171.499,116.346 C177.190,117.068 180.308,117.459 180.499,117.347 C180.690,117.235 178.975,120.460 181.499,117.347 C184.024,114.233 185.499,115.346 185.499,115.346 C185.499,115.346 185.808,115.458 186.500,114.345 C187.190,113.232 185.975,113.457 187.499,113.344 C189.024,113.232 188.475,115.624 189.499,113.344 C190.524,111.065 189.499,109.342 189.499,109.342 C189.499,109.342 187.141,107.620 190.499,108.342 C193.857,109.063 194.308,108.454 195.499,109.342 C196.690,110.231 198.808,110.955 199.499,112.344 C200.191,113.733 199.142,112.789 201.499,114.345 C203.857,115.901 203.641,116.125 205.499,116.346 C207.357,116.568 208.308,116.792 208.499,115.346 C208.690,113.900 208.975,112.122 209.499,113.344 C210.024,114.566 211.499,116.346 211.499,116.346 C221.999,116.346 221.475,115.624 223.499,116.346 C225.524,117.068 228.308,116.625 229.499,116.346 C230.690,116.067 229.641,116.792 231.499,116.346 C233.357,115.901 233.975,114.790 235.499,114.345 C237.023,113.900 237.974,113.457 239.499,113.344 C241.024,113.232 241.308,113.457 243.499,113.344 C245.690,113.232 247.475,113.123 249.499,113.344 C251.523,113.566 254.808,113.790 255.499,113.344 C256.190,112.899 259.142,111.455 259.499,111.343 C259.857,111.231 262.499,109.342 262.499,109.342 C262.499,109.342 262.975,109.121 264.499,108.342 C266.024,107.562 267.641,107.787 268.499,106.340 C269.357,104.894 269.641,103.117 270.499,102.338 C271.357,101.559 270.642,102.116 271.499,100.337 C272.357,98.557 272.475,101.616 272.499,98.336 C272.524,95.055 274.641,94.279 272.499,92.332 C270.357,90.386 270.308,91.444 269.499,89.331 C268.690,87.217 268.141,88.942 268.499,86.329 C268.857,83.715 271.475,85.940 269.499,83.327 C267.524,80.714 268.808,83.606 266.499,79.325 C264.190,75.044 264.141,74.101 263.499,73.321 C262.857,72.542 263.475,72.266 263.499,71.320 C263.524,70.374 262.975,69.264 264.499,69.319 C266.024,69.374 265.308,69.431 266.499,69.319 C267.690,69.207 267.641,69.765 268.499,69.319 C269.357,68.873 268.642,69.097 269.499,68.319 C270.357,67.539 269.385,67.943 270.499,64.316 C271.614,60.689 271.185,60.538 272.499,60.314 C273.813,60.089 274.585,58.937 273.499,58.312 C272.413,57.687 270.499,57.312 270.499,57.312 C270.499,57.312 269.585,57.937 271.499,55.311 C273.414,52.685 275.185,53.934 272.499,52.309 C269.814,50.683 268.499,50.308 268.499,50.308 C268.499,50.308 268.785,46.931 269.499,47.306 C270.214,47.681 269.785,47.931 272.499,48.307 C275.214,48.682 275.785,49.932 275.499,48.307 C275.214,46.681 274.385,47.531 275.499,46.305 C276.614,45.080 273.585,48.531 276.499,45.305 C277.872,43.785 278.612,43.036 279.017,42.664 C279.184,42.692 279.499,42.303 279.499,42.303 C279.499,42.303 279.471,42.245 279.017,42.664 C278.843,42.634 278.829,42.151 279.499,40.302 C280.814,36.675 279.785,35.924 281.499,36.300 C283.213,36.675 281.985,36.725 284.499,35.299 C287.014,33.874 287.585,38.525 287.499,34.299 C287.414,30.071 287.185,29.320 288.499,29.296 C289.814,29.271 289.585,31.722 289.499,29.296 C289.414,26.870 289.499,26.294 289.499,26.294 C289.499,26.294 286.185,26.319 288.499,24.293 C290.814,22.267 287.985,21.316 291.499,22.291 C295.014,23.268 294.985,25.117 295.499,23.292 C296.013,21.466 292.585,22.917 296.499,21.291 C300.414,19.666 296.785,19.915 301.499,18.289 C306.214,16.664 308.384,16.113 308.499,14.287 C308.614,12.461 307.185,13.311 308.499,12.286 C309.814,11.260 307.785,10.109 310.499,10.285 C313.214,10.460 309.585,12.110 313.499,10.285 C317.414,8.459 315.585,10.509 317.499,8.283 C319.414,6.057 317.185,5.306 319.499,5.282 C321.814,5.257 319.585,5.506 322.499,5.282 C325.414,5.057 324.585,5.506 326.499,4.281 C328.414,3.056 328.499,3.280 328.499,3.280 C328.499,3.280 331.985,1.504 329.499,3.280 C329.482,3.293 329.469,3.302 329.452,3.314 C328.962,3.639 328.461,4.022 329.452,3.314 C330.121,2.870 330.759,2.542 327.499,5.282 C321.814,10.060 322.585,11.110 321.499,12.286 C320.414,13.462 320.585,10.709 320.499,13.287 C320.414,15.863 320.499,16.288 320.499,16.288 C320.499,16.288 317.185,15.512 316.499,15.287 C315.814,15.063 316.185,15.312 314.499,15.287 C312.813,15.262 313.185,14.512 311.499,16.288 C309.814,18.064 309.785,17.514 308.499,19.290 C307.214,21.066 311.185,20.315 307.499,21.291 C303.814,22.267 302.499,23.292 302.499,23.292 C302.099,24.693 301.985,23.317 301.499,25.293 C301.014,27.270 302.385,26.319 301.499,28.295 C300.614,30.271 299.499,31.297 299.499,31.297 C299.499,31.297 298.585,31.121 298.500,32.298 C298.414,33.473 296.985,35.124 300.500,35.299 C304.014,35.475 302.785,35.724 305.500,35.299 C308.214,34.874 310.785,34.323 309.499,35.299 C308.214,36.275 310.985,35.524 306.499,37.300 C302.014,39.077 301.185,38.525 299.499,38.301 C297.814,38.076 299.385,37.925 296.499,38.301 C293.614,38.676 293.785,37.725 292.499,38.301 C291.214,38.876 290.184,37.925 289.499,40.302 C288.814,42.679 288.184,41.928 288.499,43.304 C288.814,44.680 290.785,44.729 288.499,45.305 C286.214,45.881 284.784,45.330 283.499,46.305 C282.214,47.281 282.784,47.731 282.499,48.307 C282.214,48.882 283.385,47.931 282.499,49.307 C281.613,50.683 281.385,48.731 280.499,51.309 C279.613,53.885 280.185,51.533 279.499,54.310 C278.814,57.087 277.585,56.736 278.499,59.313 C279.414,61.890 277.185,60.538 279.499,62.315 C281.814,64.091 276.585,66.342 283.499,64.316 C290.414,62.290 286.784,57.937 290.499,62.315 C294.214,66.693 293.185,64.341 294.499,67.318 C295.814,70.295 294.785,66.942 296.499,70.320 C298.214,73.697 297.785,70.544 299.499,74.322 C301.214,78.099 300.985,77.948 300.500,80.325 C300.013,82.702 298.185,81.751 300.500,83.327 C302.814,84.903 301.185,84.352 304.499,85.328 C307.814,86.304 314.185,82.351 308.499,86.329 C302.814,90.306 302.499,91.332 302.499,91.332 C304.699,91.732 305.500,91.332 305.500,91.332 C305.500,91.332 309.585,92.757 305.500,93.333 C301.414,93.909 299.385,92.557 299.499,94.333 C299.613,96.110 298.385,95.759 300.500,96.334 C302.614,96.910 302.185,96.760 304.499,97.335 C306.813,97.911 309.585,94.358 307.499,98.336 C305.414,102.313 304.024,102.518 306.499,103.339 C308.975,104.159 309.023,100.517 309.499,104.339 C309.975,108.162 306.623,106.921 309.499,108.342 C312.375,109.763 313.823,107.721 312.499,109.342 C311.175,110.963 310.424,111.323 307.499,111.343 C304.575,111.364 304.024,112.924 303.499,111.343 C302.975,109.763 303.023,106.320 302.499,109.342 C301.975,112.364 298.424,111.724 301.499,114.345 C304.575,116.967 307.499,116.346 307.499,116.346 C307.499,116.346 309.023,116.126 307.499,117.347 C305.975,118.568 304.224,117.327 303.499,118.347 C302.775,119.368 301.624,117.927 302.499,119.348 C303.375,120.769 301.224,120.329 303.499,122.350 C305.775,124.371 308.424,124.131 306.499,125.351 C304.575,126.572 304.224,127.733 302.499,126.352 C300.775,124.971 298.424,122.530 298.500,124.351 C298.575,126.172 296.824,126.532 298.500,127.353 C300.175,128.173 301.624,126.532 300.500,128.353 C299.375,130.174 299.224,130.735 297.499,130.354 C295.775,129.974 294.824,126.532 293.499,128.353 C292.175,130.174 292.024,129.534 291.499,130.354 C290.975,131.175 290.424,129.334 290.499,131.355 C290.575,133.376 289.823,132.336 291.499,133.356 C293.175,134.377 297.023,136.738 293.499,136.358 C289.975,135.978 286.424,135.337 288.499,137.358 C290.575,139.380 292.223,137.538 291.499,139.360 C290.775,141.181 294.223,139.139 287.499,143.362 C280.775,147.584 287.823,145.943 280.499,148.365 C273.175,150.786 266.624,152.747 263.499,153.368 C260.375,153.988 262.024,152.147 256.500,155.369 C250.975,158.591 259.824,159.151 250.499,159.371 C241.175,159.591 237.624,159.952 228.500,159.371 C219.375,158.791 219.223,158.751 216.499,158.371 C213.775,157.991 212.623,157.550 212.499,158.371 C212.375,159.191 208.224,157.950 210.500,161.373 C212.775,164.794 200.423,163.153 214.499,166.375 C228.575,169.597 227.423,169.157 230.500,169.377 C233.575,169.597 240.424,180.964 196.499,171.378 C196.499,171.378 178.423,171.158 185.499,173.379 C192.575,175.601 201.624,176.561 203.499,177.382 C205.375,178.202 207.424,175.160 206.499,178.382 C205.575,181.604 206.023,181.564 202.499,182.385 C198.975,183.205 201.224,181.764 196.499,182.385 C191.775,183.005 194.224,184.766 190.499,183.385 C186.775,182.005 185.623,182.765 182.499,180.383 C179.375,178.002 177.023,176.161 175.499,175.381 C173.975,174.600 173.023,173.760 171.499,173.379 C169.975,172.999 166.624,171.759 168.499,174.380 C170.375,177.002 170.624,173.960 170.499,177.382 C170.375,180.804 167.423,176.361 170.499,181.384 C173.575,186.407 174.624,184.166 176.499,185.386 C178.375,186.607 177.424,186.567 179.499,187.388 C181.574,188.208 182.624,184.966 183.499,188.388 C184.375,191.810 185.424,191.770 186.500,193.391 C187.575,195.012 184.823,198.574 188.500,195.392 C192.175,192.210 192.500,191.390 192.500,191.390 C192.500,191.390 193.824,190.169 197.499,191.390 C201.175,192.610 197.223,193.171 204.499,193.391 C211.775,193.611 214.499,193.391 214.499,193.391 C211.699,197.994 213.423,197.173 211.499,198.394 C209.575,199.615 208.824,199.174 207.499,199.395 C206.175,199.615 205.424,198.974 203.499,199.395 C201.575,199.815 195.824,199.775 196.499,200.395 C196.565,200.455 196.602,200.491 196.629,200.517 C196.663,200.560 196.698,200.586 196.629,200.517 C196.541,200.407 196.496,200.209 198.499,201.396 C201.575,203.217 200.823,202.376 203.499,203.397 C206.175,204.418 203.224,204.778 207.499,204.397 C210.801,204.104 213.753,203.670 214.936,203.486 C214.591,203.710 214.399,204.391 215.499,206.399 C217.375,209.821 218.224,208.980 219.499,211.402 C220.775,213.823 219.023,212.382 221.499,214.403 C223.975,216.425 226.423,217.585 226.499,216.405 C226.575,215.224 225.224,213.583 227.499,214.403 C229.775,215.224 234.224,213.983 234.499,215.404 C234.775,216.825 230.224,216.384 235.499,216.405 C240.775,216.425 241.024,217.385 242.499,215.404 C243.975,213.423 246.499,212.402 246.499,212.402 C246.499,212.402 249.464,212.972 252.499,215.404 C255.534,217.835 254.864,218.976 257.499,219.406 C260.134,219.837 257.264,217.175 261.499,219.406 C265.734,221.638 263.265,219.576 266.499,222.408 C269.734,225.240 266.465,224.179 270.499,225.410 C274.534,226.641 271.064,223.779 276.499,226.410 C281.934,229.042 282.499,229.412 282.499,229.412 C282.499,229.412 285.064,226.980 281.499,231.413 C277.934,235.846 277.265,232.784 277.499,236.416 C277.734,240.049 275.265,238.387 278.499,240.419 C281.734,242.450 282.665,242.590 284.499,242.420 C286.334,242.250 288.265,241.989 290.499,241.419 C292.734,240.849 289.465,240.188 295.499,240.419 C301.534,240.649 305.865,238.987 302.499,240.419 C299.134,241.849 299.065,242.389 297.499,243.420 C295.934,244.451 293.464,244.391 295.499,245.421 C297.534,246.452 297.264,243.590 298.500,246.422 C299.734,249.254 297.264,248.793 300.500,250.424 C303.600,251.988 305.346,252.392 305.486,252.423 C305.378,252.400 304.581,252.283 303.499,253.426 C302.334,254.657 301.499,255.427 301.499,255.427 C301.499,255.427 300.465,255.397 304.499,256.428 C308.534,257.458 306.065,258.399 310.499,258.429 C314.934,258.459 313.064,262.601 317.499,258.429 C321.934,254.257 321.665,252.195 328.499,249.423 C335.334,246.652 338.264,243.590 343.499,242.420 C348.734,241.249 349.865,241.789 358.499,239.418 C367.134,237.047 370.065,236.786 374.499,236.416 C378.934,236.046 380.665,234.585 386.499,236.416 C392.334,238.248 396.065,234.385 394.499,238.417 C392.933,242.450 392.864,244.391 394.499,244.421 C396.134,244.451 398.865,245.791 400.499,244.421 C402.134,243.050 396.865,242.389 404.499,241.419 C412.134,240.449 412.664,241.389 413.499,239.418 C414.334,237.447 414.065,236.586 416.499,233.414 C418.934,230.243 421.065,230.382 423.499,227.411 C425.934,224.440 424.465,224.779 427.499,223.408 C430.534,222.038 431.665,220.977 434.499,220.407 C437.334,219.837 434.665,218.175 439.499,218.406 C444.334,218.636 443.265,216.574 447.499,217.405 C451.734,218.236 451.264,218.976 454.499,217.405 C457.734,215.834 455.865,215.974 459.499,213.403 C463.134,210.831 463.265,210.171 465.499,210.401 C467.734,210.631 466.465,210.971 472.499,210.401 C478.534,209.831 477.065,211.371 482.499,209.400 C487.934,207.430 484.265,209.370 489.499,207.399 C494.734,205.428 494.470,206.767 499.499,205.398 C504.529,204.029 501.870,202.965 507.499,203.397 C513.128,203.829 509.670,203.965 516.499,203.397 C523.329,202.828 518.670,204.165 524.499,202.396 C530.329,200.627 531.670,203.565 530.499,200.395 C529.329,197.225 530.070,196.761 527.499,196.393 C524.929,196.024 524.870,196.161 521.499,195.392 C518.128,194.624 523.870,193.759 515.499,194.392 C507.129,195.024 508.470,195.160 503.499,194.392 C498.529,193.623 497.270,193.960 495.499,193.391 C493.729,192.823 493.670,193.159 492.499,191.390 C491.329,189.621 491.270,187.756 489.499,187.388 C487.729,187.019 491.870,185.755 486.500,186.387 C481.128,187.019 479.870,188.156 477.499,188.388 C475.128,188.620 477.670,190.358 473.499,188.388 C469.329,186.419 470.270,186.155 467.499,185.386 C464.728,184.618 464.870,185.355 462.499,184.386 C460.129,183.417 460.470,184.754 459.499,183.385 C458.529,182.016 457.470,182.153 457.499,180.383 C457.529,178.614 454.670,181.152 457.499,177.382 C460.329,173.611 460.070,174.748 461.499,173.379 C462.929,172.010 458.470,174.348 463.499,171.378 C468.529,168.408 467.870,168.545 469.499,167.376 C471.128,166.207 470.470,167.144 471.499,166.375 C472.529,165.607 471.070,165.743 474.499,165.375 C477.928,165.006 477.270,164.542 479.499,164.374 C481.728,164.206 479.870,164.542 482.499,163.374 C485.128,162.205 486.500,161.373 486.500,161.373 C486.500,161.373 487.470,160.740 488.499,160.372 C489.528,160.003 489.070,159.140 491.499,159.371 C493.928,159.603 494.270,160.540 496.499,158.371 C498.372,156.548 498.509,156.376 498.505,156.367 L501.499,155.369 C504.099,155.369 503.070,157.338 507.499,155.369 C511.929,153.400 512.500,152.367 512.500,152.367 L515.499,151.367 L517.499,150.366 C517.499,150.366 516.870,148.933 518.499,149.365 C520.128,149.797 519.270,148.933 520.499,149.365 C521.728,149.797 524.499,149.365 524.499,149.365 L526.499,148.365 C526.499,148.365 526.470,148.133 528.499,147.364 C530.529,146.595 533.499,145.363 533.499,145.363 C533.499,145.363 532.870,144.130 536.499,144.363 C540.128,144.595 542.499,144.363 542.499,144.363 C547.699,144.563 547.670,144.731 549.499,143.362 C551.108,142.158 551.434,142.298 551.489,142.349 C551.278,142.353 551.499,142.361 551.499,142.361 C551.499,142.361 551.497,142.356 551.489,142.349 C551.673,142.346 552.182,142.347 553.499,142.361 C556.328,142.393 556.270,142.530 558.499,142.361 C560.729,142.193 558.870,143.730 560.499,142.361 C562.128,140.992 562.499,140.360 562.499,140.360 C562.499,140.360 561.077,135.864 562.499,134.357 C563.922,132.849 561.877,136.064 564.499,131.355 C567.122,126.646 565.477,127.059 567.499,125.351 C569.522,123.644 564.677,122.857 569.499,123.350 C574.322,123.844 572.677,122.857 576.499,123.350 C580.322,123.844 582.677,124.658 584.499,122.350 C586.322,120.042 591.477,119.655 587.499,118.347 C583.522,117.040 582.277,116.053 581.499,117.347 C580.722,118.641 578.499,118.347 578.499,118.347 C577.099,113.344 574.677,115.252 576.499,113.344 C578.322,111.437 579.499,110.343 579.499,110.343 C579.499,110.343 580.077,110.049 581.499,109.342 C582.922,108.635 580.277,105.647 583.499,108.342 C586.722,111.036 585.277,112.250 587.499,111.343 C589.722,110.436 590.277,109.449 590.499,108.342 C590.722,107.234 590.499,106.340 590.499,106.340 C590.499,106.340 588.877,106.247 591.499,106.340 C594.122,106.434 594.499,106.340 594.499,106.340 C594.499,106.340 593.877,106.047 596.499,104.339 C599.122,102.632 597.676,102.645 599.499,102.338 C601.322,102.031 603.499,101.338 603.499,101.338 C603.499,101.338 603.276,102.245 605.499,99.336 C607.722,96.428 607.499,96.334 607.499,96.334 C607.499,96.334 609.677,95.240 607.499,94.333 C605.322,93.426 605.276,94.440 603.499,93.333 C601.722,92.225 601.276,93.039 601.499,91.332 C601.722,89.624 598.277,88.837 602.499,89.331 C606.722,89.824 603.477,88.437 606.499,89.331 C609.522,90.224 609.499,90.331 609.499,90.331 C609.499,90.331 610.077,90.037 610.499,89.331 C610.922,88.623 610.276,87.436 611.499,87.329 C612.722,87.223 614.499,86.329 614.499,86.329 L615.255,86.329 C614.990,86.389 614.809,86.729 616.499,88.330 C618.922,90.625 618.277,88.036 619.499,90.331 C620.722,92.626 621.499,93.333 621.499,93.333 C621.499,93.333 616.277,95.240 622.499,93.333 C628.722,91.425 629.077,91.839 628.499,89.331 C627.922,86.823 624.677,83.234 628.499,84.328 C632.322,85.422 631.477,85.235 632.499,85.328 C633.522,85.422 632.077,85.435 634.499,84.328 C636.922,83.220 638.499,83.327 638.499,83.327 C638.499,83.327 641.277,80.832 639.499,84.328 C637.722,87.823 635.077,88.036 637.499,89.331 C638.652,89.947 637.439,89.999 636.776,89.983 C636.192,89.941 636.387,89.973 636.776,89.983 C637.287,90.019 638.390,90.112 640.499,90.331 C649.122,91.225 647.677,90.037 652.499,90.331 C657.322,90.625 657.277,90.438 660.499,90.331 C663.722,90.224 664.876,86.435 666.499,89.331 C668.122,92.225 665.877,91.839 668.499,93.333 C671.121,94.827 668.277,98.442 672.499,94.333 C676.722,90.224 676.677,88.637 678.499,88.330 C680.322,88.023 681.499,87.329 681.499,87.329 C681.499,87.329 679.284,86.543 685.499,86.329 C691.714,86.114 689.484,85.543 692.499,85.328 C695.514,85.113 691.084,85.943 697.499,84.328 C703.914,82.712 700.284,83.342 706.499,82.326 C712.714,81.311 715.484,81.341 717.499,81.326 C719.514,81.311 719.084,84.342 723.499,81.326 C727.914,78.310 727.484,77.738 729.499,78.324 C731.514,78.910 731.284,78.139 733.499,80.325 C735.714,82.512 739.499,83.327 739.499,83.327 C739.499,83.327 740.684,83.141 742.499,83.327 C744.314,83.513 744.884,86.343 748.499,81.326 C752.115,76.309 751.484,76.337 752.499,76.323 C753.514,76.309 752.284,77.938 754.499,78.324 C756.714,78.710 756.684,79.740 760.499,79.325 C764.314,78.910 767.499,78.324 767.499,78.324 C767.499,78.324 770.084,75.337 771.499,77.323 C772.914,79.310 773.884,79.740 774.499,80.325 C775.114,80.911 775.084,81.341 778.499,81.326 C781.914,81.311 780.884,82.341 782.499,81.326 C784.114,80.311 782.684,81.140 784.499,79.325 C786.314,77.509 786.499,77.323 786.499,77.323 C786.499,77.323 788.484,75.137 788.499,78.324 C788.515,81.512 787.484,81.341 788.499,82.326 C789.514,83.312 790.884,83.342 791.499,84.328 C792.115,85.314 795.684,86.744 796.499,86.329 C797.315,85.914 799.499,84.328 799.499,84.328 C799.499,84.328 801.084,83.141 802.500,81.326 C803.914,79.510 802.884,79.139 804.500,79.325 C806.114,79.510 807.284,79.939 807.499,82.326 C807.714,84.713 805.884,84.543 807.499,85.328 C809.114,86.114 812.284,87.144 812.499,86.329 C812.714,85.514 811.884,84.142 813.499,83.327 C815.114,82.512 819.499,80.325 819.499,80.325 C819.499,80.325 820.684,80.740 821.499,83.327 C822.314,85.914 822.499,86.329 822.499,86.329 L825.499,86.329 C825.499,86.329 835.008,85.538 837.499,85.328 C839.991,85.119 842.208,82.936 844.499,82.326 C846.791,81.716 843.807,80.335 849.499,80.325 C855.191,80.316 854.208,79.735 858.499,78.324 C862.791,76.914 862.408,77.133 865.499,76.323 C868.591,75.513 869.808,76.533 870.500,74.322 C871.190,72.111 871.407,72.130 871.499,71.320 C871.591,70.510 872.008,70.930 871.499,68.319 C870.991,65.707 868.008,67.127 871.499,64.316 C874.991,61.505 871.808,56.921 875.499,61.314 C879.191,65.707 875.608,65.526 878.499,66.317 C881.391,67.108 883.807,66.327 885.499,67.318 C887.191,68.309 887.807,68.128 888.499,69.319 C889.191,70.510 889.207,70.729 890.499,71.320 C891.791,71.911 891.007,72.730 895.499,72.321 C899.991,71.911 902.499,71.320 902.499,71.320 C902.499,71.320 900.808,73.531 903.499,74.322 C906.191,75.113 905.607,77.733 907.499,74.322 C909.391,70.910 913.499,67.318 913.499,67.318 C913.499,67.318 914.208,66.527 915.499,66.317 C916.791,66.108 918.499,66.317 918.499,66.317 C918.499,66.317 922.168,63.183 924.499,62.315 C926.831,61.447 925.567,60.781 928.499,60.314 C931.431,59.846 935.167,58.580 935.499,58.312 C935.831,58.045 935.767,56.979 938.499,57.312 C941.231,57.644 946.499,57.312 946.499,57.312 C946.499,57.312 949.768,54.978 950.499,54.310 C951.231,53.642 953.499,52.309 953.499,52.309 C953.499,52.309 956.367,46.373 956.499,50.308 C956.631,54.243 957.368,54.978 958.499,55.311 C959.631,55.643 961.499,54.310 961.499,54.310 L962.499,56.311 C962.499,56.311 963.167,57.179 964.499,57.312 C965.831,57.444 967.499,56.311 967.499,56.311 C967.499,56.311 965.967,55.578 967.499,53.310 C969.031,51.041 969.499,50.308 969.499,50.308 C969.499,50.308 971.768,50.976 969.499,49.307 C967.231,47.639 965.167,46.373 967.499,46.305 C969.831,46.238 970.499,46.305 970.499,46.305 C970.499,46.305 973.768,47.774 974.499,48.307 C975.231,48.839 977.499,49.307 977.499,49.307 C977.499,49.307 979.967,48.174 978.499,46.305 C977.031,44.437 976.499,43.304 976.499,43.304 L978.499,41.302 C978.499,41.302 978.367,39.569 979.499,39.301 C980.631,39.034 981.499,38.301 981.499,38.301 C981.499,38.301 981.767,38.169 983.499,37.300 C985.231,36.432 986.567,35.767 988.499,35.299 C990.431,34.831 991.499,34.299 991.499,34.299 C991.499,34.299 995.167,35.167 996.499,34.299 C997.831,33.430 996.168,32.765 999.499,33.298 C1002.831,33.831 1003.767,33.566 1004.499,34.299 C1005.231,35.031 1006.499,35.299 1006.499,35.299 C1006.499,35.299 1006.167,35.567 1009.499,37.300 C1012.831,39.034 1013.367,37.968 1013.499,39.301 C1013.631,40.635 1012.967,39.169 1012.499,41.302 C1012.031,43.436 1012.167,43.371 1012.499,44.304 C1012.831,45.237 1010.568,45.973 1009.499,47.306 C1008.431,48.639 1007.167,47.774 1008.499,49.307 C1009.831,50.841 1008.767,53.777 1010.499,51.309 C1012.231,48.839 1013.938,47.485 1017.499,47.306 C1021.061,47.127 1018.338,44.884 1021.499,47.306 C1024.660,49.728 1027.499,50.308 1027.499,50.308 C1027.499,50.308 1019.938,53.689 1028.499,52.309 C1037.061,50.929 1036.138,50.687 1037.499,51.309 C1038.861,51.930 1039.338,52.688 1041.499,53.310 C1043.661,53.931 1040.138,55.890 1048.499,54.310 C1056.861,52.730 1058.338,54.289 1061.499,54.310 C1064.661,54.331 1070.738,53.489 1072.499,54.310 C1074.261,55.132 1076.537,57.691 1081.499,56.311 C1086.461,54.931 1088.138,55.290 1088.499,56.311 C1088.861,57.333 1092.938,53.689 1091.499,58.312 C1090.061,62.936 1090.138,61.494 1089.499,64.316 C1088.861,67.139 1091.538,65.696 1089.499,68.319 C1087.461,70.940 1088.738,70.499 1088.499,72.321 C1088.497,72.334 1088.496,72.344 1088.495,72.356 C1088.399,71.760 1087.851,70.910 1085.499,72.321 C1081.461,74.743 1082.338,74.702 1081.499,75.322 C1080.661,75.944 1079.738,72.900 1080.499,76.323 C1081.261,79.746 1080.338,77.503 1083.499,79.325 C1086.661,81.147 1087.499,81.326 1087.499,81.326 C1087.499,81.326 1089.738,79.904 1087.499,82.326 C1085.261,84.749 1085.138,82.506 1083.499,86.329 C1081.861,90.152 1082.138,88.709 1080.499,92.332 C1078.861,95.956 1078.338,96.314 1077.499,98.336 C1076.661,100.358 1076.537,98.715 1076.499,101.338 C1076.461,103.960 1076.738,104.318 1074.499,106.340 C1072.261,108.363 1072.138,106.720 1072.499,108.342 C1072.861,109.963 1073.338,110.922 1075.499,111.343 C1077.660,111.764 1078.938,112.323 1079.499,112.344 C1080.061,112.365 1078.738,117.726 1081.499,111.343 C1084.261,104.960 1082.738,102.718 1085.499,102.338 C1088.261,101.959 1090.938,102.117 1092.499,101.338 C1094.061,100.558 1095.338,100.516 1096.499,99.336 C1097.661,98.157 1099.338,97.114 1100.499,95.334 C1101.661,93.554 1102.737,92.512 1103.499,91.332 C1104.261,90.152 1104.737,88.709 1105.499,87.329 C1106.261,85.949 1107.737,84.907 1108.499,83.327 C1109.261,81.747 1109.138,81.705 1110.499,80.325 C1111.861,78.945 1112.938,78.904 1113.499,77.323 C1114.061,75.743 1115.499,73.321 1115.499,73.321 C1115.499,73.321 1123.070,74.109 1128.499,73.321 C1133.929,72.533 1134.870,72.508 1137.499,70.320 C1140.129,68.131 1142.499,66.317 1142.499,66.317 L1144.500,64.316 C1144.500,64.316 1145.469,61.302 1146.499,61.314 C1147.529,61.327 1148.270,60.301 1149.499,60.314 C1150.729,60.326 1152.669,58.500 1155.499,58.312 C1158.329,58.125 1159.470,58.100 1160.499,57.312 C1161.529,56.524 1162.070,53.697 1164.500,53.310 C1166.928,52.922 1164.870,51.896 1168.499,52.309 C1172.129,52.722 1175.070,51.896 1176.499,52.309 C1177.929,52.722 1179.870,50.095 1180.499,50.308 C1181.129,50.520 1181.270,49.094 1184.499,49.307 C1187.729,49.520 1189.870,48.895 1191.499,49.307 C1193.129,49.720 1194.070,50.295 1195.499,49.307 C1196.929,48.319 1200.499,46.305 1200.499,46.305 C1200.499,46.305 1202.069,45.293 1203.499,45.305 C1204.929,45.317 1216.670,43.291 1221.499,43.304 C1226.329,43.316 1224.670,42.090 1228.499,42.303 C1232.329,42.516 1234.270,43.091 1236.499,43.304 C1238.729,43.517 1239.070,43.692 1240.499,43.304 C1241.929,42.916 1241.670,41.890 1243.499,42.303 C1245.328,42.716 1246.470,42.090 1249.499,43.304 C1252.529,44.517 1253.670,45.893 1254.499,44.304 C1255.328,42.716 1247.870,41.090 1255.499,42.303 C1263.129,43.517 1264.469,44.292 1265.499,43.304 C1266.529,42.316 1266.469,39.489 1267.499,41.302 C1268.529,43.116 1267.870,47.093 1271.499,45.305 C1275.129,43.517 1276.499,42.303 1276.499,42.303 C1276.499,42.303 1275.470,41.090 1279.499,40.302 C1283.528,39.514 1281.470,36.087 1283.499,35.299 C1285.529,34.511 1284.469,34.686 1286.499,34.299 C1288.529,33.911 1291.499,33.298 1291.499,33.298 C1291.499,33.298 1295.269,32.485 1297.499,34.299 C1299.729,36.112 1302.069,36.287 1303.499,37.300 C1304.929,38.313 1306.270,38.288 1308.499,39.301 C1310.729,40.315 1311.270,39.288 1314.499,40.302 C1317.729,41.315 1318.499,41.302 1318.499,41.302 L1319.499,43.304 C1319.499,43.304 1328.676,48.699 1332.499,46.305 C1336.322,43.912 1335.876,43.896 1337.499,43.304 C1339.122,42.711 1340.076,45.697 1339.499,42.303 C1338.923,38.909 1337.076,39.893 1339.499,38.301 C1341.922,36.708 1340.076,35.891 1344.499,35.299 C1348.922,34.707 1351.500,34.299 1351.500,34.299 C1355.899,35.699 1358.276,34.690 1359.499,36.300 C1360.722,37.909 1357.676,37.092 1361.499,39.301 C1365.322,41.511 1367.076,39.293 1367.499,42.303 C1367.922,45.313 1370.076,44.096 1367.499,45.305 C1364.922,46.514 1362.876,46.097 1360.499,47.306 C1358.122,48.515 1356.676,46.898 1357.499,49.307 C1358.322,51.717 1357.276,52.301 1360.499,52.309 C1363.722,52.317 1363.276,52.501 1366.499,51.309 C1369.722,50.116 1370.076,49.900 1372.499,49.307 C1374.922,48.715 1379.076,48.499 1380.499,48.307 C1381.922,48.115 1384.499,48.307 1384.499,48.307 C1384.499,48.307 1384.876,49.299 1386.499,50.308 C1388.122,51.316 1392.499,52.309 1392.499,52.309 C1392.499,52.309 1399.076,49.499 1402.499,49.307 C1405.922,49.115 1403.476,52.501 1406.499,49.307 C1409.522,46.113 1407.476,45.697 1410.499,45.305 C1413.522,44.913 1409.276,45.697 1413.499,45.305 C1417.722,44.913 1415.476,44.296 1418.499,44.304 C1421.522,44.312 1421.876,43.296 1423.499,43.304 C1425.122,43.312 1428.499,41.302 1428.499,41.302 C1428.499,41.302 1428.276,35.891 1431.499,40.302 C1434.722,44.713 1437.276,47.898 1437.499,48.307 C1437.722,48.715 1434.676,48.899 1438.499,49.307 C1442.322,49.715 1439.076,49.099 1443.499,49.307 C1447.922,49.515 1449.076,51.300 1450.499,49.307 C1451.922,47.314 1450.076,49.900 1453.499,45.305 C1456.922,40.710 1455.876,38.893 1457.499,39.301 C1459.122,39.710 1460.676,39.694 1462.499,39.301 C1464.322,38.909 1467.676,38.493 1468.499,38.301 C1469.323,38.109 1469.276,37.893 1471.499,38.301 C1473.722,38.709 1477.499,38.301 1477.499,38.301 C1481.699,41.102 1484.276,41.895 1485.499,41.302 C1486.722,40.710 1487.499,39.301 1487.499,39.301 C1487.499,39.301 1491.276,39.694 1492.499,40.302 C1493.722,40.911 1492.676,40.494 1495.499,41.302 C1498.322,42.111 1499.476,42.295 1501.499,42.303 C1503.523,42.311 1507.499,42.303 1507.499,42.303 L1508.499,43.304 L1510.499,44.304 C1510.499,44.304 1516.865,45.386 1521.499,45.305 C1526.133,45.224 1527.499,45.305 1527.499,45.305 C1527.499,45.305 1526.065,47.987 1529.499,48.307 C1532.933,48.626 1534.065,48.187 1535.499,48.307 C1536.933,48.426 1536.065,47.987 1537.499,48.307 C1538.933,48.626 1546.265,45.586 1542.499,50.308 C1538.733,55.030 1536.265,54.391 1538.499,56.311 C1540.734,58.232 1540.065,62.196 1543.499,58.312 C1546.099,55.372 1548.772,54.591 1549.918,54.385 C1550.244,54.813 1550.749,55.433 1551.499,56.311 C1555.533,61.033 1556.265,60.795 1557.499,61.314 C1558.733,61.834 1558.865,62.996 1562.499,63.315 C1566.133,63.635 1566.665,63.996 1568.499,63.315 C1570.333,62.634 1570.665,62.396 1572.499,62.315 C1574.333,62.234 1575.665,61.995 1577.499,62.315 C1579.333,62.634 1579.465,62.396 1580.499,63.315 C1581.533,64.235 1579.265,66.598 1582.499,66.317 C1585.733,66.036 1585.265,64.797 1586.499,64.316 C1587.733,63.835 1588.265,63.596 1590.499,64.316 C1592.733,65.036 1589.465,67.598 1593.499,66.317 C1597.533,65.036 1598.065,66.198 1598.499,64.316 C1598.933,62.434 1595.065,59.794 1600.499,62.315 C1605.933,64.835 1606.865,63.797 1609.499,66.317 C1612.133,68.838 1614.665,70.200 1616.499,69.319 C1618.333,68.437 1616.865,66.398 1620.499,68.319 C1624.133,70.239 1624.265,74.002 1626.499,71.320 C1628.733,68.638 1626.865,64.597 1631.499,68.319 C1636.133,72.039 1636.065,73.202 1637.499,74.322 C1637.668,74.453 1637.770,74.538 1637.834,74.594 C1637.894,74.675 1637.994,74.734 1637.834,74.594 C1637.714,74.432 1637.775,74.193 1640.499,75.322 C1645.133,77.243 1639.118,189.427 1637.499,191.390 C1635.881,193.353 1632.118,192.928 1632.499,197.393 C1632.881,201.858 1632.618,201.433 1630.499,203.397 C1628.381,205.360 1618.118,204.435 1626.499,207.399 C1634.881,210.363 1636.499,210.401 1636.499,210.401 C1636.499,210.401 1636.118,207.437 1637.499,212.402 C1638.881,217.367 1636.618,214.941 1637.499,219.406 C1638.381,223.871 1638.618,220.945 1638.499,223.408 C1638.381,225.872 1633.618,221.445 1638.499,229.412 C1643.380,237.379 1647.618,235.953 1646.499,243.420 ZM85.951,109.287 C86.230,109.299 86.499,109.342 86.499,109.342 C86.499,109.342 86.275,109.320 85.951,109.287 ZM215.499,203.397 C215.499,203.397 215.285,203.432 214.936,203.486 C215.180,203.329 215.499,203.397 215.499,203.397 ZM615.499,86.329 L615.255,86.329 C615.369,86.303 615.499,86.329 615.499,86.329 ZM1088.495,72.356 C1088.562,72.776 1088.406,73.068 1088.495,72.356 ZM1550.499,54.310 C1550.499,54.310 1550.286,54.318 1549.918,54.385 C1548.489,52.508 1550.499,54.310 1550.499,54.310 ZM414.499,194.392 C413.093,197.950 412.906,199.338 412.499,200.395 C412.093,201.452 414.156,203.841 410.499,204.397 C406.843,204.954 409.155,204.591 402.499,206.399 C395.843,208.206 393.405,208.093 392.499,208.400 C391.593,208.707 390.656,208.844 385.499,209.400 C380.343,209.957 378.155,210.345 375.499,211.402 C372.843,212.459 372.906,213.596 369.499,214.403 C366.093,215.210 364.906,216.348 362.499,215.404 C360.093,214.460 354.499,213.403 354.499,213.403 L350.499,212.402 C350.499,212.402 344.406,214.597 347.499,211.402 C350.593,208.206 351.499,208.400 351.499,208.400 L353.499,203.397 L357.499,205.398 L361.499,204.397 L364.499,202.396 L367.499,198.394 C367.499,198.394 368.156,198.087 369.499,196.393 C370.843,194.698 373.156,193.585 372.499,191.390 C371.843,189.195 371.499,184.386 371.499,184.386 L373.500,181.384 C373.500,181.384 376.906,177.075 378.499,176.381 C380.093,175.687 380.406,174.073 382.499,173.379 C384.593,172.685 386.656,171.322 388.499,171.378 C390.343,171.435 394.156,172.072 395.499,172.379 C396.843,172.685 396.156,171.822 401.499,173.379 C406.843,174.937 408.906,173.823 409.499,175.381 C410.093,176.938 410.656,176.325 408.499,179.383 C406.343,182.441 404.155,182.578 403.499,183.385 C402.843,184.192 396.655,183.078 402.499,184.386 C408.343,185.693 407.905,185.330 409.499,185.386 C411.093,185.443 410.406,183.579 411.499,186.387 C412.593,189.195 414.655,189.832 414.499,191.390 C414.343,192.947 415.906,190.833 414.499,194.392 ZM263.499,49.307 C261.804,49.666 262.499,53.310 262.499,53.310 L260.499,54.310 C260.499,54.310 258.944,51.950 258.499,50.308 C258.054,48.665 260.694,48.949 261.499,46.305 C262.304,43.663 262.944,44.196 265.499,43.304 C268.054,42.412 266.194,45.446 265.499,47.306 C264.804,49.166 265.195,48.949 263.499,49.307 ZM263.499,88.330 C263.804,89.939 262.445,92.474 260.499,97.335 C258.554,102.197 257.695,99.978 252.499,102.338 C247.304,104.698 246.445,103.480 240.499,103.339 C234.554,103.197 236.499,102.338 236.499,102.338 C236.499,102.338 235.194,101.730 235.499,100.337 C235.804,98.945 237.194,98.477 243.499,97.335 C249.804,96.193 245.695,96.976 248.499,95.334 C251.304,93.692 248.194,94.225 245.499,94.333 C242.804,94.442 245.944,94.225 239.499,92.332 C233.054,90.440 239.444,92.224 236.499,92.332 C233.554,92.441 229.694,95.976 227.499,96.334 C225.304,96.693 226.944,96.226 222.499,94.333 C218.054,92.441 221.499,92.332 221.499,92.332 L226.499,91.332 C226.499,91.332 227.444,90.473 229.499,92.332 C229.672,92.489 230.022,92.584 230.408,92.647 C229.647,93.058 229.463,93.333 230.925,93.089 C233.200,92.710 231.619,92.843 230.408,92.647 C231.208,92.214 232.647,91.629 233.499,91.332 C236.054,90.440 235.194,90.973 236.499,88.330 C236.727,87.869 236.871,87.544 236.961,87.313 C237.742,87.287 239.357,87.250 240.499,87.329 C242.054,87.438 242.694,87.471 244.499,86.329 C246.304,85.187 245.944,85.220 248.499,84.328 C251.054,83.436 250.694,85.220 255.499,85.328 C260.304,85.437 255.944,83.469 252.499,82.326 C249.054,81.184 248.944,81.968 248.499,80.325 C248.054,78.683 249.944,80.217 252.499,79.325 C255.054,78.433 253.694,78.966 253.499,77.323 C253.304,75.681 253.694,77.215 250.499,77.323 C247.304,77.432 245.194,76.715 242.499,75.322 C239.804,73.930 243.944,72.962 244.499,69.319 C245.054,65.675 241.499,66.317 241.499,66.317 C241.499,66.317 243.194,65.208 244.499,64.316 C245.804,63.424 247.195,64.708 251.499,65.316 C255.804,65.925 253.694,67.709 255.499,69.319 C257.304,70.928 258.694,74.463 262.499,79.325 C266.304,84.186 263.194,86.720 263.499,88.330 ZM236.961,87.313 C236.679,87.322 236.499,87.329 236.499,87.329 C236.499,87.329 237.385,86.216 236.961,87.313 ZM224.499,106.340 C226.554,106.199 226.194,108.233 225.499,110.343 C224.804,112.452 224.499,112.344 224.499,112.344 L221.499,113.344 C221.499,113.344 221.195,113.486 219.499,112.344 C217.804,111.202 217.499,111.343 217.499,111.343 C217.499,111.343 218.194,110.234 219.499,109.342 C220.804,108.450 220.944,108.733 220.499,107.341 C220.054,105.948 222.444,106.482 224.499,106.340 ZM223.499,85.328 C220.304,85.437 221.944,86.220 220.499,86.329 C219.054,86.437 217.694,87.471 216.499,87.329 C215.304,87.188 215.194,86.220 215.499,84.328 C215.804,82.435 217.444,82.968 219.499,83.327 C221.554,83.686 223.444,83.218 224.499,83.327 C225.554,83.436 226.445,82.718 229.499,82.326 C232.554,81.935 229.944,82.968 229.499,84.328 C229.054,85.687 226.694,85.220 223.499,85.328 ZM95.499,101.338 L91.499,102.338 L85.499,102.338 L78.499,100.337 L73.499,99.336 C73.499,99.336 69.530,99.544 68.499,99.336 C67.468,99.129 65.499,100.337 65.499,100.337 L62.499,99.336 L61.499,95.334 C61.499,95.334 66.030,94.541 67.499,94.333 C68.968,94.126 72.499,94.333 72.499,94.333 L76.499,96.334 C76.499,96.334 78.030,95.792 79.499,95.334 C80.968,94.876 82.499,94.333 82.499,94.333 L83.499,98.336 C83.499,98.336 88.030,97.293 89.499,96.334 C90.968,95.376 93.499,96.334 93.499,96.334 C93.499,96.334 92.530,98.294 93.499,99.336 C94.468,100.379 93.030,99.294 97.499,98.336 C101.968,97.377 98.499,99.336 98.499,99.336 L95.499,101.338 Z"/>
</svg>