<svg xmlns="http://www.w3.org/2000/svg" width="1599" height="396.5" viewBox="0 0 1599 396.5">
  <metadata><?xpacket begin="﻿" id="W5M0MpCehiHzreSzNTczkc9d"?>
<x:xmpmeta xmlns:x="adobe:ns:meta/" x:xmptk="Adobe XMP Core 5.6-c138 79.159824, 2016/09/14-01:09:01        ">
   <rdf:RDF xmlns:rdf="http://www.w3.org/1999/02/22-rdf-syntax-ns#">
      <rdf:Description rdf:about=""/>
   </rdf:RDF>
</x:xmpmeta>
                                                                                                    
                                                                                                    
                                                                                                    
                                                                                                    
                                                                                                    
                                                                                                    
                                                                                                    
                                                                                                    
                                                                                                    
                                                                                                    
                                                                                                    
                                                                                                    
                                                                                                    
                                                                                                    
                                                                                                    
                                                                                                    
                                                                                                    
                                                                                                    
                                                                                                    
                                                                                                    
                           
<?xpacket end="w"?></metadata>
  <path id="Фигура_3963" data-name="Фигура 3963" d="M85,654.857s6.893-2.361,10-1,10,2,10,2l4,1s0.393-.36,4,1,7.393,1.641,9,1a7.612,7.612,0,0,0,2-1s5.393-4.363,2-5a24.011,24.011,0,0,1-6-2s0.9,0.412-2,0-3,0-3,0l2-3,2-1-2-1-4-1h-3v-2l-2-3-5-1a1.218,1.218,0,0,1-2-1c-0.234-2.079,1-2,1-2s1.9-.755,3,0a5.489,5.489,0,0,0,2,1,6.392,6.392,0,0,0,4,1c2.767-.078,2.067.579,5,0s2.9-.755,5-1,3.234,0.912,3-1-0.766-2.59-3-3a37.808,37.808,0,0,0-5-1c-2.567-.245-9.432.412-11,0s-5-1-5-1a4.754,4.754,0,0,1-1-2c-0.4-1.412-1-3-1-3s-1.1-1.923,1-2,2.4-2.256,3,0-0.433.579,1,2-0.266-.088,2,1-1.6.245,3,1,3.067,1.079,6,1,3.567,0.079,5,0,2.4-1.589,5-1,7,1,7,1-2.6-.422,0,1-0.1,1.745,4,2,3.4-.422,5,0,1.234-.089,4,0a34.539,34.539,0,0,0,6,0c1.1-.245.568-0.089,3,0a21.514,21.514,0,0,0,3,0s2.734-.923,1-2a37.519,37.519,0,0,1-5-4,39.754,39.754,0,0,0-4-3s-0.932-1.923,0-2-0.6-1.59,2,0,0.9,1.245,3,2,3,1,3,1-1.1-1.089,2,1,0.567-.089,4,3a36.341,36.341,0,0,0,5,4,1.851,1.851,0,0,0,2,1c1.433-.244,3.4-0.922,4-1s-0.766-2.09,1-3,2.067-1.756,3-2,2.234-1.423,4-1,0.9,1.913,2,0-0.433-1.422,1-2,0.234-2.59,2-1,4.234,0.745,3,2-2.6,1.412-3,2-2.266-.089-1,2,0.9,2.413,2,3,1.066,3.413,2,1,0.233-5.258,2-4,1.066,1.746,3,3,1.234,0.912,3,1,4-2,4-2-0.766-.255,1,0,3.234-1.089,4,1a6.782,6.782,0,0,0,2,3s2.643-.055,3,0-0.692.278,5,1,8.809,1.113,9,1-1.524,3.113,1,0,4-2,4-2,0.309,0.112,1-1-0.525-.888,1-1,0.976,2.28,2,0a4.532,4.532,0,0,0,0-4s-2.358-1.722,1-1,3.809,0.112,5,1,3.309,1.613,4,3-0.357.445,2,2,2.142,1.78,4,2,2.809,0.446,3-1,0.476-3.224,1-2a16.745,16.745,0,0,0,2,3c10.5,0,9.976-.722,12,0a12.049,12.049,0,0,0,6,0c1.191-.279.142,0.446,2,0s2.476-1.556,4-2a17.64,17.64,0,0,1,4-1c1.525-.112,1.809.113,4,0a36.083,36.083,0,0,1,6,0c2.024,0.222,5.309.446,6,0a44.712,44.712,0,0,1,4-2c0.358-.112,3-2,3-2s0.476-.221,2-1,3.142-.555,4-2,1.142-3.223,2-4,0.143-.222,1-2,0.976,1.279,1-2,2.142-4.057,0-6-2.191-.888-3-3-1.358-.389-1-3,2.976-.389,1-3-0.691.279-3-4-2.358-5.224-3-6-0.024-1.055,0-2-0.524-2.056,1-2a7.891,7.891,0,0,0,2,0c1.191-.112,1.142.446,2,0s0.143-.222,1-1-0.114-.376,1-4,0.686-3.778,2-4,2.086-1.377,1-2a12.282,12.282,0,0,0-3-1s-0.914.625,1-2,3.686-1.377,1-3a19.188,19.188,0,0,0-4-2s0.286-3.377,1-3,0.286,0.625,3,1,3.286,1.625,3,0-1.114-.776,0-2-1.914,2.226,1-1,3-3,3-3-1.314,1.626,0-2,0.286-4.378,2-4,0.486,0.425,3-1,3.086,3.226,3-1-0.314-4.979,1-5,1.086,2.426,1,0a22.393,22.393,0,0,1,0-3s-3.314.025-1-2-0.514-2.977,3-2,3.486,2.826,4,1-2.914-.375,1-2,0.286-1.376,5-3,6.885-2.176,7-4-1.314-.976,0-2-0.714-2.177,2-2-0.914,1.825,3,0,2.086,0.224,4-2-0.314-2.977,2-3,0.086,0.224,3,0,2.086,0.224,4-1,2-1,2-1,3.486-1.776,1,0,3.686-2.777-2,2-4.914,5.828-6,7-0.914-1.577-1,1a20.718,20.718,0,0,0,0,3s-3.314-.776-4-1-0.314.025-2,0-1.314-.775-3,1-1.714,1.226-3,3,2.686,1.025-1,2a15.235,15.235,0,0,0-5,2c-0.4,1.4-.514.025-1,2s0.886,1.026,0,3a9.8,9.8,0,0,1-2,3,0.881,0.881,0,0,0-1,1c-0.086,1.175-1.515,2.826,2,3s2.285,0.425,5,0,5.285-.976,4,0,1.486,0.225-3,2-5.314,1.225-7,1-0.114-.376-3,0-2.714-.576-4,0-2.315-.376-3,2-1.315,1.626-1,3,2.286,1.425,0,2-3.715.025-5,1-0.715,1.426-1,2,0.886-.376,0,1-1.114-.576-2,2-0.314.224-1,3-1.914,2.426-1,5-1.314,1.225,1,3-2.914,4.027,4,2,3.285-6.379,7-2,2.686,2.026,4,5,0.286-.376,2,3,1.286,0.224,3,4,1.486,3.626,1,6-2.315,1.426,0,3,0.685,1.025,4,2,9.686-2.977,4,1-6,5-6,5a5.375,5.375,0,0,0,3,0s4.085,1.425,0,2-6.115-.776-6,1-1.114,1.426,1,2,1.685,0.426,4,1,5.086-2.977,3,1-3.475,4.182-1,5,2.524-2.822,3,1-2.876,2.582,0,4,4.324-.621,3,1-2.075,1.981-5,2-3.475,1.581-4,0-0.476-5.023-1-2-4.075,2.382-1,5a7.485,7.485,0,0,0,6,2s1.524-.22,0,1-3.275-.02-4,1-1.875-.42-1,1-1.275.981,1,3,4.925,1.781,3,3-2.275,2.382-4,1-4.075-3.822-4-2-1.676,2.181,0,3,3.124-.821,2,1-1.276,2.382-3,2-2.675-3.822-4-2-1.475,1.181-2,2-1.075-1.02-1,1-0.676.981,1,2,5.524,3.382,2,3-7.075-1.021-5,1,3.724,0.18,3,2,2.724-.221-4,4,0.324,2.581-7,5-13.875,4.382-17,5-1.475-1.221-7,2,3.324,3.782-6,4-12.875.581-22,0-9.277-.62-12-1-3.876-.821-4,0-4.275-.421-2,3-10.077,1.78,4,5,12.924,2.782,16,3,9.924,11.587-34,2c0,0-18.076-.22-11,2s16.125,3.182,18,4,3.925-2.222,3,1-0.476,3.182-4,4-1.275-.621-6,0-2.275,2.381-6,1-4.876-.62-8-3a63.823,63.823,0,0,0-7-5c-1.524-.781-2.476-1.621-4-2s-4.875-1.62-3,1,2.125-.42,2,3-3.076-1.021,0,4,4.125,2.782,6,4,0.925,1.181,3,2,3.125-2.422,4,1,1.925,3.382,3,5-1.677,5.183,2,2,4-4,4-4,1.324-1.221,5,0-0.276,1.781,7,2,10,0,10,0c-2.8,4.6-1.076,3.782-3,5s-2.675.78-4,1-2.075-.421-4,0-7.675.38-7,1-1.075-.82,2,1,2.324,0.98,5,2-0.275,1.381,4,1,8-1,8-1-1.876-.421,0,3,2.725,2.581,4,5-0.476.98,2,3,4.924,3.182,5,2-1.275-2.822,1-2,6.725-.42,7,1-4.275.98,1,1,5.525,0.98,7-1a10.6,10.6,0,0,1,4-3,15.268,15.268,0,0,1,6,3c3.035,2.431,2.365,3.572,5,4s-0.235-2.231,4,0,1.766,0.17,5,3-0.034,1.771,4,3,0.565-1.631,6,1,6,3,6,3,2.565-2.432-1,2-4.234,1.371-4,5-2.234,1.971,1,4,4.166,2.171,6,2a37.444,37.444,0,0,0,6-1c2.235-.57-1.034-1.231,5-1s10.366-1.432,7,0-3.434,1.97-5,3-4.035.971-2,2,1.765-1.831,3,1-1.236,2.371,2,4a23.262,23.262,0,0,0,5,2s-0.836-.231-2,1-2,2-2,2-1.034-.03,3,1,1.566,1.971,6,2,2.565,4.172,7,0,4.166-6.234,11-9.006,9.765-5.833,15-7,6.366-.631,15-3,11.566-2.632,16-3,6.166-1.831,12,0,9.566-2.031,8,2-1.635,5.974,0,6,4.366,1.37,6,0-3.634-2.032,4-3,8.165-.03,9-2,0.566-2.832,3-6,4.566-3.032,7-6,0.966-2.632,4-4,4.166-2.431,7-3,0.166-2.232,5-2,3.766-1.832,8-1,3.765,1.571,7,0,1.366-1.431,5-4,3.766-3.232,6-3,0.966,0.57,7,0,4.566,0.97,10-1,1.766-.03,7-2,4.971-.632,10-2,2.371-2.433,8-2,2.171,0.568,9,0,2.171,0.768,8-1,7.171,1.169,6-2-0.429-3.634-3-4a46.472,46.472,0,0,1-6-1c-3.371-.768,2.371-1.633-6-1s-7.029.768-12,0-6.229-.432-8-1-1.829-.232-3-2-1.229-3.634-3-4,2.371-1.633-3-1-6.63,1.769-9,2,0.171,1.97-4,0-3.229-2.233-6-3-2.629-.031-5-1-2.029.368-3-1-2.029-1.232-2-3-2.829.769,0-3,2.571-2.634,4-4-3.029.969,2-2a37.617,37.617,0,0,0,6-4c1.629-1.169.971-.232,2-1s-0.429-.632,3-1,2.771-.833,5-1,0.371,0.168,3-1a39.308,39.308,0,0,0,4-2,11.008,11.008,0,0,1,2-1c1.029-.369.571-1.232,3-1s2.771,1.169,5-1a19.8,19.8,0,0,0,2-2l3-1c2.6,0,1.571,1.969,6,0s5-3,5-3l3-1,2-1s-0.629-1.433,1-1,0.771-.432,2,0a11.78,11.78,0,0,0,4,0l2-1s-0.029-.232,2-1,5-2,5-2-0.629-1.233,3-1a41.147,41.147,0,0,0,6,0c5.2,0.2,5.171.368,7-1s2-1,2-1-0.829-.031,2,0a41.162,41.162,0,0,0,5,0c2.23-.168.371,1.369,2,0a9.967,9.967,0,0,0,2-2s-1.422-4.5,0-6-0.622,1.707,2-3,0.978-4.3,3-6-2.822-2.494,2-2,3.178-.493,7,0,6.178,1.308,8-1,6.978-2.7,3-4-5.222-2.294-6-1-3,1-3,1c-1.4-5-3.822-3.1-2-5s3-3,3-3,0.578-.294,2-1-1.222-3.695,2-1,1.778,3.908,4,3,2.778-1.894,3-3a5.018,5.018,0,0,0,0-2s-1.622-.093,1,0a18.235,18.235,0,0,0,3,0s-0.622-.293,2-2,1.177-1.694,3-2a34.888,34.888,0,0,0,4-1s-0.223.907,2-2,2-3,2-3,2.178-1.094,0-2-2.223.107-4-1-2.223-.294-2-2-3.222-2.5,1-2,0.978-.894,4,0,3,1,3,1a2.78,2.78,0,0,0,1-1c0.423-.708-0.223-1.895,1-2a10.777,10.777,0,0,0,3-1h1s-1.423-.294,1,2,1.778-.294,3,2a12.188,12.188,0,0,0,2,3s-5.222,1.907,1,0,6.578-1.494,6-4-3.822-6.1,0-5,2.978,0.907,4,1-0.422.107,2-1a9.146,9.146,0,0,1,4-1s2.778-2.5,1,1-4.422,3.708-2,5-5.622.106,3,1,7.178-.294,12,0a52.08,52.08,0,0,0,8,0c3.223-.107,4.377-3.9,6-1s-0.622,2.508,2,4-0.222,5.109,4,1,4.178-5.7,6-6a9.556,9.556,0,0,0,3-1s-2.215-.786,4-1,3.985-.786,7-1-1.415.615,5-1,2.785-.986,9-2a60.631,60.631,0,0,1,11-1c2.015-.015,1.585,3.016,6,0s3.985-3.588,6-3,1.785-.185,4,2a14.075,14.075,0,0,0,6,3,12.861,12.861,0,0,1,3,0c1.815,0.186,2.385,3.016,6-2s2.985-4.989,4-5-0.215,1.615,2,2,2.185,1.416,6,1,7-1,7-1,2.585-2.987,4-1a13.145,13.145,0,0,0,3,3c0.615,0.586.585,1.016,4,1s2.385,1.015,4,0,0.185-.186,2-2l2-2s1.985-2.186,2,1-1.015,3.017,0,4,2.385,1.016,3,2,4.185,2.416,5,2,3-2,3-2a17.916,17.916,0,0,0,3-3c1.414-1.816.384-2.187,2-2s2.784,0.614,3,3-1.615,2.217,0,3,4.785,1.816,5,1-0.615-2.187,1-3,6-3,6-3,1.185,0.415,2,3,1,3,1,3h3s9.509-.791,12-1,4.709-2.392,7-3-0.692-1.991,5-2,4.709-.59,9-2a70.313,70.313,0,0,1,7-2c3.092-.81,4.309.21,5-2s0.907-2.192,1-3,0.509-.39,0-3-3.491-1.192,0-4,0.309-7.395,4-3,0.109,4.212,3,5,5.308,0.01,7,1,2.308,0.81,3,2,0.708,1.41,2,2,0.508,1.41,5,1a55.988,55.988,0,0,0,7-1s-1.691,2.211,1,3,2.108,3.411,4,0a32.893,32.893,0,0,1,6-7,3.629,3.629,0,0,1,2-1,12.9,12.9,0,0,1,3,0s3.669-3.134,6-4,1.068-1.534,4-2a31.579,31.579,0,0,0,7-2c0.332-.267.268-1.333,3-1a60.113,60.113,0,0,0,8,0s3.269-2.334,4-3a27.813,27.813,0,0,1,3-2s2.871-5.936,3-2,0.87,4.67,2,5,3-1,3-1l1,2a3.012,3.012,0,0,0,2,1,5.714,5.714,0,0,0,3-1s-1.53-.733,0-3,2-3,2-3,2.27,0.668,0-1-4.33-2.934-2-3a29.609,29.609,0,0,1,3,0,43.525,43.525,0,0,1,4,2,11.72,11.72,0,0,0,3,1s2.47-1.133,1-3a17.583,17.583,0,0,1-2-3l2-2s-0.13-1.733,1-2a5.421,5.421,0,0,0,2-1s0.27-.132,2-1a21.776,21.776,0,0,1,5-2,15.674,15.674,0,0,0,3-1s3.67,0.868,5,0-0.33-1.534,3-1,4.27,0.268,5,1a4.6,4.6,0,0,0,2,1s-0.33.268,3,2,3.87,0.668,4,2-0.53-.132-1,2-0.33,2.069,0,3-1.93,1.669-3,3-2.33.468-1,2,0.27,4.47,2,2,3.44-3.824,7-4,0.84-2.422,4,0a16.346,16.346,0,0,0,6,3s-7.56,3.381,1,2,7.64-1.622,9-1,1.84,1.379,4,2-1.36,2.58,7,1,9.84-.021,13,0,9.24-.821,11,0,4.04,3.381,9,2,6.64-1.021,7,0,4.44-2.622,3,2-1.36,3.182-2,6,2.04,1.38,0,4-0.76,2.18-1,4,1.04-2.423-3,0-3.16,2.381-4,3-1.76-2.422-1,1-0.16,1.18,3,3a19.474,19.474,0,0,0,4,2s2.24-1.422,0,1-2.36.18-4,4-1.36,2.38-3,6-2.16,3.982-3,6-0.96.379-1,3,0.24,2.98-2,5-2.36.38-2,2,0.84,2.58,3,3,3.44,0.98,4,1-0.76,5.382,2-1,1.24-8.625,4-9,5.44-.221,7-1,2.84-.822,4-2,2.84-2.222,4-4,2.24-2.822,3-4,1.24-2.623,2-4,2.24-2.422,3-4a7.214,7.214,0,0,1,2-3c1.36-1.38,2.44-1.421,3-3a30,30,0,0,1,2-4,64.653,64.653,0,0,0,13,0c5.43-.788,6.37-0.813,9-3s5-4,5-4l2-2s0.97-3.014,2-3,1.77-1.013,3-1,3.17-1.814,6-2,3.97-.212,5-1,1.57-3.615,4-4,0.37-1.414,4-1,6.57-.413,8,0,3.37-2.214,4-2,0.77-1.214,4-1,5.37-.412,7,0,2.57,0.988,4,0,5-3,5-3a6.557,6.557,0,0,1,3-1c1.43,0.012,13.17-2.014,18-2s3.17-1.214,7-1,5.77,0.788,8,1,2.57,0.388,4,0,1.17-1.414,3-1,2.97-.213,6,1,4.17,2.589,5,1-6.63-3.214,1-2,8.97,1.989,10,1,0.97-3.815,2-2,0.37,5.791,4,4a24.806,24.806,0,0,0,5-3s-1.03-1.213,3-2,1.97-4.215,4-5,0.97-.613,3-1,5-1,5-1,3.77-.813,6,1,4.57,1.988,6,3,2.77,0.988,5,2,2.77-.013,6,1a17.767,17.767,0,0,0,4,1l1,2s9.18,5.395,13,3,3.38-2.409,5-3,2.58,2.393,2-1-2.42-2.41,0-4,0.58-2.41,5-3,7-1,7-1c4.4,1.4,6.78.391,8,2s-1.82.792,2,3,5.58-.008,6,3,2.58,1.793,0,3-4.62.792-7,2-3.82-.408-3,2-0.22,2.994,3,3,2.78,0.192,6-1a41.737,41.737,0,0,1,6-2,78.707,78.707,0,0,1,8-1,25.85,25.85,0,0,1,4,0,4.8,4.8,0,0,0,2,2c1.62,1.008,6,2,6,2s6.58-2.81,10-3,0.98,3.194,4,0,0.98-3.61,4-4-1.22.392,3,0,1.98-1.009,5-1,3.38-1.008,5-1,5-2,5-2-0.22-5.411,3-1,5.78,7.6,6,8-2.82.592,1,1,0.58-.208,5,0,5.58,1.993,7,0-0.42.593,3-4,2.38-6.412,4-6a10.532,10.532,0,0,0,5,0c1.82-.392,5.18-0.808,6-1s0.78-.408,3,0a27.236,27.236,0,0,0,6,0c4.2,2.8,6.78,3.594,8,3a5.416,5.416,0,0,0,2-2,23.462,23.462,0,0,1,5,1c1.22,0.609.18,0.192,3,1a18.618,18.618,0,0,0,6,1c2.02,0.008,6,0,6,0l1,1,2,1a73.3,73.3,0,0,0,11,1c4.63-.081,6,0,6,0s-1.44,2.682,2,3,4.57-.12,6,0,0.57-.32,2,0,8.77-2.721,5,2-6.23,4.083-4,6,1.56,5.885,5,2,7-4,7-4-3.04-2.721,1,2,4.77,4.484,6,5,1.36,1.682,5,2,4.17,0.681,6,0a9.838,9.838,0,0,1,4-1,20.857,20.857,0,0,1,5,0c1.83,0.319,1.97.081,3,1s-1.24,3.283,2,3,2.76-1.52,4-2,1.76-.72,4,0-1.03,3.282,3,2,4.56-.119,5-2-3.43-4.522,2-2,6.37,1.482,9,4,5.17,3.883,7,3,0.37-2.921,4-1,3.77,5.683,6,3,0.37-6.723,5-3,4.57,4.883,6,6-1.63-.92,3,1-1.38,114.105-3,116.068-5.38,1.538-5,6,0.12,4.04-2,6-12.38,1.038-4,4,10,3,10,3-0.38-2.964,1,2-0.88,2.539,0,7,1.12,1.539,1,4-4.88-1.963,0,6,9.12,6.541,8,14.008S1691,920,1691,920L45,923l2-270.144Zm213,58.034c2.094-1.444-.843,2.7,3-2s0.656-5.059,4-6,2.906-.807,5-2,3.406-.557,4-2,3.657-2.808,1-3-0.344-1.307-5,0-3.093-.056-6,2-2.094.944-5,3-3.6,1.7-6,3-3.093.944-4,2-2.343-.056-2,2-2.593,1.445,1,3,2.906,2.945,5,2,1.657-.056,3-1S295.906,714.335,298,712.891ZM396,727.9l2-5,4,2,4-1,3-2,3-4a7.372,7.372,0,0,0,2-2c1.344-1.7,3.657-2.808,3-5a46.428,46.428,0,0,1-1-7l2-3s3.406-4.309,5-5,1.907-2.308,4-3,4.157-2.057,6-2a52.282,52.282,0,0,1,7,1c1.344,0.306.657-.557,6,1s7.407,0.444,8,2,1.157,0.944-1,4-4.344,3.195-5,4-6.844-.307-1,1,5.406,0.944,7,1,0.907-1.807,2,1,3.156,3.445,3,5,1.407-.557,0,3-1.593,4.946-2,6,1.657,3.446-2,4-1.344.194-8,2a82.016,82.016,0,0,1-10,2c-0.906.307-1.843,0.444-7,1s-7.344.945-10,2-2.593,2.194-6,3-4.593,1.945-7,1a64.642,64.642,0,0,0-8-2l-4-1s-6.093,2.195-3-1S396,727.9,396,727.9Zm-38,1c0.594-2.194,1-4,1-4l1-1-1-2s0.406-4.058-2-4-1.844-1.307-4,0-1.594.444-3,2-5.594-.306-3,3,5.407,3.946,3,5-0.6,1.444-4,1-3.844-.306-9-1-5.843-1.308-10-1-7.343-1.307-5,0-0.593,3.446,4,4,1.657,0.693,6,0,2.657-2.058,6-1,6.407,5.447,8,5,1.657-.057,4-1,1.9-.557,4-2,3-2,3-2S357.405,731.1,358,728.9Zm-35-9v-3s-1.094-.306-3-1a23.346,23.346,0,0,0-4-1l-2-2,1-2s-2.843-3.308-4-2a19.772,19.772,0,0,1-2,2s-0.844,3.445,1,4a8.563,8.563,0,0,0,4,0s1.406,2.695,2,3-0.343.694,2,2,1.157,2.2,3,2A2.237,2.237,0,0,0,323,719.9Zm-42-98.057s-1.945.859,4,1,6.8,1.359,12-1,6.055-.141,8-5,3.3-7.4,3-9,2.8-4.144-1-9-5.2-8.4-7-10.006,0.3-3.394-4-4-5.7-1.892-7-1-3,2-3,2,3.555-.642,3,3-4.7,4.611-2,6a14.655,14.655,0,0,0,8,2c3.195-.108,2.8-1.642,3,0s1.555,1.11-1,2-4.445-.642-4,1,0.555,0.859,4,2,7.8,3.111,3,3-4.445-1.892-7-1a11.928,11.928,0,0,0-4,2,5.086,5.086,0,0,1-4,1c-1.555-.108-4,0-4,0s1.3-1.642,0,1-0.445,2.11-3,3c-1.663.58-5.574,2.257-2.574,1.757s-0.708-.108-1.426-0.757c-2.055-1.859-3-1-3-1l-5,1s-3.445.109,1,2,2.8,2.36,5,2,6.055-3.893,9-4-3.445-1.892,3,0,3.3,2.11,6,2,5.8-.641,3,1,1.3,0.859-5,2-7.7,1.61-8,3A1.821,1.821,0,0,0,281,621.838Zm26-49.028s-0.7-3.644,1-4,1.3-.141,2-2,2.555-4.894,0-4-3.2.359-4,3-3.445,2.36-3,4a18.38,18.38,0,0,0,2,4Zm-46,34.019c1.195,0.142,2.555-.892,4-1s-0.2-.892,3-1,5.555,0.359,6-1,3.055-2.393,0-2-3.945,1.11-5,1-2.945.359-5,0-3.7-.892-4,1S259.8,606.688,261,606.829Zm8,25.015s0.3,0.108,1-2,1.055-4.144-1-4-4.445-.392-4,1,0.3,1.109-1,2a7.653,7.653,0,0,0-2,2s0.3-.141,2,1,2,1,2,1ZM136,621.838l4-1,3-2s3.469-1.959-1-1-3.031,2.043-4,1,0-3,0-3-2.531-.958-4,0-6,2-6,2l-1-4s-1.531.543-3,1-3,1-3,1l-4-2a38.346,38.346,0,0,0-5,0c-1.469.208-6,1-6,1l1,4,3,1s1.969-1.208,3-1a39.147,39.147,0,0,0,5,0l5,1,7,2h6Z" transform="translate(-64 -521.5)"/>
</svg>
