<?xml version="1.0" encoding="iso-8859-1"?>
<!-- Generator: Adobe Illustrator 19.0.0, SVG Export Plug-In . SVG Version: 6.00 Build 0)  -->
<svg version="1.1" id="Capa_1" xmlns="http://www.w3.org/2000/svg" xmlns:xlink="http://www.w3.org/1999/xlink" x="0px" y="0px"
	 viewBox="0 0 368 368" style="enable-background:new 0 0 368 368;" xml:space="preserve">
<g>
	<g>
		<path d="M328,64c4.424,0,8-3.584,8-8V8c0-4.416-3.576-8-8-8H40c-4.424,0-8,3.584-8,8v48c0,4.416,3.576,8,8,8h24v112H40
			c-4.424,0-8,3.584-8,8v48c0,4.424,3.576,8,8,8h24v120c0,4.424,3.576,8,8,8h224c4.424,0,8-3.576,8-8V240h24c4.424,0,8-3.576,8-8
			v-48c0-4.416-3.576-8-8-8h-24V64H328z M288,352H80V240h208V352z M320,192v32H48v-32H320z M80,176V64h208v112H80z M48,48V16h272v32
			H48z"/>
	</g>
</g>
<g>
	<g>
		<path d="M232,112h-96c-4.424,0-8,3.584-8,8s3.576,8,8,8h96c4.424,0,8-3.584,8-8S236.424,112,232,112z"/>
	</g>
</g>
<g>
	<g>
		<path d="M232,288h-96c-4.424,0-8,3.576-8,8s3.576,8,8,8h96c4.424,0,8-3.576,8-8S236.424,288,232,288z"/>
	</g>
</g>
<g>
</g>
<g>
</g>
<g>
</g>
<g>
</g>
<g>
</g>
<g>
</g>
<g>
</g>
<g>
</g>
<g>
</g>
<g>
</g>
<g>
</g>
<g>
</g>
<g>
</g>
<g>
</g>
<g>
</g>
</svg>
