<?xml version="1.0" encoding="iso-8859-1"?>
<!-- Generator: Adobe Illustrator 19.0.0, SVG Export Plug-In . SVG Version: 6.00 Build 0)  -->
<svg version="1.1" id="Capa_1" xmlns="http://www.w3.org/2000/svg" xmlns:xlink="http://www.w3.org/1999/xlink" x="0px" y="0px"
	 viewBox="0 0 512 512" style="enable-background:new 0 0 512 512;" xml:space="preserve">
<g>
	<g>
		<path d="M431.24,376.92c23.374-15.765,38.777-42.488,38.777-72.742c0-48.347-39.333-87.68-87.68-87.68
			c-48.347,0-87.68,39.333-87.68,87.68c0,30.253,15.402,56.977,38.777,72.742c-38.545,15.755-67.877,49.544-77.433,90.827
			c-9.556-41.284-38.888-75.072-77.433-90.827c23.374-15.766,38.776-42.488,38.776-72.742c0-48.347-39.333-87.68-87.68-87.68
			c-48.347,0-87.68,39.333-87.68,87.68c0,30.253,15.402,56.977,38.777,72.742C33.435,396.265,0,442.797,0,497v15h512v-15
			C512,442.797,478.565,396.265,431.24,376.92z M71.984,304.179c-0.001-31.805,25.874-57.68,57.68-57.68
			c31.805,0,57.68,25.875,57.68,57.68s-25.875,57.68-57.68,57.68S71.984,335.984,71.984,304.179z M31.127,482
			c7.257-47.862,48.681-84.664,98.537-84.664s91.28,36.801,98.537,84.664H31.127z M324.656,304.179
			c0-31.805,25.875-57.68,57.68-57.68s57.68,25.875,57.68,57.68s-25.875,57.68-57.68,57.68S324.656,335.984,324.656,304.179z
			 M283.799,482c7.257-47.862,48.681-84.664,98.537-84.664c49.857,0,91.281,36.801,98.538,84.664H283.799z"/>
	</g>
</g>
<g>
	<g>
		<path d="M113,0v185.667h106.459L256,210.028l36.542-24.361H399V0H113z M369,155.667h-85.541L256,173.972l-27.458-18.305H143V30
			h226V155.667z"/>
	</g>
</g>
<g>
	<g>
		<polygon points="293.76,46.944 250.668,87.206 227.555,70.203 209.778,94.369 252.951,126.128 314.24,68.865 		"/>
	</g>
</g>
<g>
</g>
<g>
</g>
<g>
</g>
<g>
</g>
<g>
</g>
<g>
</g>
<g>
</g>
<g>
</g>
<g>
</g>
<g>
</g>
<g>
</g>
<g>
</g>
<g>
</g>
<g>
</g>
<g>
</g>
</svg>
