<?xml version="1.0" encoding="iso-8859-1"?>
<!-- Generator: Adobe Illustrator 19.0.0, SVG Export Plug-In . SVG Version: 6.00 Build 0)  -->
<svg version="1.1" id="Capa_1" xmlns="http://www.w3.org/2000/svg" xmlns:xlink="http://www.w3.org/1999/xlink" x="0px" y="0px"
	 viewBox="0 0 512 512" style="enable-background:new 0 0 512 512;" xml:space="preserve">
<g>
	<g>
		<path d="M512,192.356L394.882,75.24l-24.32,24.321h-92.886l-36.908,36.908l-51.663-1.938l-61.381-59.089L0,203.165l50.882,51.231
			l28.739,83.532l122.201,98.832h99.862l96.062-108.878l-10.346-10.346L512,192.356z M198.166,395.041l-78.366-63.379l28.468-11.437
			l57.805,51.286L198.166,395.041z M288.081,406.619H226.07l14.924-44.415l-86.669-76.895l-53.537,21.508l-23.656-68.759
			l-34.584-34.822l85.577-85.576l48.36,46.555l35.212,1.321l-73.852,73.851l68.651,34.325l67.257-27.202l82.66,82.66
			L288.081,406.619z M280.954,211.09l-73.146,29.584l-19.082-9.541L290.159,129.7h92.886l11.837-11.837l74.544,74.543
			L366.089,296.225L280.954,211.09z"/>
	</g>
</g>
<g>
</g>
<g>
</g>
<g>
</g>
<g>
</g>
<g>
</g>
<g>
</g>
<g>
</g>
<g>
</g>
<g>
</g>
<g>
</g>
<g>
</g>
<g>
</g>
<g>
</g>
<g>
</g>
<g>
</g>
</svg>
