<?xml version="1.0" encoding="utf-8"?>
<!-- Generator: Adobe Illustrator 22.1.0, SVG Export Plug-In . SVG Version: 6.00 Build 0)  -->
<svg version="1.1" id="Layer_1" xmlns="http://www.w3.org/2000/svg" xmlns:xlink="http://www.w3.org/1999/xlink" x="0px" y="0px"
	 viewBox="0 0 512 512" style="enable-background:new 0 0 512 512;" xml:space="preserve" fill="#ffffff">
<g>
	<g>
		<path d="M259.3,319.2l-7.5-51.7c-7.7-0.5-15-2.2-21.9-4.9l6.5,45h-42.3c6,7.1,12.3,14.1,18.8,21h42l-5.1,35.3
			c1.9,1.6,3.8,3.3,5.7,4.9c5.7-4.8,11.4-9.8,17-15l2-13.5h12.2c6.9-6.8,13.6-13.8,20.1-21H259.3z"/>
		<path d="M455.9,182.9H440c0,0.8,0.1,1.6,0.1,2.4c0,7.8-0.6,15.6-1.7,23.3l16,110.6h-63.9c-5.1,7.2-10.4,14.2-15.8,21h82.7
			l19.2,132.6H255.3l3.6-24.7l-3.3,2.4l-16.5-12.1l-5,34.3h-48.8l-13.4-92.9c-0.5-0.5-1-1-1.5-1.5H51.1l7.2-49.9h69.1
			c-5.1-6.8-10-13.8-14.7-21H61.3l13-89.8c-2.1-10.7-3.2-21.5-3.2-32.5c0-0.8,0.1-1.6,0.1-2.4h-13L37.1,328.5h0l-7.2,49.9h0
			L13.2,493.8h175.1h42.8h269.8L455.9,182.9z M37.4,472.8L48,399.4h105.4l10.6,73.4H37.4z"/>
	</g>
	<g>
		<path d="M255.6,21.8c-90.2,0-163.5,73.4-163.5,163.5c0,117.6,150.3,229.5,156.7,234.3l6.8,5l6.8-5
			c6.4-4.7,156.7-116.6,156.7-234.3C419.1,95.1,345.7,21.8,255.6,21.8z M256.9,394.8l-1.3,1.1l-1.3-1.1
			C221.6,368.6,115,276,115,185.3c0-77.5,63.1-140.6,140.6-140.6s140.6,63.1,140.6,140.6C396.2,276,289.6,368.6,256.9,394.8z"/>
		<circle cx="257" cy="193.4" r="53.4"/>
	</g>
</g>
</svg>
