<?xml version="1.0" encoding="iso-8859-1"?>
<!-- Generator: Adobe Illustrator 19.0.0, SVG Export Plug-In . SVG Version: 6.00 Build 0)  -->
<svg version="1.1" id="Layer_1" xmlns="http://www.w3.org/2000/svg" xmlns:xlink="http://www.w3.org/1999/xlink" x="0px" y="0px"
	 viewBox="0 0 480 480" style="enable-background:new 0 0 480 480;" xml:space="preserve">
<g id="XMLID_144_">
	<g>
		<g>
			<path d="M338.872,350.738c-8.725-4.607-29.357-16.299-38.872-24.881v-21.726c29.67-17.465,50.125-47.779,57.272-84.87
				C376.42,215.401,390,196.82,390,180c0-15.582-11.484-26.442-30-29.266v-15.553c0.156-4.682,1.344-63.922-35.944-102.731
				C303.367,10.918,275.087,0,240,0c-35.179,0-63.51,10.939-84.206,32.515c-37.191,38.77-35.96,97.859-35.794,102.664v15.556
				c-18.516,2.824-30,13.684-30,29.266c0,16.82,13.58,35.401,32.727,39.261c7.147,37.089,27.601,67.402,57.273,84.87v21.726
				c-9.522,8.589-30.18,20.292-38.893,24.892c-98.96,32.188-101.064,91.568-101.106,94.086C40,444.89,40,444.945,40,445v25
				c0,5.523,4.477,10,10,10h380c5.522,0,10-4.477,10-10v-25.055C439.986,442.41,438.521,382.639,338.872,350.738z M360,171.052
				c5.103,1.191,10,3.7,10,8.948c0,5.897-4.216,12.849-10.173,16.809C359.93,194.501,360,171.052,360,171.052z M110,180
				c0-5.248,4.897-7.757,10-8.948c0,0,0.071,23.45,0.174,25.757C114.216,192.849,110,185.897,110,180z M170.227,46.359
				C187.005,28.869,210.48,20,240,20c29.386,0,52.786,8.822,69.551,26.221c23.829,24.73,29.074,61.12,30.187,78.472
				c-56.361-3.302-98.522-32.547-98.956-32.852c-3.051-2.162-7.053-2.441-10.374-0.723C227.086,92.834,225,96.261,225,100
				c0,1.838-2.789,5.316-10.648,9.069c-7.907,3.775-19.195,7.081-33.55,9.825c-15.244,2.914-30.658,4.533-40.551,5.362
				C141.362,106.804,146.604,70.985,170.227,46.359z M141.215,208.503C140.409,202.032,140,195.807,140,190v-45.647
				c10.185-0.807,27.179-2.505,44.371-5.78c28.698-5.466,47.021-13.329,55.365-23.843c17.252,9.909,54.181,27.691,100.264,30.017
				V190c0,5.807-0.409,12.032-1.216,18.503c-5.052,36.73-24.735,66.317-54.006,81.178C271.271,296.528,256.206,300,240,300
				c-16.205,0-31.271-3.472-44.773-10.316C165.951,274.82,146.267,245.233,141.215,208.503z M279.999,313.394v12.693
				c-3.388,3.412-10.379,9.692-19.719,14.094c-13.353,6.395-27.15,6.421-40.617-0.026c-9.306-4.386-16.28-10.658-19.664-14.068
				v-12.693c12.538,4.382,25.932,6.607,40,6.607C254.066,320.001,267.46,317.777,279.999,313.394z M60,460v-14.791
				c0.066-1.023,1.041-12.561,11.364-26.981c18.465-25.792,51.902-40.724,76.701-48.709c0.539-0.173,27.167-14.158,41.589-25.685
				c3.438,3.083,8.013,6.707,13.503,10.075l-12.643,37.93c-0.684,2.052-0.684,4.272,0,6.324L211.126,460H60z M232.207,460
				l-21.667-65l10.921-32.761c6.108,1.83,12.31,2.761,18.539,2.761c6.234,0,12.441-0.933,18.539-2.759L269.459,395l-21.667,65
				H232.207z M420,460H268.875l20.613-61.838c0.684-2.052,0.684-4.272,0-6.324l-12.645-37.934
				c5.491-3.37,10.066-6.992,13.502-10.072c14.422,11.528,41.081,25.525,41.636,25.701c45.19,14.316,66.743,34.303,76.865,48.549
				c10.371,14.597,11.116,26.279,11.154,27.05V460z"/>
			<rect x="305" y="415" width="70" height="20"/>
		</g>
	</g>
</g>
<g>
</g>
<g>
</g>
<g>
</g>
<g>
</g>
<g>
</g>
<g>
</g>
<g>
</g>
<g>
</g>
<g>
</g>
<g>
</g>
<g>
</g>
<g>
</g>
<g>
</g>
<g>
</g>
<g>
</g>
</svg>
