<?xml version="1.0" encoding="iso-8859-1"?>
<!-- Generator: Adobe Illustrator 19.0.0, SVG Export Plug-In . SVG Version: 6.00 Build 0)  -->
<svg version="1.1" id="Capa_1" xmlns="http://www.w3.org/2000/svg" xmlns:xlink="http://www.w3.org/1999/xlink" x="0px" y="0px"
	 viewBox="0 0 511.999 511.999" style="enable-background:new 0 0 511.999 511.999;" xml:space="preserve">
<g>
	<g>
		<path d="M290.72,139.76c16.32-0.001,31.76-3.874,46.028-7.454c17.304-4.342,33.649-8.444,50.024-5.959l17.25,2.615V8.817
			l-9.702-3.663c-26.685-10.077-50.272-3.289-71.084,2.7c-18.268,5.257-35.523,10.223-55.496,5.311l-18.583-4.569v147.939
			c-62.988,7.445-112.007,61.161-112.007,126.118c0,41.414,20.108,79.789,53.336,103.456v125.891h30.002v-34.457h87.339v34.457
			h30.002V386.106c33.418-23.836,53.336-62.4,53.336-103.452c0-64.957-49.019-118.672-112.007-126.118v-17.462
			C283.058,139.548,286.912,139.76,290.72,139.76z M279.159,45.058c19.675,1.038,36.823-3.897,52.374-8.372
			c15.769-4.537,28.851-8.302,42.487-6.077v64.996c-15.64,0.342-30.287,4.016-44.574,7.601c-18.118,4.546-34.179,8.575-50.287,5.544
			v-7.581h0V45.058z M307.828,447.541h-87.339v-37.88h87.339V447.541z M307.828,379.659h-87.339v-37.881h87.339V379.659z
			 M361.164,282.653c0,23.369-8.459,45.684-23.334,63.079v-79.08h-30.002v45.124h-87.339v-45.124h-30.002v79.117
			c-14.821-17.304-23.334-39.567-23.334-63.116c0-53.489,43.517-97.006,97.006-97.006
			C317.647,185.648,361.164,229.164,361.164,282.653z"/>
	</g>
</g>
<g>
	<g>
		
			<rect x="179.234" y="71.636" transform="matrix(0.7071 -0.7071 0.7071 0.7071 -5.4073 165.2203)" width="35.002" height="35.002"/>
	</g>
</g>
<g>
	<g>
		
			<rect x="131.654" y="117.725" transform="matrix(0.7071 -0.7071 0.7071 0.7071 -51.9324 145.0751)" width="35.002" height="35.002"/>
	</g>
</g>
<g>
	<g>
		
			<rect x="115.227" y="53.72" transform="matrix(0.7071 -0.7071 0.7071 0.7071 -11.4855 114.7127)" width="35.002" height="35.002"/>
	</g>
</g>
<g>
</g>
<g>
</g>
<g>
</g>
<g>
</g>
<g>
</g>
<g>
</g>
<g>
</g>
<g>
</g>
<g>
</g>
<g>
</g>
<g>
</g>
<g>
</g>
<g>
</g>
<g>
</g>
<g>
</g>
</svg>
