<?xml version="1.0" encoding="iso-8859-1"?>
<!-- Generator: Adobe Illustrator 19.0.0, SVG Export Plug-In . SVG Version: 6.00 Build 0)  -->
<svg version="1.1" id="Capa_1" xmlns="http://www.w3.org/2000/svg" xmlns:xlink="http://www.w3.org/1999/xlink" x="0px" y="0px"
	 viewBox="0 0 512 512" style="enable-background:new 0 0 512 512;" xml:space="preserve">
<g>
	<g>
		<path d="M471.682,252.805c0-57.61-22.435-111.773-63.172-152.51c-37.654-37.654-86.78-59.655-139.495-62.772V0h-30v37.786
			c-51.209,3.963-98.818,25.801-135.525,62.508c-40.737,40.737-63.172,94.899-63.172,152.51c0,57.611,22.435,111.773,63.172,152.51
			c10.302,10.302,21.465,19.428,33.323,27.323L110.932,512h31.554l20.957-64.263c28.552,13.582,60.002,20.75,92.556,20.75
			c31.25,0,61.479-6.615,89.107-19.157L365.543,512h31.555l-25.185-77.23c13.081-8.369,25.352-18.211,36.597-29.455
			C449.247,364.578,471.682,310.415,471.682,252.805z M256,438.486c-102.385,0-185.682-83.297-185.682-185.682
			S153.615,67.122,256,67.122c102.386,0,185.683,83.297,185.683,185.682S358.385,438.486,256,438.486z"/>
	</g>
</g>
<g>
	<g>
		<path d="M256,104.715c-81.656,0-148.089,66.432-148.089,148.089S174.343,400.893,256,400.893s148.09-66.433,148.09-148.089
			S337.657,104.715,256,104.715z M256,370.893c-65.115,0-118.089-52.974-118.089-118.089S190.886,134.715,256,134.715
			c65.115,0,118.09,52.974,118.09,118.089S321.115,370.893,256,370.893z"/>
	</g>
</g>
<g>
	<g>
		<path d="M246.349,233.635c0-3.24,2.97-5.94,12.285-5.94c8.234,0,17.009,2.295,26.323,7.02l9.585-23.084
			c-7.694-4.32-17.414-6.885-27.404-7.83v-14.445h-19.034v14.714c-22.139,3.105-33.208,15.93-33.208,31.184
			c0,35.234,52.242,25.649,52.242,37.529c0,3.24-3.239,5.13-12.284,5.13c-10.395,0-22.275-3.375-31.184-8.64l-10.26,23.219
			c8.099,4.995,21.194,8.64,34.693,9.45v14.31h19.034v-14.985c20.925-3.645,31.454-16.334,31.455-30.914
			C298.592,235.525,246.349,244.974,246.349,233.635z"/>
	</g>
</g>
<g>
</g>
<g>
</g>
<g>
</g>
<g>
</g>
<g>
</g>
<g>
</g>
<g>
</g>
<g>
</g>
<g>
</g>
<g>
</g>
<g>
</g>
<g>
</g>
<g>
</g>
<g>
</g>
<g>
</g>
</svg>
