<svg 
 xmlns="http://www.w3.org/2000/svg"
 xmlns:xlink="http://www.w3.org/1999/xlink"
 width="138px" height="222px">
<path fill-rule="evenodd"  stroke-width="1px" stroke="rgb(51, 142, 255)" opacity="0.302" fill="rgb(255, 255, 255)"
 d="M31.500,205.500 L35.500,207.500 C35.500,207.500 33.833,210.833 32.500,213.500 C31.167,216.167 32.500,218.167 34.500,217.500 C36.500,216.833 41.833,215.500 43.500,215.500 C45.167,215.500 48.500,209.500 48.500,209.500 L52.500,212.500 C52.500,212.500 63.167,197.833 66.500,187.500 C66.500,187.500 68.833,184.167 69.500,173.500 C69.500,173.500 69.500,165.833 70.500,161.500 C70.500,161.500 70.833,157.167 73.500,151.500 C76.167,145.833 77.167,140.167 76.500,133.500 C75.833,132.167 72.833,124.500 68.500,119.500 C68.500,119.500 63.500,112.500 61.500,113.500 C59.500,114.500 55.833,117.500 54.500,118.500 C53.167,119.500 48.833,123.167 43.500,118.500 C43.500,118.500 33.500,112.167 34.500,105.500 C34.500,105.500 31.833,99.833 49.500,84.500 C49.500,84.500 57.167,77.167 62.500,69.500 C67.833,61.833 78.167,52.500 81.500,50.500 C84.833,48.500 105.167,44.833 109.500,44.500 C113.833,44.167 131.500,41.500 131.500,41.500 C131.500,41.500 130.833,36.167 128.500,35.500 C128.500,35.500 124.167,36.833 123.500,34.500 C123.500,34.500 121.167,32.500 124.500,30.500 C127.833,28.500 130.833,25.833 132.500,23.500 C134.167,21.167 133.500,19.500 133.500,19.500 C133.500,19.500 135.167,15.167 133.500,15.500 C131.833,15.833 130.500,15.500 130.500,15.500 C130.500,15.500 129.833,13.500 129.500,12.500 C129.167,11.500 123.500,10.500 123.500,10.500 L120.500,10.500 C120.500,10.500 116.833,9.833 113.500,9.500 C110.167,9.167 97.833,8.167 95.500,6.500 C93.167,4.833 87.167,2.500 85.500,4.500 C85.500,4.500 81.500,15.167 76.500,18.500 C76.500,18.500 70.500,25.833 68.500,26.500 C66.500,27.167 64.167,32.500 64.500,39.500 C64.500,39.500 59.167,48.833 52.500,50.500 C48.161,51.584 39.500,52.500 33.500,53.500 C27.500,54.500 22.833,52.167 22.500,56.500 C22.500,56.500 21.500,63.500 19.500,66.500 C17.500,69.500 9.833,74.167 9.500,79.500 C9.167,84.833 8.833,95.833 7.500,100.500 C7.500,100.500 3.833,106.167 6.500,107.500 C9.167,108.833 18.833,108.833 22.500,113.500 C22.500,113.500 20.500,115.500 17.500,118.500 C14.500,121.500 9.500,123.833 8.500,125.500 C7.500,127.167 3.833,131.167 3.500,132.500 C3.167,133.833 8.500,133.500 8.500,133.500 C8.500,133.500 10.833,139.833 12.500,141.500 C14.167,143.167 13.833,146.500 17.500,143.500 C21.167,140.500 32.167,138.500 34.500,141.500 C34.500,141.500 39.167,142.833 38.500,144.500 C37.833,146.167 35.167,144.500 34.500,147.500 C33.833,150.500 36.167,153.500 33.500,153.500 C30.833,153.500 15.500,160.500 10.500,164.500 C5.084,168.833 4.500,168.500 4.500,168.500 C4.500,168.500 4.500,172.167 4.500,174.500 C4.500,176.833 4.833,178.500 7.500,180.500 C10.167,182.500 11.833,182.833 11.500,186.500 C11.167,190.167 9.167,191.167 11.500,192.500 C13.833,193.833 22.833,195.500 25.500,196.500 C28.167,197.500 29.833,200.167 30.500,202.500 C31.167,204.833 31.500,205.500 31.500,205.500 Z"/>
</svg>