<?xml version="1.0" encoding="iso-8859-1"?>
<!-- Generator: Adobe Illustrator 19.0.0, SVG Export Plug-In . SVG Version: 6.00 Build 0)  -->
<svg version="1.1" id="Capa_1" xmlns="http://www.w3.org/2000/svg" xmlns:xlink="http://www.w3.org/1999/xlink" x="0px" y="0px"
	 viewBox="0 0 512 512" style="enable-background:new 0 0 512 512;" xml:space="preserve">
<g>
	<g>
		<path d="M420.234,344.209v-11.247l-105.458-22.38l-35.552-19.456l49.797-21.869l88.953,39.065l-9.666-96.671l64.643-72.527
			l-94.927-20.681l-49.003-83.89l-49.003,83.89l-94.927,20.681l64.643,72.527l-7.502,75.025l-71.743-0.506l-48.822,26.903v-26.962H0
			v191.335h121.667v-33.063h31.85l48.477,32.318h195.612L512,413.974v-69.765H420.234z M91.667,447.447H30v0v-46.848h34v-37.639H30
			v-46.848h61.667V447.447z M241.661,157.503l57.618-12.553l29.743-50.919l29.743,50.919l57.618,12.553l-39.236,44.022l5.867,58.677
			l-53.992-23.712l-53.992,23.712l5.867-58.677L241.661,157.503z M482,396.211l-92.079,50.491H211.078l-48.477-32.318h-40.934
			v-67.057l56.441-31.102l85.592,0.604l40.539,22.184l85.995,18.25v9.888H279.057v30h141.178v-22.941H482V396.211z"/>
	</g>
</g>
<g>
</g>
<g>
</g>
<g>
</g>
<g>
</g>
<g>
</g>
<g>
</g>
<g>
</g>
<g>
</g>
<g>
</g>
<g>
</g>
<g>
</g>
<g>
</g>
<g>
</g>
<g>
</g>
<g>
</g>
</svg>
