<?xml version="1.0" encoding="iso-8859-1"?>
<!-- Generator: Adobe Illustrator 19.0.0, SVG Export Plug-In . SVG Version: 6.00 Build 0)  -->
<svg version="1.1" id="Capa_1" xmlns="http://www.w3.org/2000/svg" xmlns:xlink="http://www.w3.org/1999/xlink" x="0px" y="0px"
	 viewBox="0 0 512 512" style="enable-background:new 0 0 512 512;" xml:space="preserve">
<g>
	<g>
		<path d="M512,313.608V198.392l-48.418-9.399c-3.575-11.049-8.039-21.811-13.342-32.161l27.657-40.891L396.51,34.388L355.565,61.96
			c-10.469-5.39-21.365-9.922-32.559-13.543L313.608,0H198.392l-9.398,48.417c-11.049,3.575-21.812,8.04-32.162,13.342
			l-40.89-27.656l-81.553,81.388l27.572,40.944c-5.39,10.468-9.922,21.365-13.543,32.558L0,198.392v115.216l48.417,9.399
			c3.575,11.049,8.04,21.811,13.342,32.161l-27.656,40.89l81.387,81.553l40.945-27.571c10.468,5.39,21.365,9.922,32.558,13.543
			L198.392,512h115.217l9.398-48.417c11.05-3.575,21.812-8.04,32.161-13.342l40.892,27.656l81.552-81.387l-27.571-40.945
			c5.39-10.469,9.922-21.365,13.543-32.558L512,313.608z M439.838,297.057l-2.475,8.961c-4.137,14.981-10.147,29.432-17.867,42.95
			l-4.619,8.089l24.033,35.691l-46.534,46.441l-35.645-24.108l-8.1,4.603c-13.426,7.631-27.764,13.58-42.614,17.68l-8.962,2.475
			L288.872,482h-65.744l-8.184-42.162l-8.961-2.475c-14.982-4.137-29.433-10.148-42.951-17.867l-8.089-4.619l-35.691,24.034
			l-46.441-46.535l24.108-35.644l-4.603-8.099c-7.63-13.426-13.579-27.765-17.68-42.615l-2.475-8.961L30,288.872v-65.744
			l42.163-8.185l2.474-8.961c4.137-14.982,10.148-29.433,17.867-42.95l4.62-8.09L73.09,119.251l46.535-46.44l35.644,24.108
			l8.099-4.603c13.427-7.63,27.765-13.579,42.616-17.68l8.961-2.475L223.128,30h65.744l8.184,42.162l8.962,2.475
			c14.982,4.137,29.434,10.148,42.951,17.867l8.089,4.619l35.69-24.034l46.44,46.535l-24.107,35.645l4.603,8.099
			c7.631,13.427,13.579,27.765,17.68,42.615l2.475,8.961L482,223.128v65.744L439.838,297.057z"/>
	</g>
</g>
<g>
	<g>
		<path d="M281.585,259.949h-51.169c-29.304,0-53.144,23.84-53.144,53.144v36.856h157.457v-36.856
			C334.729,283.79,310.889,259.949,281.585,259.949z M304.729,319.949h-97.457v-6.856c0-12.761,10.382-23.144,23.144-23.144h51.169
			c12.762,0,23.144,10.382,23.144,23.144V319.949z"/>
	</g>
</g>
<g>
	<g>
		<path d="M256,150.051c-26.018,0-47.185,21.167-47.185,47.185S229.982,244.42,256,244.42s47.185-21.167,47.185-47.185
			S282.018,150.051,256,150.051z M256,214.42c-9.476,0-17.185-7.709-17.185-17.185s7.709-17.184,17.185-17.184
			s17.185,7.709,17.185,17.185C273.185,206.712,265.476,214.42,256,214.42z"/>
	</g>
</g>
<g>
</g>
<g>
</g>
<g>
</g>
<g>
</g>
<g>
</g>
<g>
</g>
<g>
</g>
<g>
</g>
<g>
</g>
<g>
</g>
<g>
</g>
<g>
</g>
<g>
</g>
<g>
</g>
<g>
</g>
</svg>
