<svg xmlns="http://www.w3.org/2000/svg" viewBox="0 0 373.07 89.7"><defs><style>.cls-1{fill:#2764bb;}.cls-2{isolation:isolate;}.cls-3{fill:#4f4f4f;}</style></defs><title>Logo</title><g id="Слой_2" data-name="Слой 2"><g id="Слой_1-2" data-name="Слой 1"><path class="cls-1" fill="currentColor" d="M223.36,67.7a.19.19,0,0,0,0-.27l0,0c-.1-.1-.3-.4-.5-.5s-.3,0-.4-.1v-.2a.1.1,0,0,0-.1-.1h0a.37.37,0,0,1-.3-.1c-.1,0-.1-.1-.2-.1a.37.37,0,0,1-.3-.1c-.1,0-.1-.1-.1-.2s-.1-.2-.2-.3-.1-.1,0-.2.2-.2.2-.3a.3.3,0,0,0,0-.4.6.6,0,0,1,.1-.4c.1-.2,0-.2,0-.3s0-.1.1-.2v-.3c-.1-.1-.2-.2-.2-.3s-.1-.4,0-.4a.37.37,0,0,1-.3-.1c0-.1.1-.2,0-.2h-.1c-.1-.2,0-.3,0-.5v-.2c0-.1.1-.1.1-.2l-.3.2c-.1.1-.3.2-.3.3v.2c0,.1-.1.1-.2.1a.77.77,0,0,0-.3-.2c-.2-.1-.5-.1-.7-.3s-.4-.1-.5-.2a.37.37,0,0,0-.3-.1h-.4l-.1-.1h0a.45.45,0,0,0-.3.3.22.22,0,0,0,.2.2h.1c.2,0,.2.2.3.3a.35.35,0,0,0,.1.2.37.37,0,0,1-.1.3.6.6,0,0,0,.1.4c.1.1.3.2.3.4a.52.52,0,0,1-.2.4c-.1.1-.1.2-.3.2s-.2,0-.3.2a.38.38,0,0,1-.6.1.19.19,0,0,0,0,.27l0,0c0,.1.1.1.1.2v.2c0,.1.1.2.1.4s.3.3.4.4a.75.75,0,0,0,.5.1,4.33,4.33,0,0,0,.5-.1,2,2,0,0,1,1.3.4c0,.1-.1.1-.1.2a.76.76,0,0,0,.4-.2c.1.1.1.2.3.2h.4c.3,0,.4.2.5.5,0,.1,0,.2.1.2l.2.2c.2.2.2.3.4.4a.19.19,0,0,0,.27,0l0,0,.2-.2a.31.31,0,0,1,.2-.1c.1-.1.1-.1.2,0-.1-.1-.1,0,0,0m2.9-29.5c.7-.9.1-1.9-.1-2.8h-.3c-.1.2-.3.5-.3.5a6,6,0,0,0-1.4-.5c-.7.1-.7.8-.5,1.2a10,10,0,0,0,1.6,2,1.1,1.1,0,0,0,1-.4m57.5-10.5c.3-.2.3-.9.2-1.2,0-.1-.5-.3-.8-.3H283c-1.5.9-2,1-3.3.1a9.29,9.29,0,0,0-1,.5c-1,.4-2.3,0-2.9,1.3a2.27,2.27,0,0,1-1.6,1.1c-1,.1-1.3.4-.7,1.2l-2.1.6c-.2.6-.2,1.1-1.1,1.2s-1.1.7-.4,1.4c.2.2.4.5.7.8-.4.1-.6.1-1,.2.7,1.1,1.1,2.5,2.9,2.6a4,4,0,0,0,0-1.1,3.36,3.36,0,0,1,1.9-4.1,7.1,7.1,0,0,0,1.4-1c1.4-1.3,2.9-2.5,5-2.3a5.85,5.85,0,0,0,1.3-.2,5.31,5.31,0,0,0,1.7-.8m18.1-3.4c.3-.3-.1-1.3-.3-1.9-.2-.4-.7-.5-1.2-.8-.3.5-.5.9-.7,1.3a5.84,5.84,0,0,1-.4-1.8c0-.2-.1-.6-.3-.7-.9-.2-.9-1-.9-1.6a.93.93,0,0,0-1-1.1c-.4,0-.8.6-1,1s0,1.1-.1,1.6c-.3,1.2-.2,1.3,1,1.2.2,1.6.2,1.6,2.6,2.1a3.81,3.81,0,0,0-.3,1c0,.3.4.8.4.7a5,5,0,0,0,2.2-1m21.4-4.8a.75.75,0,0,0-.5-.1c-.3,0-.6.1-.9.1s-.6.3-.9.5a3.09,3.09,0,0,0,.2.8c-.5,0-1,.1-1.6.1a3.33,3.33,0,0,0,0,1c.2.8.5,1.7,1.5,1.8a1.54,1.54,0,0,0,1.4-.6c.5-.6.7-1.5,1.2-2.1a1.08,1.08,0,0,0-.37-1.48l0,0m1.5,3.9a9.22,9.22,0,0,0-1.8.3,12.7,12.7,0,0,1,1.4,1.7c.6-.4,1.3-.8,2.1-1.3a3.19,3.19,0,0,0-1.7-.7m1.9-5.1c0-.2,0-.6-.1-.7s-.2-.1-.4-.1a.6.6,0,0,0-.4.1c-.7.4-1.4.8-2.4,1.4.4.3.7.8,1.1.8a2.17,2.17,0,0,0,2.2-1.5m15.8-12.1c.2-.4.6-.8.6-1.2a13.8,13.8,0,0,0-.3-2,2,2,0,0,0-1,2.4c.1.2.5.5.7.8M251.86,55l3.1.48h.25c.34.06-2.53-2.43-2.6-2.37l-3.27-3.23.51,3.19a2.59,2.59,0,0,0,2,1.9m92.2,7.5-3.3.5a1.27,1.27,0,0,0-1.1,1.1l-.5,3.3-.5-3.3a1.18,1.18,0,0,0-1.1-1.1l-3.3-.5,3.3-.5a1.27,1.27,0,0,0,1.1-1.1l.5-3.3.5,3.3a1.18,1.18,0,0,0,1.1,1.1ZM289.26,75.2l3.3.5-3.3.5a1.27,1.27,0,0,0-1.1,1.1l-.5,3.3s-1-4.4-1.6-4.4l-3.3-.5,3.3-.5a1.27,1.27,0,0,0,1.1-1.1l.5-3.3.5,3.3a1.11,1.11,0,0,0,1.1,1.1m-6.7-14.8-4.1.6a1.7,1.7,0,0,0-1.4,1.4l-.6,4.2-.6-4.1a1.7,1.7,0,0,0-1.4-1.4l-4.1-.6,4.1-.6a1.7,1.7,0,0,0,1.4-1.4l.6-4.1.6,4.1a1.7,1.7,0,0,0,1.4,1.4Zm-27.5-4.9,2.1.3-5.4.8a2.23,2.23,0,0,0-1.9,1.9l-.8,5.4-.8-5.4a2.23,2.23,0,0,0-1.9-1.9l-5.4-.8,5.4-.8a2.23,2.23,0,0,0,1.9-1.9l.8-5.4.3,2.3Zm-20.6,18.6-3.2.5a1.27,1.27,0,0,0-1.1,1.1l-.5,3.2-.5-3.2a1.27,1.27,0,0,0-1.1-1.1l-3.2-.5,3.2-.5a1.27,1.27,0,0,0,1.1-1.1l.5-3.2.5,3.2a1.27,1.27,0,0,0,1.1,1.1Zm132.8-28.6a14.17,14.17,0,0,0,3.3,1.2c-.4-1.7,0-3.3-1.4-4.6-.7-.7-1.2-1.5-.1-2.3-.2-.2-.3-.4-.4-.4-1.3-.5-1.5-1.4-1.1-2.6.3-.9-.5-1.2-1-1.5-.7-.5-1.3-.9-.9-2,.3-.6-.3-1-1-1-.9.1-1.5-.2-1.5-1.3a2.79,2.79,0,0,0-1,.1c-.9.8-1.3,0-1.7-.5s-.7-1.1-1.1-1.6c-.1-.2-.2-.5-.1-.6a1.6,1.6,0,0,0,0-2.26l0,0h.9a10.68,10.68,0,0,1-.1-2.5c0-1.4,1.4-.8,2-1.3-1.8-3.5-3.7-7-1.7-11.2-1.2-.1-2.2-.2-3.2-.2a1.63,1.63,0,0,0-1.8,1.1c-.1.3-.5.4-.8.6a4.82,4.82,0,0,1,0-1.2c0-.2.4-.4.5-.6a2.88,2.88,0,0,0,.3-1.5A1.33,1.33,0,0,0,354,8.2a2.11,2.11,0,0,1-1-.4c1.1-.4,2-1,2.1-2,.6-.1,1.1,0,1.4-.2a8.08,8.08,0,0,0,1.6-1.6,1.73,1.73,0,0,0,.3-1.5,1.5,1.5,0,0,0-1.5-.5c-1,.3-1-.2-1.1-.9,0-.4-.4-.7-.6-1.1h-1.7a2.69,2.69,0,0,0-1,2.7c.4,0,.8.1,1.1.1,0,.1.1.2.1.3-.3.1-.6.4-.8.4-1.8-.2-3,.7-4.4,1.6a14.08,14.08,0,0,0-4.3,4.8,8.06,8.06,0,0,1-1.2,1.4c-.7.9-.6,1.5.5,1.8a6.72,6.72,0,0,1,1.2.6v.4c-.5.2-.9.5-1.4.4-1.1,0-1.4.6-1.6,1.5a3.1,3.1,0,0,1-.6,1.3c-.9,1.2-.9,1.5-.1,2.7-.8-.3-1.6-.5-2.3-.7a2.93,2.93,0,0,0-3.8,2.2c-.3,1.4-.1,1.8-1.9,1.7a3.4,3.4,0,0,0-1,.1,2.82,2.82,0,0,1-1.8-.1c-.5-.2-.9.7-.7,1.3.1.3.3.5.4.8-.1.1-.1.2-.2.3-.4-.2-.9-.2-1.2-.5a.66.66,0,0,0-1.1-.1c-.7.6-1.9.7-2,2-.1.5-.4.9.4,1.1a1.82,1.82,0,0,1,.8.5c-.2.7-.3,1.2-.5,1.7a1.07,1.07,0,0,1-.6.2h-.4c-.2,0-.5,0-.6.1-.7.4-1.2,1.2-2.1.9-.1.3-.3.7-.2,1a3.75,3.75,0,0,0,.7,1.2,2.19,2.19,0,0,1-2.49-1.84V31.8a1.36,1.36,0,0,0-1.6-1.4c-1.2.1-2.4.4-3.6.6v.5c.1.5.4,1.2.2,1.3-.5.3-1.4.7-1.7.5-1.5-1-2.9,0-4.4.1a12.37,12.37,0,0,1-1.8.2,28.46,28.46,0,0,0,.6-3.9c0-1.7-1.5-2-2.8-2.7a4.35,4.35,0,0,1-.7.6c-.3.1-.7.3-.8.2a1.7,1.7,0,0,1-.6-1c-.1-.6-.8-1.1-1.3-.7s-1,.9-.9,1.4a1.58,1.58,0,0,1-1.2,1.8c-.1,0-.2.2-.3.3l.6.3a7.6,7.6,0,0,1-1.1.4c-.2-.4-2.1-.5-2.3,0-.6,1.4-2,1.5-3,2.3s-1.4,1.8-.7,2.9l-2.7.3h-.7c-.5.2-.9.4-1.3.6l.7,1.4a5.76,5.76,0,0,0-.5.9c.6.5,1.1,1.1,1.7,1.7-.1.1-.2.2-.2.3-1.3-.7-2.2-2.2-3.9-2.6a6.37,6.37,0,0,0,.2.7c.1.2.3.5.4.7a4.33,4.33,0,0,0-.5.1,2,2,0,0,1-.8-.8c-.1-.4.2-.9.1-1.3-.1-.7-.4-1.2-1-.9a19.14,19.14,0,0,1,0,2.4c0,.2-.7.3-1.1.5.5-1.7.5-1.9-.8-3.5.2-.2.5-.3.7-.5-.1-.1-.1-.3-.2-.3h-.7a4.05,4.05,0,0,0-.9.5,1.47,1.47,0,0,0-.6.5,11.76,11.76,0,0,0-.7,2c-.2.5-.4.9-1.1.9-.3,0-.7.6-.8,1s0,1.1-.6,1.4c-.2.1-.2.8-.2,1.2s.4.5.5.8.4.9.6,1.4c0,.1-.4.4-.5.4a3.57,3.57,0,0,1-1.1-1,6.61,6.61,0,0,0-2.4-3.3,8.78,8.78,0,0,1-1.2-1.5c-.5-.6-.9-.8-1.3-.1.2.5.7,1,.6,1.4-.2.6.4,1.5-.7,1.8,0-1.7-1-.8-1.7-.7-.4-.9-1-1.1-2.7-.7a14.63,14.63,0,0,1,.9-1.3c-.9-.3-1.6-.7-2.3,0a.85.85,0,0,1-.7,0,3.53,3.53,0,0,0-3.3.5c-.3.2-.7.2-1.1.4a2,2,0,0,1-.4-.8c0-.5-.4-1.3.6-1.4s1.4-.9.9-1.9a13.44,13.44,0,0,0-1.1-1.4c-.7,1.3-1.4,2.4-2,3.6-.4.8-.7,1-1.4.4-.1-.1-.2-.2-.3-.2a18.19,18.19,0,0,0-3.3,0c-.3,0-.5.8-.7,1.3-.7-.1-.8-.6-.9-1.3A2.22,2.22,0,0,0,252,38c-.1-.1-.7.1-.8.3a4.87,4.87,0,0,0-.1,1.2v.8c0,.1-.4.2-.4.1a1.27,1.27,0,0,1-.4-.7,10.45,10.45,0,0,1,0-2.5,1.37,1.37,0,0,1,.5-1c1.2-.4,1.4-1.3,1.3-2.4a2.74,2.74,0,0,1,.2-1.2,3.18,3.18,0,0,1,.3.9c-.2,1.9.8,3.1,2,4.4.4.5,2.1.6,2.8.3s.8-1.1.8-1.8a12.57,12.57,0,0,0-.6-5.1,15.69,15.69,0,0,0-1.2-2.1l.6-.6c-.2-1-1-1.4-1.8-1.7a12.86,12.86,0,0,0-1.9-.4,1.36,1.36,0,0,0-1.6,1.5,1.67,1.67,0,0,1-1.29,2l-.11,0c-.4.1-.7.8-1.1,1.2-1,1.2-2.1,2.3-3.1,3.5a4.27,4.27,0,0,0-1.1,2.1c-.1,1.2-.8,1.3-1.6,1.3-1.1,0-2.1-.1-3.2-.2h-1.1v.8h0l.4,2.9a1.7,1.7,0,0,0,1.5,1.5l4.2.6-4.2.6a1.8,1.8,0,0,0-1.5,1.5l-.5,3.4-.6-4.3a1.7,1.7,0,0,0-1.5-1.5l-4.2-.6,4.2-.6a1.8,1.8,0,0,0,1.5-1.5l.3-1.9a1.09,1.09,0,0,1-.5-.1,3.27,3.27,0,0,0-2.9,1.1c-.8.8-1.6,1.7-2.4,2.6-1.3,1.6-.5,3.2.1,4.8a.1.1,0,0,1-.1.1h0c-1.8.7-1.5,2.3-1.5,3.7v1.1l-2-1.7a15.67,15.67,0,0,0-.6,2.8c0,.2.4.6.7.8,1.1.5,1.2,1.1.3,2a1.7,1.7,0,0,0,0,1.4c.3.6.6,1-.2,1.4s-.3,1,.3,1.2a1.4,1.4,0,0,1,1.1,1.5,1.74,1.74,0,0,0,.6,1.1,2.49,2.49,0,0,1,.6,2.7c-.1.1-.1.4-.1.3-.5-.1-.8.2-1.2.5s-.8.8-1.5.4a6.64,6.64,0,0,0-1.5-.3c0,.6.1,1,.1,1.4-.5-.1-1-.2-1.1-.2-.9.6-1.7,1.1-2.5,1.6-.5-.5-.6-1.5-1.6-.9v1.1c.4,1.6.9,3.2,1.3,4.9.1.6.2,1.1,1,1.2.3,0,.5.5.7.8.1.1.1.3.2.4,1.4.9,1.4,2.7,2.3,3.8a2.55,2.55,0,0,0,1,.7c.6.3,1,.7.7,1.4-.1.3.1.7.2,1a6.36,6.36,0,0,1,.6,1.8c.1,1.3.3,1.6,1.4,1.5a1.58,1.58,0,0,0,1.5-1.9c-.3-1.2-.4-2.3.8-3.1.3-.2,0-1.1,0-2a3.93,3.93,0,0,1,4.3-1.2c.2-.7.7-1.3.7-2a11.8,11.8,0,0,0-.4-2c-.1-.6-.2-1.3-.4-2.1a21.26,21.26,0,0,1,2.1-1.8c.8-.7,1.2-.5,1.4.6,0,.3.3.6.5.9a7.26,7.26,0,0,0,.9-.5c1.2-1.8,2.2-1.9,3.8-.6.1.1.2.2.3.2,1.2-.3,1.3.7,1.7,1.4a26.75,26.75,0,0,0,1.8,2.8c.2.2.8.1,1.2.2a2.61,2.61,0,0,1,.8.3c.3.1.6.3.9.4.6.3,1.2.5,1.4,1.2s2.6,1.4,3.2,1c.2-.2.4-.7.3-.9a11.76,11.76,0,0,0-1-1.9c.9-.3,1.4-1.3,2.5-1.1.5.1.6-.4.3-.9a3.18,3.18,0,0,1-.3-.9,4.51,4.51,0,0,1,1.1-.3,9.93,9.93,0,0,1,3,.5,9.24,9.24,0,0,0,5.7-.2,1.53,1.53,0,0,1,1.9.6,2.86,2.86,0,0,1,.1,1.6c-.2,1-.1,1.1.9,1.4a2.76,2.76,0,0,1,1.6,1.2c.5.9,1.1.8,1.8.4s1.5-.9,2.3-1.3c-.8,1,.2,1.5.5,2.2a39.56,39.56,0,0,1,1.5,4.5c.5,1.7.4,1.7,2.1,1.6.2,0,.7.2.7.4.3.8.9.7,1.6.6,1.3-.2,1.9.1,2.3,1.2.7,1.6.8,1.7,2.6,1.7.3,0,.6.5,1,.8h1.3c2-1,4-2,6.1-3a1.32,1.32,0,0,1,1.9.9,1.3,1.3,0,0,0,1.9.9c1-.3,2-.5,3-.9s1.1-1,.9-1.9c-.1-.3-.2-.7-.3-1-.1-.7.1-1.3.9-1.3,1.2.1,2.5.3,3.7.5a1.78,1.78,0,0,1,.8.7c.3.3.4.9.7,1a2,2,0,0,0,1.7-.3,2.86,2.86,0,0,1,2.6-.6l-.5-3.7a2.13,2.13,0,0,0-1.9-1.9l-5.5-.8,5.5-.8a2.13,2.13,0,0,0,1.9-1.9l.8-5.5.8,5.5a2.13,2.13,0,0,0,1.9,1.9l5.5.8-5.5.8a2.13,2.13,0,0,0-1.9,1.9l-.6,3.8a4,4,0,0,1,.9.5,4.82,4.82,0,0,0,5.8-.4c1-.8,2.2-1.3,2.7-2.6a.89.89,0,0,1,.5-.4,5.54,5.54,0,0,0,1.8-.2,3.89,3.89,0,0,1,2.8.1,1.41,1.41,0,0,0,1.2-.6c.7-.9,1.7-1.7.7-3.2-.4-.6-.1-1.8,0-2.7.2-1.3.2-1.5-1.2-2.1.4-.5.6-1,1-1.2,1.1-.6,2.3-1.1,3.4-1.6s1.9.2,2.7.8c1.5,1.3,3,2.6,4.5,3.8a1.7,1.7,0,0,0,1.4,0c1.3-.5,2.4-.7,3.6.4,1.4,1.2,2.4.4,3.1-.9a8.45,8.45,0,0,0,.5-1.7,4,4,0,0,1,.5-.9h.1l-.2-1.2a1.59,1.59,0,0,0-1.4-1.3l-4-.6,4-.6a1.59,1.59,0,0,0,1.4-1.3l.6-3.9.6,3.9a1.59,1.59,0,0,0,1.4,1.3l4,.6-4,.6a1.59,1.59,0,0,0-1.4,1.3l-.3,2.1A5.64,5.64,0,0,1,354,74c.2,1.1.2,2.3.5,3.5a6.46,6.46,0,0,0,.9,1.9c-.4,0-.7.1-1,.1-.5,0-1-.1-1.3.7a1.24,1.24,0,0,0,.5,1.5,4.07,4.07,0,0,1,1.2,1.4,1.72,1.72,0,0,1-.1,2.4c.3.3.6.5,1.1,1,.2-.7.3-1.2.4-1.7s.1-1,.2-1.4c.3,0,.4,0,.4.1,1.3,1.1,1.6,1,2.4-.6a10.61,10.61,0,0,0,1.1-6.3c-.2-1.3-.1-2.7-.3-4.1-.1-.7-.5-1.3-.6-2-.1-1-.1-2-.2-3a8.91,8.91,0,0,0-1.8-3.8,30,30,0,0,1-2.2-3.9,6.71,6.71,0,0,1,1.4.9,15.25,15.25,0,0,1,2.2,2.2c.5.7.8,1.5,1.4,2.2,1,1.3,2,2.5,3.1,3.7.2.3.8.3,1.1.4V67.9c.3-.6.6-.3,1,0a1.08,1.08,0,0,0,.7.3,3.53,3.53,0,0,0-2.7-2.1,2.33,2.33,0,0,1-2-2,3.64,3.64,0,0,1,.2-1.4c.3.1.7.2,1,.3h.7c-.1-.2,0-.6-.2-.7a3.46,3.46,0,0,0-1.2-.7,14.73,14.73,0,0,1-5.4-3.8c-.6-.7-1.4-1.4-2.3-2.3-.2,1.1-.4,1.8-.5,2.5a6.69,6.69,0,0,0-1.9-.5,3.14,3.14,0,0,0-1.6.6c-.3.2-.4.8-.5,1.2a6.53,6.53,0,0,0,0,1.4c-.6-.2-1-.4-1.4-.5,0,.1-.1.2-.1.3a5,5,0,0,0-.7-.8,14.7,14.7,0,0,0-1.3,1c-.1,0-.2-.1-.3-.1a13.55,13.55,0,0,0,.2-2c.1-3.1.2-6.2.2-9.2,0-1.5.4-2.6,1.9-3.1a1.34,1.34,0,0,0,.7-.6,9.45,9.45,0,0,0,1.6-2.3,9.2,9.2,0,0,0,.2-1.9c.4-.2,1-.5,1.7-.9h.4c1,.6,1.2-.2,1.5-.9a15.88,15.88,0,0,0,.7-2c.1-.2,0-.5,0-.9a14.7,14.7,0,0,0-1,1.3,11.12,11.12,0,0,1-.8-2.1c-.2-1-.4-2.1-.6-3.2-.1-.6-.3-1.2.5-1.6.3-.2.3-.8.4-1.3.8.5,1.3,1.7,2.6,1a6.89,6.89,0,0,1-.3-.8c-.1-.2-.3-.3-.3-.4,0-1.7-.9-3.2-1.5-4.7-.1-.1.1-.3.1-.4h.2c.6,1.7,2.5,2.6,2.6,4.6a9.63,9.63,0,0,0,1.1,3.1c.4,1.3,1.1,2.6,1,3.9s.8,2.4.9,3.7c0,.5.8,1.1,1.3,1.5,1.9,1.3,4,2.8,6.1,4.1m3.1,3.9c.1,0,.2-.1.4-.1V47l-1.8.3a.37.37,0,0,1-.1.3,2.49,2.49,0,0,1,1.5,1.8m.8,17.4c-.2,0-.3,0-.3.1a1.1,1.1,0,0,0,0,.8,3.58,3.58,0,0,0,.4,1.1,4.62,4.62,0,0,0,.7.7,1.38,1.38,0,0,1,.4-.3,12.67,12.67,0,0,1-.6-1.8c0-.2.5-.5-.1-.6h-.5m.1-3.4c.1,1.1.4,2.1.6,3.2h.3V62.5c-.3.4-.9.7-.9.9m-.2-13.4a1,1,0,0,0,.28,1.39h0c0,.4-.1.7-.1,1.2.7-.7.7-.7-.2-2.6m1.8,9.8c-.1-.2-.4-.2-.7-.3.2.8.3,1.4.5,2.1a1.51,1.51,0,0,0,.2-1.8"/><g class="cls-2"><g class="cls-2"><path d="M16.06,45.84a.83.83,0,0,1,.63.27L18.48,48a8.5,8.5,0,0,1-3.28,2.55,11.4,11.4,0,0,1-4.66.87,11.08,11.08,0,0,1-4.4-.83,9.5,9.5,0,0,1-3.31-2.32,10.3,10.3,0,0,1-2.1-3.52,13.78,13.78,0,0,1-.38-7.54,10.85,10.85,0,0,1,1-2.69A10.42,10.42,0,0,1,3,32.32a9.81,9.81,0,0,1,2.15-1.69,10.37,10.37,0,0,1,2.62-1.07,12,12,0,0,1,3-.37,11.84,11.84,0,0,1,2.27.21,11,11,0,0,1,2,.58,9.22,9.22,0,0,1,1.72.91,9.65,9.65,0,0,1,1.42,1.16l-1.52,2.07a1.41,1.41,0,0,1-.35.35,1,1,0,0,1-.57.15,1.27,1.27,0,0,1-.73-.25q-.37-.25-.9-.57a6.52,6.52,0,0,0-1.33-.57,6.83,6.83,0,0,0-2-.25,6.24,6.24,0,0,0-2.5.49,5.45,5.45,0,0,0-2,1.43,6.6,6.6,0,0,0-1.27,2.3,9.91,9.91,0,0,0-.45,3.11,9.31,9.31,0,0,0,.49,3.13,6.86,6.86,0,0,0,1.33,2.32,5.61,5.61,0,0,0,2,1.43,6.06,6.06,0,0,0,2.42.49,11.72,11.72,0,0,0,1.39-.07,5.8,5.8,0,0,0,1.16-.26,5,5,0,0,0,1-.46,6.17,6.17,0,0,0,1-.72,1.83,1.83,0,0,1,.34-.22A.85.85,0,0,1,16.06,45.84Z"/></g><g class="cls-2"><path d="M43.06,40.31a12,12,0,0,1-.8,4.42A10.36,10.36,0,0,1,40,48.26a10.47,10.47,0,0,1-3.52,2.33,12.69,12.69,0,0,1-9.12,0,10.55,10.55,0,0,1-3.52-2.33,10.29,10.29,0,0,1-2.27-3.52,12.58,12.58,0,0,1,0-8.84,10.32,10.32,0,0,1,2.27-3.52A10.54,10.54,0,0,1,27.36,30a12.69,12.69,0,0,1,9.12,0,10.27,10.27,0,0,1,5.78,5.86A11.88,11.88,0,0,1,43.06,40.31Zm-4.6,0A9.71,9.71,0,0,0,38,37.24a6.5,6.5,0,0,0-1.3-2.31,5.58,5.58,0,0,0-2.06-1.46,7.74,7.74,0,0,0-5.48,0,5.57,5.57,0,0,0-2.06,1.46,6.5,6.5,0,0,0-1.3,2.31,10.72,10.72,0,0,0,0,6.15,6.42,6.42,0,0,0,1.3,2.3,5.61,5.61,0,0,0,2.06,1.45,7.72,7.72,0,0,0,5.48,0,5.62,5.62,0,0,0,2.06-1.45,6.42,6.42,0,0,0,1.3-2.3A9.77,9.77,0,0,0,38.46,40.31Z"/></g><g class="cls-2"><path d="M61,34.94a5.76,5.76,0,0,1-.67,2.75,5.15,5.15,0,0,1-2.06,2,7.72,7.72,0,0,1,1.33.84,5.6,5.6,0,0,1,1,1.06,4.77,4.77,0,0,1,.67,1.25,4.21,4.21,0,0,1,.24,1.42A7,7,0,0,1,61,47.1a6.36,6.36,0,0,1-1.61,2.25,7.76,7.76,0,0,1-2.6,1.51,10.41,10.41,0,0,1-3.52.55A12.15,12.15,0,0,1,51,51.2a13.25,13.25,0,0,1-2.14-.58,11.71,11.71,0,0,1-1.91-.9,8.89,8.89,0,0,1-1.58-1.17l1.33-2.13a1.36,1.36,0,0,1,.43-.4,1.11,1.11,0,0,1,.58-.16,1.71,1.71,0,0,1,.9.3q.48.3,1.13.66a9.23,9.23,0,0,0,1.53.66,6.61,6.61,0,0,0,2.11.3,4.72,4.72,0,0,0,2.9-.78,2.93,2.93,0,0,0,1-2.5A2.59,2.59,0,0,0,57,43.26a2.67,2.67,0,0,0-.82-.92,3.83,3.83,0,0,0-1.28-.57,6.15,6.15,0,0,0-1.65-.18H50.14V38h2.79a5,5,0,0,0,2.86-.69,2.3,2.3,0,0,0,1-2,2.15,2.15,0,0,0-.92-1.83,4.58,4.58,0,0,0-2.72-.67,6.4,6.4,0,0,0-1.8.22,8.31,8.31,0,0,0-1.33.5L49,34a1.58,1.58,0,0,1-.74.23,1,1,0,0,1-.57-.16,1.69,1.69,0,0,1-.44-.49L46.17,31.5a9.43,9.43,0,0,1,3.06-1.69,12,12,0,0,1,3.93-.62,11.64,11.64,0,0,1,3.25.42,7.71,7.71,0,0,1,2.47,1.18,5.26,5.26,0,0,1,1.57,1.81A5,5,0,0,1,61,34.94Z"/><path d="M66.43,51.2V29.44h7.73a14.77,14.77,0,0,1,3.74.41A7.11,7.11,0,0,1,80.44,31a4.46,4.46,0,0,1,1.43,1.84,6.21,6.21,0,0,1,.45,2.42,4.76,4.76,0,0,1-.22,1.44,4.29,4.29,0,0,1-.67,1.3,5,5,0,0,1-1.18,1.1,7.15,7.15,0,0,1-1.71.84q4.35,1,4.35,4.79a6.19,6.19,0,0,1-.53,2.56,5.8,5.8,0,0,1-1.55,2.06,7.33,7.33,0,0,1-2.51,1.36,11,11,0,0,1-3.43.49Zm4.5-12.46h3a8.1,8.1,0,0,0,1.68-.16,3.36,3.36,0,0,0,1.23-.5,2.23,2.23,0,0,0,.76-.91,3.19,3.19,0,0,0,.26-1.36,3.88,3.88,0,0,0-.22-1.38,2,2,0,0,0-.67-.92,2.92,2.92,0,0,0-1.14-.5,7.41,7.41,0,0,0-1.64-.16H70.93Zm0,3.06v6h3.85a5.09,5.09,0,0,0,1.78-.26,3,3,0,0,0,1.12-.7,2.39,2.39,0,0,0,.59-1,4.12,4.12,0,0,0,.16-1.16,3.39,3.39,0,0,0-.19-1.18,2.12,2.12,0,0,0-.63-.89A3,3,0,0,0,76.48,42a6.47,6.47,0,0,0-1.72-.2Z"/><path d="M101.7,29.44V33H92.37v5.6h7.26V42H92.37v5.71h9.33V51.2H87.84V29.44Z"/><path d="M120.13,34.94a5.76,5.76,0,0,1-.67,2.75,5.15,5.15,0,0,1-2.06,2,7.72,7.72,0,0,1,1.33.84,5.6,5.6,0,0,1,1,1.06,4.77,4.77,0,0,1,.67,1.25,4.21,4.21,0,0,1,.24,1.42,7,7,0,0,1-.56,2.78,6.36,6.36,0,0,1-1.61,2.25,7.76,7.76,0,0,1-2.6,1.51,10.41,10.41,0,0,1-3.52.55,12.15,12.15,0,0,1-2.24-.21,13.25,13.25,0,0,1-2.14-.58,11.71,11.71,0,0,1-1.91-.9,8.89,8.89,0,0,1-1.58-1.17l1.33-2.13a1.36,1.36,0,0,1,.43-.4,1.11,1.11,0,0,1,.58-.16,1.71,1.71,0,0,1,.9.3q.48.3,1.13.66a9.23,9.23,0,0,0,1.53.66,6.61,6.61,0,0,0,2.11.3,4.72,4.72,0,0,0,2.9-.78,2.93,2.93,0,0,0,1-2.5,2.59,2.59,0,0,0-.29-1.24,2.67,2.67,0,0,0-.82-.92,3.83,3.83,0,0,0-1.28-.57,6.15,6.15,0,0,0-1.65-.18h-3.12V38h2.79a5,5,0,0,0,2.86-.69,2.3,2.3,0,0,0,1-2,2.15,2.15,0,0,0-.92-1.83,4.58,4.58,0,0,0-2.72-.67,6.4,6.4,0,0,0-1.8.22,8.31,8.31,0,0,0-1.33.5l-1,.5a1.58,1.58,0,0,1-.74.23,1,1,0,0,1-.57-.16,1.69,1.69,0,0,1-.44-.49l-1.11-2.12a9.43,9.43,0,0,1,3.06-1.69,12,12,0,0,1,3.93-.62,11.64,11.64,0,0,1,3.25.42A7.71,7.71,0,0,1,118,30.79a5.26,5.26,0,0,1,1.57,1.81A5,5,0,0,1,120.13,34.94Z"/><path d="M143.82,29.44V47.79h3.31v7.28a1.15,1.15,0,0,1-.4.92,1.51,1.51,0,0,1-1,.34H143V51.2H127.65v3.87a1.15,1.15,0,0,1-.4.92,1.51,1.51,0,0,1-1,.34h-2.71V47.79h2.42a3,3,0,0,0,.79-.72,5.89,5.89,0,0,0,.79-1.38,14.74,14.74,0,0,0,.72-2.24,33.58,33.58,0,0,0,.61-3.32q.28-2,.48-4.6t.29-6.09Zm-9.94,3.4q-.18,3-.48,5.4t-.69,4.18a23.14,23.14,0,0,1-.88,3.14,13.87,13.87,0,0,1-1,2.23h8.49v-15Z"/><path d="M164.88,30.8a4.2,4.2,0,0,1,.36-.49,3.15,3.15,0,0,1,.46-.44,2.24,2.24,0,0,1,.54-.31,1.62,1.62,0,0,1,.62-.12h3.39V51.2h-4.53v-13q0-.81,0-1.7t.18-1.89q-.33.88-.71,1.65t-.72,1.33L157,49.82a3.32,3.32,0,0,1-.36.5,3.8,3.8,0,0,1-.46.44,2.13,2.13,0,0,1-.54.32,1.62,1.62,0,0,1-.62.12H151.6V29.44h4.53v13q0,.81,0,1.7T155.91,46a14.74,14.74,0,0,1,.7-1.65q.38-.76.73-1.33Z"/><path d="M190.17,29.44V33h-9.33v5.6h7.26V42h-7.26v5.71h9.33V51.2H176.31V29.44Z"/></g></g><path class="cls-3" d="M11.31,75.33h-.93V65.91L6.5,75.33H6.14l-3.9-9.42v9.42H1.33V64.66H2.69l3.63,8.8,3.62-8.8h1.38Z"/><path class="cls-3" d="M22.91,75.33H21.86L20.8,72.71H15.15L14.1,75.33H13l4.37-10.67h1.14ZM20.5,71.88,18,65.64l-2.51,6.24Z"/><path class="cls-3" d="M25.55,75.33h-.91V64.66h4a3.12,3.12,0,1,1,0,6.24H25.55Zm3-5.26a2.32,2.32,0,0,0,1.7-.64,2.42,2.42,0,0,0,0-3.3,2.32,2.32,0,0,0-1.7-.64h-3v4.58Z"/><path class="cls-3" d="M41.6,75.33H40.43l-4.4-5-1.18,1.3v3.73h-.91V64.66h.91V70.5L40,64.66h1.17l-4.54,5.09Z"/><path class="cls-3" d="M50.24,75.33H43.47V64.66h6.77v.83H44.38v4h5.74v.83H44.38V74.5h5.86Z"/><path class="cls-3" d="M56.3,75.33h-.93V65.49H51.89v-.83h7.9v.83H56.3Z"/><path class="cls-3" d="M62.74,75.33h-.9V64.66h.91v9l6.69-9h.93V75.33h-.91V66.17Z"/><path class="cls-3" d="M81.79,75.33h-.93V70.26H74.1v5.07h-.91V64.66h.91v4.77h6.77V64.66h.93Z"/><path class="cls-3" d="M85.5,75.33h-.91V64.66h6.77v.83H85.5Z"/><path class="cls-3" d="M98.21,75.53A4.84,4.84,0,0,1,94.46,74a6.17,6.17,0,0,1,0-7.9,5.26,5.26,0,0,1,7.5,0,6.15,6.15,0,0,1,0,7.9A4.85,4.85,0,0,1,98.21,75.53Zm0-.83a3.89,3.89,0,0,0,3.06-1.32,5.47,5.47,0,0,0,0-6.74,4.24,4.24,0,0,0-6.14,0,5.51,5.51,0,0,0,0,6.74A3.87,3.87,0,0,0,98.21,74.69Z"/><path class="cls-3" d="M110.29,75.33h-4.48V64.66h4.38a3,3,0,0,1,2.14.74,2.56,2.56,0,0,1,.8,2,2.45,2.45,0,0,1-.55,1.62,2.29,2.29,0,0,1-1.32.82,2.28,2.28,0,0,1,1.46.9,2.7,2.7,0,0,1,.62,1.72,2.76,2.76,0,0,1-.82,2.1A3.12,3.12,0,0,1,110.29,75.33Zm-.21-5.89a2.08,2.08,0,0,0,1.54-.55,1.92,1.92,0,0,0,.55-1.42,2,2,0,0,0-.55-1.42,2.05,2.05,0,0,0-1.54-.57h-3.36v4Zm.06,5.06a2.28,2.28,0,0,0,1.65-.57,2,2,0,0,0,.59-1.54,2.08,2.08,0,0,0-.59-1.5,2.18,2.18,0,0,0-1.65-.62h-3.42V74.5Z"/><path class="cls-3" d="M115.79,64.66h.91v4.43h3.09a3.1,3.1,0,0,1,2.34.9,3.12,3.12,0,0,1-2.34,5.34h-4Zm3.9,5.26h-3V74.5h3a2.32,2.32,0,0,0,1.7-.64,2.42,2.42,0,0,0,0-3.3A2.32,2.32,0,0,0,119.7,69.92Zm5.5,5.41h-.91V64.66h.91Z"/><path class="cls-3" d="M128.91,75.33H128V64.66h.91v9l6.69-9h.93V75.33h-.91V66.17Zm6.18-12.74a3.3,3.3,0,0,1-2.8,1.41,3.37,3.37,0,0,1-2.82-1.41l.46-.4a2.9,2.9,0,0,0,4.7,0Z"/><path class="cls-3" d="M148.67,75.53A5.25,5.25,0,0,1,144.81,74a5.87,5.87,0,0,1,0-8,5.25,5.25,0,0,1,3.86-1.54,4.77,4.77,0,0,1,3.89,1.89l-.77.5a3.72,3.72,0,0,0-1.34-1.13,3.87,3.87,0,0,0-1.78-.42,4.24,4.24,0,0,0-3.18,1.31,5.1,5.1,0,0,0,0,6.74,4.23,4.23,0,0,0,3.18,1.32,3.85,3.85,0,0,0,1.78-.42,3.72,3.72,0,0,0,1.34-1.13l.77.48A4.79,4.79,0,0,1,148.67,75.53Z"/><path class="cls-3" d="M159.36,75.53A4.84,4.84,0,0,1,155.61,74a6.17,6.17,0,0,1,0-7.9,5.26,5.26,0,0,1,7.5,0,6.15,6.15,0,0,1,0,7.9A4.85,4.85,0,0,1,159.36,75.53Zm0-.83a3.89,3.89,0,0,0,3.06-1.32,5.47,5.47,0,0,0,0-6.74,4.24,4.24,0,0,0-6.14,0,5.51,5.51,0,0,0,0,6.74A3.87,3.87,0,0,0,159.36,74.69Z"/><path class="cls-3" d="M175.1,75.53A4.87,4.87,0,0,1,171.42,74a5.54,5.54,0,0,1-1.5-3.78h-2v5.07H167V64.66h.91v4.77h2.06a5.44,5.44,0,0,1,1.58-3.55,5.28,5.28,0,0,1,7.33.18,6.14,6.14,0,0,1,0,7.9A4.85,4.85,0,0,1,175.1,75.53Zm0-.83a3.89,3.89,0,0,0,3.06-1.32,5.47,5.47,0,0,0,0-6.74,4.23,4.23,0,0,0-6.13,0,5.48,5.48,0,0,0,0,6.74A3.88,3.88,0,0,0,175.1,74.69Z"/><path class="cls-3" d="M185.76,75.53a5.17,5.17,0,0,1-2.33-.5,4,4,0,0,1-1.54-1.27l.62-.56a3.47,3.47,0,0,0,1.34,1.09,4.32,4.32,0,0,0,1.91.42,3.33,3.33,0,0,0,2.1-.61,2,2,0,0,0,.78-1.66,1.82,1.82,0,0,0-.8-1.62,3.73,3.73,0,0,0-2.11-.54h-2.21v-.83h2.21a3.48,3.48,0,0,0,2-.51,1.7,1.7,0,0,0,.78-1.52,1.75,1.75,0,0,0-.78-1.51,3.28,3.28,0,0,0-1.94-.55,4.07,4.07,0,0,0-3.07,1.36l-.56-.58a4.52,4.52,0,0,1,1.56-1.17,4.92,4.92,0,0,1,2.12-.45,4.3,4.3,0,0,1,2.58.76,2.4,2.4,0,0,1,1.06,2.06,2.28,2.28,0,0,1-.4,1.33,2.49,2.49,0,0,1-.88.82,3.56,3.56,0,0,1-1,.34,3,3,0,0,1,1.66.78,2.35,2.35,0,0,1,.79,1.87,2.72,2.72,0,0,1-1,2.2A4.24,4.24,0,0,1,185.76,75.53Z"/></g></g></svg>