<?xml version="1.0" encoding="utf-8"?>
<!-- Generator: Adobe Illustrator 22.1.0, SVG Export Plug-In . SVG Version: 6.00 Build 0)  -->
<svg version="1.1" id="Layer_1" xmlns="http://www.w3.org/2000/svg" xmlns:xlink="http://www.w3.org/1999/xlink" x="0px" y="0px"
	 viewBox="0 0 512 512" style="enable-background:new 0 0 512 512;" xml:space="preserve" fill="#ffffff">
<g>
	<path d="M256,507.8l-6.2-4.6c-8-5.9-195.4-145.4-195.4-291.3c0-111.2,90.5-201.6,201.6-201.6c111.2,0,201.6,90.5,201.6,201.6
		c0,145.9-187.4,285.5-195.4,291.3L256,507.8z M256,31.3c-99.6,0-180.7,81-180.7,180.7C75.3,333,223.5,456.1,256,481.6
		c32.5-25.5,180.7-148.6,180.7-269.7C436.7,112.3,355.6,31.3,256,31.3z"/>
	<polygon points="355.4,188.9 288.2,188.9 288.2,121.7 223.8,121.7 223.8,188.9 156.6,188.9 156.6,253.4 223.8,253.4 223.8,320.5 
		288.2,320.5 288.2,253.4 355.4,253.4 	"/>
</g>
</svg>
