<?xml version="1.0" encoding="iso-8859-1"?>
<!-- Generator: Adobe Illustrator 19.0.0, SVG Export Plug-In . SVG Version: 6.00 Build 0)  -->
<svg version="1.1" id="Capa_1" xmlns="http://www.w3.org/2000/svg" xmlns:xlink="http://www.w3.org/1999/xlink" x="0px" y="0px"
	 viewBox="0 0 512 512" style="enable-background:new 0 0 512 512;" xml:space="preserve">
<g>
	<g>
		<path d="M407.24,78.402v31.219C450.602,123.872,482,164.739,482,212.808s-31.398,88.936-74.76,103.188v31.219
			C467.36,332.076,512,277.56,512,212.808S467.36,93.54,407.24,78.402z"/>
	</g>
</g>
<g>
	<g>
		<path d="M376.052,136.079V12.424h-74.83l-37.077,98.871H0V314.32v0.001h81.579l29.915,185.255h110.73l-29.915-185.255h71.834
			l37.078,98.872h74.83V289.536h0.001c41.124-1.4,74.153-35.269,74.153-76.728C450.205,171.349,417.176,137.479,376.052,136.079z
			 M30,284.321V141.295h93.59v56.513H96v30h27.59v56.513H30z M137.038,469.576l-25.071-155.255h49.953l25.071,155.255H137.038z
			 M346.052,383.193h-24.041l-37.077-98.872H153.59V141.295h131.344l37.077-98.871h24.041V383.193z M376.052,259.523v-93.431
			c24.578,1.375,44.153,21.8,44.153,46.716S400.63,258.148,376.052,259.523z"/>
	</g>
</g>
<g>
</g>
<g>
</g>
<g>
</g>
<g>
</g>
<g>
</g>
<g>
</g>
<g>
</g>
<g>
</g>
<g>
</g>
<g>
</g>
<g>
</g>
<g>
</g>
<g>
</g>
<g>
</g>
<g>
</g>
</svg>
