<?xml version="1.0" encoding="iso-8859-1"?>
<!-- Generator: Adobe Illustrator 19.0.0, SVG Export Plug-In . SVG Version: 6.00 Build 0)  -->
<svg version="1.1" id="Capa_1" xmlns="http://www.w3.org/2000/svg" xmlns:xlink="http://www.w3.org/1999/xlink" x="0px" y="0px"
	 viewBox="0 0 512 512" style="enable-background:new 0 0 512 512;" xml:space="preserve">
<g>
	<g>
		<path d="M299.887,326.927c14.135-5.224,27.089-12.899,38.354-22.501c13.346,16.327,33.631,26.772,56.315,26.772h14.988V223.839
			c0-41.081-16.219-78.445-42.588-106.027V13.213l-60.757,20.252L256.001,0l-50.198,33.465l-60.756-20.252v104.598
			c-26.369,27.583-42.588,64.946-42.588,106.027v107.359h14.988c22.684,0,42.969-10.445,56.315-26.771
			c11.265,9.602,24.22,17.277,38.354,22.501c-75.68,19.539-131.75,88.387-131.75,170.085V512h351.273v-14.988
			C431.639,415.314,375.568,346.466,299.887,326.927z M379.568,223.839v74.671c-16.198-6.085-27.755-21.735-27.755-40.032V199.31
			l-38.599-67.064h25.641C363.845,154.872,379.568,187.552,379.568,223.839z M175.022,54.803l35.211,11.737l45.767-30.513
			L301.77,66.54l35.211-11.737v47.467H175.022V54.803z M160.189,195.479v62.999c0.001,18.298-11.557,33.947-27.755,40.031v-74.671
			c0-36.286,15.723-68.966,40.711-91.592h78.029L160.189,195.479z M187.848,276.715c1.512-5.829,2.318-11.94,2.318-18.236v-47.327
			l95.626-66.459l36.045,62.628v51.158c0,6.296,0.806,12.407,2.317,18.236c-17.528,17.337-41.611,28.059-68.153,28.059
			S205.377,294.052,187.848,276.715z M241.014,482.024H111.107c5.229-50.93,36.812-94.16,80.842-115.809l49.065,66.804V482.024z
			 M221.297,355.535c11.126-2.73,22.748-4.183,34.704-4.183c11.955,0,23.578,1.453,34.704,4.183l-34.704,47.252L221.297,355.535z
			 M270.989,482.024v-49.005l49.065-66.804c44.031,21.65,75.613,64.879,80.843,115.809H270.989z"/>
	</g>
</g>
<g>
	<g>
		<rect x="309.294" y="422.011" width="42.633" height="29.976"/>
	</g>
</g>
<g>
	<g>
		<rect x="0.207" y="149.47" width="60.903" height="29.976"/>
	</g>
</g>
<g>
	<g>
		<rect x="27.848" y="75.498" transform="matrix(0.5547 -0.8321 0.8321 0.5547 -62.0152 79.0432)" width="29.977" height="43.92"/>
	</g>
</g>
<g>
	<g>
		<rect x="20.872" y="215.691" transform="matrix(0.832 -0.5547 0.5547 0.832 -120.7683 62.5047)" width="43.916" height="29.975"/>
	</g>
</g>
<g>
	<g>
		<rect x="450.89" y="149.47" width="60.903" height="29.976"/>
	</g>
</g>
<g>
	<g>
		<rect x="447.189" y="82.472" transform="matrix(0.8321 -0.5547 0.5547 0.8321 24.7271 276.5934)" width="43.92" height="29.977"/>
	</g>
</g>
<g>
	<g>
		
			<rect x="454.193" y="208.718" transform="matrix(0.5547 -0.8321 0.8321 0.5547 16.9985 493.1164)" width="29.977" height="43.92"/>
	</g>
</g>
<g>
	<g>
		<path d="M278.693,234.557c-12.511,12.512-32.872,12.512-45.384,0l-21.196,21.197c12.099,12.099,27.995,18.149,43.888,18.149
			c15.894,0,31.788-6.05,43.888-18.149L278.693,234.557z"/>
	</g>
</g>
<g>
</g>
<g>
</g>
<g>
</g>
<g>
</g>
<g>
</g>
<g>
</g>
<g>
</g>
<g>
</g>
<g>
</g>
<g>
</g>
<g>
</g>
<g>
</g>
<g>
</g>
<g>
</g>
<g>
</g>
</svg>
