<?xml version="1.0" encoding="iso-8859-1"?>
<!-- Generator: Adobe Illustrator 19.0.0, SVG Export Plug-In . SVG Version: 6.00 Build 0)  -->
<svg version="1.1" id="Capa_1" xmlns="http://www.w3.org/2000/svg" xmlns:xlink="http://www.w3.org/1999/xlink" x="0px" y="0px"
	 viewBox="0 0 512.01 512.01" style="enable-background:new 0 0 512.01 512.01;" xml:space="preserve">
<g>
	<g>
		<path d="M256,0.005c-92.205,0-167.22,75.015-167.22,167.221c0,25.688,6.541,50.775,19.442,74.566
			c10.479,19.326,25.001,37.154,42.248,51.93v161.702h45.265v56.581h120.53v-56.581h45.265V293.723
			c17.247-14.776,31.769-32.604,42.249-51.93c12.9-23.79,19.441-48.878,19.441-74.566C423.22,75.02,348.206,0.005,256,0.005z
			 M286.265,482.005h-60.53v-26.581h60.53V482.005z M331.53,425.424H180.47v-38.612h151.06V425.424z M302.252,183.835
			L302.252,183.835l-37.986,101.298l-7.842-74.488H209.97l13.299-100.359h66.759l-29.73,73.549H302.252z M337.224,274.882
			l-5.694,4.504v77.426h-62.103l76.117-202.977h-40.762l29.73-73.549H196.981l-21.249,160.359h53.685l12.229,116.167H180.47v-77.426
			l-5.694-4.504c-35.063-27.735-55.996-67.98-55.996-107.655c0-75.665,61.557-137.222,137.22-137.222s137.22,61.557,137.22,137.221
			C393.22,206.903,372.287,247.148,337.224,274.882z"/>
	</g>
</g>
<g>
	<g>
		<rect y="140.575" width="53.15" height="30"/>
	</g>
</g>
<g>
	<g>
		<rect x="40.169" y="77.956" transform="matrix(0.5547 -0.8321 0.8321 0.5547 -56.2393 89.1534)" width="30.001" height="38.322"/>
	</g>
</g>
<g>
	<g>
		
			<rect x="36.022" y="198.371" transform="matrix(0.8321 -0.5547 0.5547 0.8321 -109.0853 66.4407)" width="38.322" height="30.001"/>
	</g>
</g>
<g>
	<g>
		<rect x="458.86" y="140.575" width="53.15" height="30"/>
	</g>
</g>
<g>
	<g>
		<rect x="437.686" y="82.116" transform="matrix(0.832 -0.5547 0.5547 0.832 22.8619 269.7345)" width="38.318" height="29.998"/>
	</g>
</g>
<g>
	<g>
		<rect x="441.839" y="194.193" transform="matrix(0.5547 -0.8321 0.8321 0.5547 25.9172 475.1321)" width="30" height="38.322"/>
	</g>
</g>
<g>
</g>
<g>
</g>
<g>
</g>
<g>
</g>
<g>
</g>
<g>
</g>
<g>
</g>
<g>
</g>
<g>
</g>
<g>
</g>
<g>
</g>
<g>
</g>
<g>
</g>
<g>
</g>
<g>
</g>
</svg>
