<?xml version="1.0" encoding="iso-8859-1"?>
<!-- Generator: Adobe Illustrator 19.0.0, SVG Export Plug-In . SVG Version: 6.00 Build 0)  -->
<svg version="1.1" id="Capa_1" xmlns="http://www.w3.org/2000/svg" xmlns:xlink="http://www.w3.org/1999/xlink" x="0px" y="0px"
	 viewBox="0 0 512 512" style="enable-background:new 0 0 512 512;" xml:space="preserve">
<g>
	<g>
		<path d="M370.042,190.517l32.171-59.592V0h-81.518l-36.24,96.641l-139.202,149.91H2.282V512h157.933v-36.19L214.5,512h238.327
			l56.89-221.99v-99.493H370.042z M130.11,481.895H32.387V276.656h97.723V481.895z M309.776,481.895h-86.16l-63.4-42.266V274.681
			h-0.001l150.342-161.908l31.001-82.668h30.551v93.212l-42.08,77.945L309.776,481.895z M429.465,481.895h-89.506l2.084-28.875
			h94.822L429.465,481.895z M444.58,422.915H344.216l3.235-44.823h108.617L444.58,422.915z M462.554,352.781v-4.793h-112.93
			l3.235-44.823H475.27L462.554,352.781z M479.613,273.06H355.031l3.784-52.438h120.797V273.06z"/>
	</g>
</g>
<g>
	<g>
		<rect x="63.692" y="306.509" width="35.122" height="35.122"/>
	</g>
</g>
<g>
</g>
<g>
</g>
<g>
</g>
<g>
</g>
<g>
</g>
<g>
</g>
<g>
</g>
<g>
</g>
<g>
</g>
<g>
</g>
<g>
</g>
<g>
</g>
<g>
</g>
<g>
</g>
<g>
</g>
</svg>
